<svg xmlns="http://www.w3.org/2000/svg" width="901" height="799" fill="none" viewBox="0 0 901 799">
    <g opacity=".62">
        <path fill="url(#paint0_linear)" d="M329.718 687.887c-41.835 9.348-83.343 11.331-126.186-1.125-47.753-13.887-86.041-57.797-105.999-99.667-7.416-15.553-12.858-32.631-10.283-49.369 5.964-38.664 45.117-38.931 77.371-29.178 18.182 5.489 34.406 15.333 50.444 25.08 26.625 16.19 58.745 26.156 81.979 47.158 7.794 7.065 13.374 15.155 22.695 20.68 14.499 8.599 31.509 13.729 46.481 21.743 12.78 6.868 26.783 17.428 25.45 31.19-1.384 14.113-17.787 21.472-31.974 25.653-10.046 2.986-20.014 5.624-29.978 7.835z"/>
        <path fill="url(#paint1_linear)" d="M229.934 170.555c75.454-85.766 216.295-108.56 324.063-61.975 51.965 22.472 93.46 62.239 131.333 102.973 33.384 35.902 65.43 74.208 86.33 118.043 14.272 29.922 23.152 64.923 28.67 97.307 8.241 48.486-9.415 107.983-73.196 96.769-14.965-2.629-27.495-9.142-41.145-15.123-11.04-4.846-22.425-3.836-34.085-6.863-29.348-7.613-57.022-21.04-82.96-36.084-52.859-30.684-100.071-69.78-154.803-97.554-44.856-22.738-93.724-37.185-143.97-42.563-21.197-2.265-43.628-3.206-61.709-14.197-44.563-27.11-17.665-84.724 3.099-116.541 5.506-8.477 11.646-16.562 18.373-24.192z"/>
        <path fill="url(#paint2_linear)" d="M748.717 239.341c9.999 10.535 50.394 40.675 54.174 10.696.931-7.469-1.935-15.119-6.27-21.117-4.957-6.883-10.953-10.852-14.587-18.645-4.457-9.418-9.703-18.38-15.671-26.772-12.171-17.439-26.764-33.905-45.585-42.539-13.202-6.05-36.435-7.325-44.552 8.594-11.824 23.174 28.146 31.858 39.602 41.964 10.875 9.569 16.091 24.592 24.236 36.953 2.575 3.898 5.471 7.535 8.653 10.866z"/>
        <path fill="url(#paint3_linear)" d="M549.638 188.672c21.864 15.358 37.317 36.528 56.879 54.327 32.569 29.629 80.18 40.004 118.678 62.278 39.254 22.724 67.451 54.583 77.421 97.272 12.883 55.102 8.389 118.544-12.371 171.611-22.86 58.413-66.582 94.209-127.385 114.748-60.767 20.526-126.406 26.178-190.904 21.978-6.225-.401-12.428-.916-18.646-1.534-139.646-13.931-320.845-80.106-354.387-227.357-.308-1.345-.598-2.689-.887-4.051-3.34-16.363-4.612-33.013-3.791-49.595 2.757-58.798 19.889-122.215 46.888-174.764 18.163-35.38 52.531-63.294 87.7-82.057 49.411-26.361 106.738-28.378 163.383-26.199 41.946 1.615 88.915 5.538 126.837 24.811 10.654 5.451 20.878 11.645 30.585 18.532z"/>
    </g>
    <path fill="#FB4C47" d="M437.047 386.218c1.034 4.038 5.301 6.572 9.532 5.661l17.422-3.753c8.869-1.911 18.127-1.858 27.021.249 2.652.628 5.51.614 8.329-.186 7.471-2.12 12.118-9.342 10.747-16.695-1.609-8.634-10.482-14.182-19.277-12.288-2.382.514-4.505 1.518-6.278 2.878-7.116 5.455-15.329 9.491-24.288 11.421l-17.419 3.753c-4.23.911-6.822 4.923-5.789 8.96z"/>
    <path fill="#C63F3B" d="M345.401 456.046c-3.077-1.827-7.087-.963-8.956 1.93l-7.697 11.914c-3.918 6.066-9.267 11.179-15.671 14.869-1.91 1.099-3.542 2.696-4.669 4.738-2.986 5.413-1.213 12.292 4.098 15.905 6.236 4.242 14.745 2.612 18.631-3.402 1.052-1.629 1.653-3.407 1.835-5.201.731-7.2 2.965-14.165 6.923-20.292l7.695-11.912c1.869-2.894.889-6.721-2.189-8.549zM414.821 348.589c3.221 1.913 7.417 1.009 9.372-2.019l8.055-12.467c4.1-6.347 9.698-11.698 16.399-15.559 1.998-1.151 3.706-2.821 4.885-4.959 3.125-5.664 1.27-12.863-4.289-16.643-6.525-4.439-15.43-2.733-19.495 3.56-1.101 1.705-1.73 3.565-1.921 5.442-.764 7.535-3.102 14.823-7.244 21.235l-8.052 12.465c-1.955 3.028-.93 7.033 2.29 8.945z"/>
    <path fill="#FB4C47" d="M396.198 449.466c-4.231.912-6.823 4.923-5.789 8.961l4.256 16.627c2.167 8.464 2.275 17.264.215 25.682-.615 2.509-.55 5.226.342 7.92 2.363 7.138 10.043 11.684 17.758 10.51 9.056-1.378 14.739-9.714 12.59-18.108-.582-2.274-1.676-4.309-3.138-6.018-5.867-6.861-10.258-14.739-12.447-23.289l-4.256-16.624c-1.033-4.038-5.301-6.572-9.531-5.661z"/>
    <path fill="#C63F3B" d="M422.429 495.04c-5.866-6.861-10.258-14.738-12.447-23.289l-4.256-16.624c-1.033-4.038-5.301-6.572-9.532-5.661-4.231.912-6.822 4.923-5.788 8.961l4.255 16.624c2.189 8.551 6.581 16.428 12.448 23.29 1.461 1.709 2.556 3.744 3.138 6.018 1.384 5.407-.485 10.788-4.41 14.303 2.266.673 4.701.876 7.14.504 9.057-1.378 14.74-9.714 12.591-18.108-.582-2.273-1.677-4.308-3.139-6.018z"/>
    <path fill="#FF8F8C" d="M318.085 379.991c13.821-2.978 22.287-16.084 18.91-29.273-3.376-13.19-17.317-21.469-31.137-18.491-13.821 2.977-22.287 16.083-18.91 29.273 3.376 13.189 17.317 21.468 31.137 18.491z"/>
    <path fill="#FB4C47" d="M305.863 332.227c-2.672.576-5.142 1.534-7.367 2.795 10.862.918 20.46 8.358 23.184 18.997 2.723 10.639-2.261 21.22-11.543 26.478 2.605.22 5.281.07 7.954-.506 13.82-2.977 22.286-16.083 18.91-29.273-3.377-13.19-17.318-21.468-31.138-18.491z"/>
    <path fill="#FB4C47" d="M402.949 475.847c45.127-9.721 72.771-52.515 61.745-95.583-11.025-43.067-56.545-70.099-101.672-60.377-45.126 9.721-72.77 52.515-61.745 95.583 11.026 43.067 56.546 70.099 101.672 60.377z"/>
    <path fill="#C63F3B" d="M363.023 319.886c-2.584.557-5.107 1.227-7.572 1.994 42.477-5.261 83.53 21.083 93.924 61.684 10.394 40.602-13.583 80.955-54.173 93.589 2.579-.319 5.164-.75 7.748-1.306 45.127-9.722 72.771-52.516 61.745-95.583-11.025-43.068-56.545-70.1-101.672-60.378z"/>
    <path fill="#C63F3B" d="M410.859 380.45c9.167-1.975 14.782-10.668 12.543-19.416-2.24-8.748-11.486-14.239-20.653-12.264-9.166 1.975-14.781 10.667-12.542 19.416 2.24 8.748 11.486 14.239 20.652 12.264z"/>
    <path fill="#fff" d="M402.748 348.77c-2.764.596-5.202 1.805-7.202 3.44 5.986 1.498 10.969 6.015 12.534 12.125 1.564 6.11-.707 12.19-5.34 15.976 2.584.647 5.354.734 8.118.139 9.167-1.975 14.782-10.667 12.542-19.415-2.239-8.748-11.486-14.239-20.652-12.265zM364.323 445.345c6.206-1.337 10.007-7.221 8.491-13.143-1.516-5.922-7.776-9.639-13.981-8.302-6.205 1.336-10.006 7.221-8.49 13.143 1.516 5.922 7.775 9.639 13.98 8.302z"/>
    <path fill="#FB4C47" d="M457.123 458.348c8.462-1.823 13.645-9.847 11.578-17.922-2.068-8.076-10.603-13.144-19.064-11.321-8.461 1.823-13.645 9.847-11.577 17.922 2.067 8.075 10.602 13.144 19.063 11.321z"/>
    <path fill="#C63F3B" d="M449.636 429.105c-2.792.601-5.223 1.881-7.159 3.611 5.226 1.542 9.517 5.6 10.902 11.011 1.386 5.411-.488 10.796-4.419 14.311 2.573.759 5.371.912 8.163.311 8.461-1.823 13.644-9.847 11.577-17.922-2.067-8.075-10.602-13.145-19.064-11.322zM328.915 409.514c1.033 4.037-1.558 8.049-5.789 8.961l-17.421 3.753c-8.869 1.911-17.134 5.738-24.076 11.257-2.07 1.645-4.636 2.799-7.549 3.234-7.718 1.152-15.384-3.416-17.725-10.561-2.747-8.388 2.505-16.98 11.3-18.875 2.382-.513 4.77-.48 7.018.014 9.02 1.979 18.332 2.239 27.291.309l17.419-3.752c4.23-.912 8.498 1.622 9.532 5.66z"/>
    <path fill="#FB4C47" d="M369.782 346.267c4.231-.911 6.823-4.923 5.789-8.961l-4.256-16.626c-2.167-8.464-2.275-17.264-.215-25.682.615-2.509.55-5.226-.342-7.92-2.363-7.139-10.044-11.684-17.758-10.51-9.056 1.378-14.739 9.714-12.591 18.108.583 2.273 1.677 4.308 3.139 6.018 5.867 6.861 10.258 14.738 12.447 23.289l4.256 16.624c1.033 4.037 5.301 6.572 9.531 5.66z"/>
    <path fill="#C63F3B" d="M370.759 287.078c-2.363-7.139-10.044-11.684-17.758-10.51-3.222.49-6.013 1.864-8.181 3.805 4.9 1.457 9.002 5.124 10.618 10.005.892 2.695.957 5.411.343 7.921-2.061 8.417-1.953 17.217.214 25.681l4.256 16.627c1.034 4.037 5.301 6.572 9.532 5.66 4.231-.911 6.823-4.923 5.789-8.961l-4.256-16.626c-2.167-8.464-2.275-17.264-.215-25.682.615-2.509.55-5.226-.342-7.92zM492.381 359.863c-2.392.471-4.532 1.438-6.331 2.765-.318.235-.641.463-.963.692 5.531 1.711 9.959 6.253 10.948 12.184.845 5.072-1.158 10.031-4.937 13.279.307.073.614.144.92.221 2.639.674 5.496.71 8.329-.04 7.509-1.988 12.294-9.12 11.065-16.49-1.442-8.653-10.204-14.35-19.031-12.611z"/>
    <g opacity=".63">
        <path fill="#FFC700" d="M524.959 542.373c.981 1.905 3.387 2.722 5.376 1.824l8.187-3.7c4.168-1.883 8.757-2.828 13.404-2.709 1.386.035 2.799-.272 4.101-.967 3.452-1.841 4.914-5.931 3.382-9.455-1.799-4.138-6.835-5.976-10.969-4.108-1.12.505-2.053 1.229-2.773 2.093-2.889 3.468-6.486 6.343-10.696 8.246l-8.187 3.698c-1.988.899-2.805 3.172-1.825 5.078z"/>
        <path fill="#D09700" d="M483.121 576.736c-1.735-.589-3.62.263-4.209 1.902l-2.426 6.751c-1.235 3.436-3.29 6.548-6.031 9.06-.818.749-1.44 1.717-1.761 2.854-.849 3.013.827 6.259 3.875 7.504 3.579 1.462 7.602-.243 8.827-3.651.332-.923.422-1.872.305-2.786-.475-3.669-.178-7.378 1.07-10.849l2.426-6.75c.589-1.64-.34-3.446-2.076-4.035zM505.009 515.849c1.816.616 3.788-.275 4.405-1.99l2.539-7.065c1.292-3.596 3.442-6.852 6.311-9.481.855-.784 1.507-1.796 1.842-2.986.889-3.154-.865-6.55-4.055-7.853-3.745-1.53-7.955.255-9.236 3.821-.348.966-.443 1.959-.319 2.916.496 3.839.185 7.72-1.121 11.353l-2.538 7.063c-.616 1.715.356 3.605 2.172 4.222z"/>
        <path fill="#FFC700" d="M507.496 568.128c-1.988.898-2.805 3.171-1.825 5.077l4.038 7.848c2.055 3.995 3.13 8.374 3.088 12.79-.013 1.316.334 2.664 1.089 3.915 1.998 3.313 6.327 4.775 10.01 3.381 4.322-1.638 6.168-6.392 4.129-10.354-.552-1.074-1.33-1.974-2.252-2.673-3.7-2.808-6.789-6.277-8.865-10.313l-4.036-7.847c-.981-1.906-3.387-2.723-5.376-1.824z"/>
        <path fill="#D09700" d="M525.773 588.11c-3.7-2.807-6.789-6.277-8.865-10.313l-4.037-7.847c-.98-1.906-3.387-2.723-5.375-1.824-1.989.898-2.806 3.171-1.825 5.077l4.037 7.847c2.076 4.037 5.164 7.506 8.865 10.313.922.7 1.7 1.6 2.252 2.673 1.313 2.553 1.012 5.433-.522 7.598 1.199.099 2.428-.056 3.592-.497 4.323-1.637 6.168-6.392 4.13-10.354-.552-1.073-1.33-1.974-2.252-2.673zM460.772 541.66c6.495-2.935 9.164-10.361 5.961-16.586-3.202-6.226-11.064-8.894-17.559-5.959-6.495 2.934-9.164 10.36-5.961 16.586 3.203 6.226 11.064 8.894 17.559 5.959z"/>
        <path fill="#FFC700" d="M449.175 519.115c-1.256.567-2.367 1.304-3.322 2.167 5.483-.681 11.098 2.023 13.681 7.045 2.583 5.022 1.344 10.823-2.639 14.419 1.314-.163 2.622-.519 3.878-1.086 6.495-2.935 9.164-10.361 5.961-16.586-3.203-6.226-11.064-8.894-17.559-5.959z"/>
        <path fill="#FFC700" d="M513.901 580.58c21.208-9.582 29.922-33.83 19.465-54.159-10.458-20.328-36.128-29.04-57.336-19.457-21.208 9.582-29.923 33.83-19.465 54.159 10.458 20.328 36.128 29.04 57.336 19.457z"/>
        <path fill="#D09700" d="M476.037 506.964c-1.214.549-2.386 1.148-3.517 1.789 20.415-7.079 43.794 1.757 53.652 20.922 9.859 19.165 2.676 41.81-15.948 52.37 1.239-.43 2.469-.916 3.683-1.464 21.208-9.583 29.923-33.831 19.466-54.159-10.458-20.329-36.128-29.04-57.336-19.458z"/>
        <path fill="#fff" d="M501.521 534.103c1.568-.708 2.213-2.502 1.439-4.005-.773-1.503-2.671-2.148-4.24-1.439-1.568.709-2.213 2.502-1.439 4.005.773 1.504 2.671 2.148 4.24 1.439zM491.238 569.414c2.916-1.318 4.115-4.652 2.677-7.448-1.438-2.796-4.968-3.994-7.885-2.676-2.916 1.318-4.115 4.653-2.677 7.448 1.438 2.796 4.968 3.994 7.885 2.676zM476.775 543.21c4.465-2.017 6.3-7.122 4.098-11.402-2.202-4.28-7.606-6.114-12.071-4.097-4.465 2.018-6.3 7.123-4.098 11.403 2.201 4.279 7.606 6.114 12.071 4.096z"/>
        <path fill="#FFC700" d="M538.681 566.168c3.976-1.797 5.611-6.343 3.65-10.155-1.961-3.812-6.775-5.445-10.751-3.649-3.977 1.797-5.611 6.344-3.65 10.156 1.961 3.811 6.774 5.445 10.751 3.648z"/>
        <path fill="#D09700" d="M531.581 552.365c-1.312.592-2.367 1.486-3.124 2.552 2.766.221 5.361 1.795 6.675 4.35 1.314 2.554 1.012 5.437-.526 7.603 1.362.109 2.765-.108 4.076-.701 3.977-1.797 5.611-6.344 3.65-10.155-1.96-3.812-6.774-5.446-10.751-3.649zM469.559 555.253c.98 1.905.163 4.179-1.825 5.077l-8.188 3.7c-4.168 1.883-7.814 4.659-10.61 8.14-.833 1.038-1.969 1.883-3.361 2.406-3.686 1.384-8.011-.091-9.999-3.41-2.334-3.896-.732-8.734 3.401-10.601 1.12-.506 2.306-.74 3.475-.73 4.695.042 9.335-.805 13.545-2.707l8.187-3.699c1.988-.899 4.395-.082 5.375 1.824z"/>
        <path fill="#FFC700" d="M482.44 519.417c1.988-.898 2.805-3.171 1.825-5.077l-4.038-7.848c-2.055-3.996-3.13-8.374-3.087-12.79.012-1.316-.335-2.665-1.089-3.915-1.999-3.314-6.328-4.776-10.01-3.381-4.323 1.637-6.168 6.392-4.13 10.354.552 1.073 1.33 1.974 2.252 2.673 3.7 2.808 6.789 6.277 8.865 10.313l4.037 7.847c.98 1.906 3.387 2.723 5.375 1.824z"/>
        <path fill="#D09700" d="M476.048 489.787c-1.998-3.314-6.328-4.776-10.01-3.381-1.538.582-2.76 1.56-3.608 2.756 2.595.213 5.051 1.612 6.418 3.878.754 1.251 1.102 2.599 1.089 3.915-.043 4.416 1.032 8.794 3.088 12.79l4.037 7.848c.98 1.906 3.387 2.722 5.375 1.824 1.989-.898 2.806-3.171 1.825-5.077l-4.037-7.849c-2.055-3.995-3.13-8.374-3.088-12.789.013-1.316-.334-2.665-1.089-3.915z"/>
    </g>
    <path fill="#1DB776" d="M592.214 468.881c-2.362-.955-5.058.076-6.022 2.304l-3.97 9.175c-2.021 4.671-5.153 8.826-9.188 12.093-1.202.974-2.154 2.267-2.7 3.82-1.448 4.114.597 8.752 4.727 10.723 4.848 2.314 10.593.269 12.597-4.363.543-1.255.753-2.565.67-3.843-.336-5.129.404-10.252 2.446-14.971l3.97-9.173c.964-2.228-.169-4.809-2.53-5.765z"/>
    <path fill="#128E5A" d="M588.107 402.982c1.944-.743 2.858-2.855 2.041-4.716l-3.364-7.665c-1.713-3.902-2.47-8.114-2.163-12.3.091-1.248-.158-2.546-.799-3.773-1.7-3.252-5.728-4.875-9.312-3.753-4.208 1.317-6.249 5.727-4.551 9.596.46 1.048 1.146 1.945 1.98 2.659 3.348 2.864 6.074 6.324 7.804 10.266l3.364 7.663c.818 1.861 3.056 2.767 5 2.023zM618.448 472.111c-2.034.779-2.991 2.988-2.136 4.936l3.521 8.021c1.792 4.083 2.585 8.49 2.264 12.871-.096 1.306.164 2.664.836 3.948 1.778 3.403 5.993 5.101 9.744 3.927 4.403-1.379 6.539-5.993 4.762-10.042-.482-1.097-1.199-2.035-2.072-2.782-3.503-2.998-6.356-6.618-8.167-10.742l-3.52-8.02c-.855-1.947-3.197-2.895-5.232-2.117z"/>
    <path fill="#1DB776" d="M574.352 428.194c.964-2.228-.169-4.809-2.531-5.765l-9.724-3.935c-4.951-2.004-9.379-5.054-12.888-8.946-1.047-1.161-2.424-2.088-4.068-2.635-4.354-1.449-9.199.413-11.2 4.304-2.35 4.568-.096 10.065 4.813 12.052 1.33.538 2.713.761 4.056.704 5.391-.229 10.796.566 15.797 2.59l9.723 3.935c2.361.956 5.058-.076 6.022-2.304z"/>
    <path fill="#128E5A" d="M542.812 423.974c5.391-.229 10.795.565 15.797 2.589l9.723 3.935c2.362.956 5.058-.075 6.022-2.303.964-2.229-.169-4.809-2.53-5.765l-9.724-3.935c-5.001-2.024-10.405-2.818-15.797-2.59-1.343.057-2.726-.166-4.056-.704-3.163-1.28-5.221-4.017-5.658-7.024-1.096.784-2.014 1.811-2.647 3.041-2.35 4.568-.096 10.065 4.814 12.051 1.33.539 2.712.762 4.056.705zM635.221 417.448c-3.149 7.278.551 15.709 8.266 18.831s16.522-.247 19.671-7.525c3.15-7.279-.551-15.71-8.265-18.832-7.715-3.122-16.522.247-19.672 7.526z"/>
    <path fill="#1DB776" d="M663.16 428.756c.609-1.408.959-2.858 1.077-4.305-4.102 4.573-11.034 6.28-17.257 3.762-6.222-2.519-9.831-8.491-9.342-14.527-.983 1.097-1.806 2.356-2.415 3.764-3.15 7.278.551 15.709 8.266 18.831s16.522-.247 19.671-7.525z"/>
    <path fill="#1DB776" d="M558.921 421.951c-10.284 23.765 1.799 51.295 26.989 61.489 25.19 10.195 53.948-.807 64.232-24.572 10.284-23.765-1.8-51.295-26.99-61.49-25.19-10.194-53.948.807-64.231 24.573z"/>
    <path fill="#128E5A" d="M650.151 458.869c.589-1.361 1.101-2.734 1.545-4.116-11.622 21.001-38.537 30.231-62.285 20.62-23.748-9.611-35.844-34.628-28.535-57.374-.705 1.275-1.358 2.592-1.946 3.953-10.284 23.765 1.799 51.295 26.989 61.489 25.191 10.195 53.948-.807 64.232-24.572z"/>
    <path fill="#128E5A" d="M603.871 459.106c-2.089 4.828.366 10.42 5.482 12.491 5.117 2.07 10.959-.164 13.047-4.992 2.089-4.827-.365-10.419-5.482-12.49-5.117-2.071-10.958.164-13.047 4.991z"/>
    <path fill="#fff" d="M622.411 466.606c.63-1.456.844-2.981.699-4.458-2.756 2.171-6.681 2.827-10.255 1.381-3.574-1.447-5.846-4.611-6.181-8.033-1.19.937-2.163 2.155-2.793 3.611-2.089 4.827.366 10.419 5.483 12.49 5.116 2.071 10.958-.164 13.047-4.991zM587.099 415.278c-1.414 3.268.248 7.053 3.712 8.455 3.464 1.402 7.418-.111 8.832-3.379 1.414-3.268-.247-7.053-3.711-8.455-3.464-1.402-7.418.111-8.833 3.379z"/>
    <path fill="#1DB776" d="M549.483 452.532c-1.929 4.457.337 9.619 5.061 11.531 4.724 1.912 10.117-.151 12.045-4.608 1.929-4.457-.337-9.619-5.061-11.531-4.724-1.912-10.117.151-12.045 4.608z"/>
    <path fill="#128E5A" d="M566.594 459.455c.636-1.471.813-3.018.599-4.5-2.523 1.813-5.987 2.319-9.152 1.038-3.166-1.281-5.225-4.022-5.661-7.032-1.242.892-2.257 2.1-2.893 3.57-1.929 4.457.338 9.62 5.061 11.531 4.724 1.912 10.117-.151 12.046-4.607zM616.854 411.936c-2.361-.956-3.494-3.537-2.53-5.765l3.97-9.175c2.021-4.671 2.883-9.744 2.458-14.817-.127-1.512.157-3.075.917-4.541 2.014-3.885 6.865-5.732 11.216-4.272 5.107 1.715 7.633 7.108 5.629 11.74-.543 1.255-1.36 2.319-2.36 3.159-4.013 3.369-7.267 7.475-9.308 12.194l-3.97 9.173c-.964 2.228-3.66 3.259-6.022 2.304z"/>
    <path fill="#1DB776" d="M634.715 452.624c-.964 2.228.168 4.809 2.53 5.765l9.725 3.936c4.951 2.003 9.378 5.053 12.888 8.946 1.046 1.161 2.424 2.088 4.067 2.635 4.355 1.448 9.199-.414 11.201-4.305 2.35-4.567.096-10.064-4.813-12.051-1.33-.539-2.713-.762-4.056-.704-5.392.228-10.796-.566-15.797-2.59l-9.724-3.935c-2.361-.956-5.057.075-6.021 2.303z"/>
    <path fill="#128E5A" d="M663.924 473.904c4.355 1.448 9.199-.414 11.201-4.305.836-1.625 1.087-3.367.845-5.027-2.37 1.695-5.576 2.253-8.554 1.263-1.644-.547-3.021-1.474-4.068-2.634-3.509-3.893-7.937-6.943-12.888-8.947l-9.724-3.935c-2.362-.956-5.058.075-6.022 2.303-.964 2.229.168 4.809 2.53 5.765l9.725 3.936c4.951 2.003 9.378 5.053 12.888 8.946 1.046 1.161 2.424 2.088 4.067 2.635zM587.655 502.638c.542-1.254.753-2.564.669-3.841-.015-.226-.025-.452-.035-.678-2.672 1.939-6.414 2.402-9.736.816-2.841-1.357-4.695-3.975-5.103-6.817-.137.115-.273.232-.412.345-1.203.974-2.154 2.266-2.7 3.818-1.447 4.112.597 8.748 4.725 10.718 4.846 2.314 10.588.269 12.592-4.361z"/>
    <defs>
        <linearGradient id="paint0_linear" x1="83.128" x2="106.616" y1="542.716" y2="686.358" gradientUnits="userSpaceOnUse">
            <stop stop-color="#FFD8D8"/>
            <stop offset="1" stop-color="#FFF8F8"/>
        </linearGradient>
        <linearGradient id="paint1_linear" x1="813.069" x2="412.934" y1="315.705" y2="-12.892" gradientUnits="userSpaceOnUse">
            <stop stop-color="#FFF8F8"/>
            <stop offset="1" stop-color="#FFCFCF"/>
        </linearGradient>
        <linearGradient id="paint2_linear" x1="804.057" x2="652.089" y1="249.627" y2="162.13" gradientUnits="userSpaceOnUse">
            <stop stop-color="#FFD7D7"/>
            <stop offset="1" stop-color="#FFF9F9"/>
        </linearGradient>
        <linearGradient id="paint3_linear" x1="725.277" x2="130.951" y1="676.931" y2="226.824" gradientUnits="userSpaceOnUse">
            <stop stop-color="#FFCFCF"/>
            <stop offset="1" stop-color="#FFF8F8"/>
        </linearGradient>
    </defs>
</svg>
