<svg xmlns="http://www.w3.org/2000/svg" width="270" height="249" fill="none" viewBox="0 0 270 249">
    <path fill="url(#paint0_linear)" d="M102.298 236.075c-14.374 5.093-28.887 7.446-44.367 4.505-17.254-3.28-32.22-18.046-40.676-32.771-3.142-5.47-5.643-11.581-5.317-17.879.76-14.549 14.506-16.175 26.173-13.822 6.577 1.324 12.616 4.336 18.586 7.319 9.912 4.957 21.54 7.395 30.426 14.265 2.982 2.312 5.221 5.09 8.686 6.772 5.39 2.619 11.543 3.855 17.079 6.238 4.727 2.045 10.01 5.409 10.017 10.557.001 5.28-5.507 8.644-10.347 10.746-3.426 1.497-6.836 2.863-10.26 4.07z"/>
    <path fill="url(#paint1_linear)" d="M49.39 48.41c23.547-34.7 72.236-48.633 111.702-35.586 19.03 6.294 34.979 19.4 49.69 33.007 12.966 11.991 25.546 24.925 34.401 40.341 6.046 10.523 10.374 23.137 13.43 34.913 4.568 17.632.419 40.351-22.373 38.686-5.348-.39-9.974-2.313-14.976-3.995-4.045-1.364-8.01-.546-12.21-1.212-10.573-1.674-20.758-5.567-30.389-10.126-19.628-9.3-37.562-21.935-57.748-30.085-16.542-6.67-34.207-10.113-52.044-10.145-7.525-.012-15.437.514-22.168-2.85-16.59-8.3-9.13-30.683-2.933-43.274 1.641-3.354 3.519-6.586 5.619-9.674z"/>
    <path fill="url(#paint2_linear)" d="M234.007 53.648c3.876 3.51 19.107 13.095 19.4 1.847.069-2.802-1.202-5.522-2.932-7.574-1.978-2.356-4.222-3.591-5.767-6.335-1.891-3.314-4.043-6.428-6.429-9.302-4.878-5.983-10.573-11.51-17.482-13.973-4.847-1.726-13.052-1.292-15.354 4.92-3.354 9.041 10.987 10.698 15.36 13.993 4.151 3.119 6.501 8.478 9.789 12.738 1.039 1.342 2.182 2.576 3.415 3.685z"/>
    <path fill="url(#paint3_linear)" d="M162.324 42.65c8.211 4.834 14.37 12.07 21.856 17.898 12.464 9.7 29.547 11.685 43.84 18.432 14.574 6.883 25.578 17.58 30.554 32.998 6.428 19.901 7.039 43.567 1.578 64.026-6.015 22.521-20.138 37.48-40.789 47.456-20.638 9.971-43.501 14.624-66.304 15.584-2.2.094-4.397.145-6.603.159-49.537.288-115.474-17.149-132.34-70.364-.154-.487-.302-.973-.45-1.466-1.739-5.929-2.76-12.044-3.045-18.216-1.06-21.879 2.769-46.029 10.44-66.54 5.16-13.809 16.269-25.485 27.975-33.804 16.448-11.688 36.517-14.67 56.491-16.073 14.791-1.038 31.426-1.417 45.413 4.24 3.931 1.604 7.736 3.498 11.384 5.67z"/>
    <path fill="#FB4C47" d="M193.966 233.12c-63.495 18.462-113.547 2.022-132.066-9.187l-17.197-13.188 5.953-9.89 37.039-3.297 61.511-3.297 49.606 9.891 9.498-4.83 1.694 17.5c2.258 13.549.564 10.162-16.038 16.298z"/>
    <path fill="#FB4C47" d="M75.901 225.278h108.73s9.683-81.123-4.632-89.035c-14.313-7.912-81.246-6.258-96.082.499-14.835 6.757-8.016 88.536-8.016 88.536z"/>
    <path fill="#000C3E" d="M80.922 119.157c-.222 0-.446-.082-.62-.249-.096-.089-9.483-9.214-3.01-25.279 2.269-5.633 4.381-9.59 6.243-13.08 3.363-6.296 5.79-10.846 6.906-20.868.055-.495.508-.842.997-.799.496.056.853.504.797.999-1.153 10.369-3.781 15.29-7.105 21.522-1.843 3.448-3.929 7.36-6.164 12.901-6.015 14.934 2.49 23.208 2.575 23.292.363.343.38.914.036 1.276-.176.188-.415.285-.655.285zM141.308 23.68c-.258 6.865-6.024 12.223-12.882 11.965-6.858-.258-12.21-6.03-11.952-12.896.258-6.866 6.024-12.224 12.882-11.966 6.857.258 12.21 6.031 11.952 12.897z"/>
    <path fill="#000C3E" d="M80.087 114.341s3.1 7.767 17.76 11.471c14.659 3.704 26.698-.841 37.862 4.141 11.167 4.984 28.115.745 31.742-3.842 3.625-4.586 6.752-58.036-1.647-67.636-8.399-9.602-55.223-20.466-66.235-10.721-11.013 9.744-25.562 60.107-19.482 66.587z"/>
    <path fill="#000C3E" d="M172.212 75.288c-.848 22.624-19.853 40.279-42.454 39.432-22.598-.849-43.574-20.89-42.726-43.514.846-22.625 20.029-39.05 42.627-38.2 22.602.846 43.401 19.658 42.553 42.282z"/>
    <path fill="#FFCEB0" d="M148.088 109.565s2.657 31.925 0 35.472c-2.657 3.547-19.489.888-23.916 0-4.43-.885-6.203-35.472-3.543-35.472 2.656 0 26.949-7.119 27.459 0z"/>
    <path fill="#FFCEB0" d="M97.859 72.216s1.684 49.76 35.288 51.908c33.604 2.149 33.57-67.962 21.409-74.63-12.162-6.67-62.91-5.418-56.697 22.722z"/>
    <path fill="#EE9B68" d="M137.794 82.868s6.417 15.315 4.767 16.33c-1.652 1.015-6.484.835-7.787-.291-1.304-1.127.395-17.754 3.02-16.04z"/>
    <path fill="#000C3E" d="M124.319 45.68s-12.049 5.833-14.342 16.783c-2.293 10.953-1.105 38.993-13.872 37.705 0 0-24.72-55.492 28.214-54.489M130.671 45.917c-1.093.784 12.424.753 20.152 10.13 7.729 9.379 9.565 32.818 10.759 33.255 1.195.434 5.967-29.046-2.505-37.904-8.474-8.854-22.184-9.94-28.406-5.48z"/>
    <path fill="#EE9B68" d="M121.093 119.587s13.075 7.442 26.651.487c0 0 1.055 8.353 0 10.28-1.058 1.927-22.558 3.304-26.79-6.192 0 0-1.082-4.987.139-4.575"/>
    <path fill="#FFCEB0" d="M158.394 91.288s2.642-12.48 7.05-8.09c4.406 4.388.284 17.442-4.114 18.667-4.398 1.225-5.41-4.134-2.936-10.577zM105.683 89.311s-2.276-12.663-8.204-8.662c-5.928 4-1.838 17.362 3.606 18.957 5.441 1.591 7.173-3.661 4.598-10.295z"/>
    <path fill="#41294A" d="M144.829 75.866s5.579-3.75 9.695.348c3.618 3.602-4.027 1.184-6.665 1.982-2.637.796-6.214.95-3.03-2.33zM130.118 76.752s-5.348-4.073-9.698-.227c-3.825 3.384 3.951 1.42 6.535 2.373 2.585.95 6.15 1.317 3.163-2.146z"/>
    <path fill="#FFFCF6" d="M124.309 80.85c-5.224 0-9.471 4.097-9.666 9.327-.2 5.339 3.977 9.846 9.312 10.046l.369.007c5.224 0 9.471-4.097 9.666-9.327.096-2.588-.819-5.057-2.577-6.955-1.759-1.897-4.151-2.995-6.733-3.091l-.371-.007zm.015 20.586c-.137 0-.275-.002-.414-.007-5.998-.227-10.695-5.293-10.471-11.298.226-6.019 5.263-10.695 11.285-10.48 2.905.109 5.595 1.343 7.57 3.477 1.978 2.135 3.006 4.91 2.9 7.818-.221 5.882-4.995 10.49-10.87 10.49z"/>
    <path fill="#FFFCF6" d="M114.045 90.757c-.077 0-.154-.014-.231-.046l-9.108-3.776c-.306-.128-.453-.482-.325-.789.128-.308.479-.455.785-.325l9.11 3.776c.306.128.453.48.325.789-.096.231-.32.371-.556.371z"/>
    <path fill="#000C3E" d="M135.191 50.293s-1.364 19.32 6.063 21.768c7.426 2.45 21.767 2.204 22.649-.748.881-2.949-14.159-26.69-24.952-30.497-18.926-6.675-36.177 21.262-34.016 28.684 2.16 7.425 24.708 4.394 28.177 3.439 3.471-.955 1.385-17.314 2.079-22.646z"/>
    <path fill="#FFFCF6" d="M135.191 90.949c-.311 0-.576-.241-.6-.557-.024-.333.224-.623.554-.649l6.128-.465c.337-.015.621.221.648.557.024.33-.224.62-.557.646l-6.125.468h-.048z"/>
    <path fill="#000C3E" d="M121.128 35.575c-.14 0-.28-.031-.412-.101-3.608-1.862-5.762-4.459-6.393-7.714-1.394-7.162 5.116-14.857 5.396-15.18.325-.379.893-.42 1.272-.1.38.326.424.898.098 1.277-.062.072-6.224 7.362-4.993 13.663.523 2.681 2.356 4.852 5.446 6.448.443.23.619.774.39 1.218-.161.31-.477.49-.804.49zM135.462 37.79c-.258 0-.516-.11-.694-.322-.32-.384-.27-.955.113-1.276.075-.06 7.347-6.238 7.166-12.655-.077-2.732-1.527-5.175-4.314-7.256-.4-.3-.482-.866-.183-1.266.296-.398.867-.483 1.262-.184 3.255 2.431 4.95 5.347 5.042 8.662.2 7.295-7.487 13.813-7.814 14.088-.169.14-.376.21-.578.21zM164.34 124.286c-.292 0-.578-.142-.752-.402-.279-.415-.166-.975.248-1.254.359-.244 8.853-6.08 7.523-17.04-.518-4.278-1.689-9.05-2.929-14.104-2.156-8.797-4.389-17.893-3.825-26.473.031-.497.474-.897.961-.844.499.034.874.463.841.962-.545 8.303 1.652 17.259 3.779 25.923 1.25 5.108 2.435 9.933 2.965 14.317 1.469 12.089-7.913 18.496-8.313 18.763-.151.102-.327.152-.498.152z"/>
    <path fill="#000C3E" d="M172.131 79.43c-.04 0-.081-.002-.127-.009-.494-.07-.836-.526-.766-1.02 1.973-14.01-1.966-25.127-11.702-33.04-7.284-5.92-15.223-7.725-15.302-7.742-.487-.106-.795-.589-.687-1.078.106-.487.59-.794 1.077-.688.332.073 33.334 7.785 28.401 42.799-.063.453-.448.779-.894.779z"/>
    <path fill="#EE9B68" d="M139.458 114.902c-1.835 0-3.256-.583-3.348-.622-.457-.193-.674-.721-.482-1.181.191-.458.718-.676 1.178-.487.029.012 2.766 1.114 5.155-.07.448-.227.988-.044 1.212.405.221.446.041.988-.407 1.21-1.125.562-2.281.745-3.308.745zM102.261 96.422c-.087 0-.176-.012-.263-.038-.479-.147-.746-.651-.602-1.129 1.819-5.975-2.531-9.944-2.575-9.986-.373-.332-.404-.904-.072-1.275.33-.374.906-.408 1.274-.075.217.193 5.254 4.794 3.103 11.862-.118.39-.477.641-.865.641zM161.356 96.6c-.022 0-.043 0-.062-.003-.499-.036-.875-.468-.839-.965.41-5.78 4.016-8.708 4.167-8.828.398-.311.954-.246 1.267.144.311.389.246.958-.139 1.269-.032.026-3.141 2.59-3.493 7.54-.034.478-.431.842-.901.842z"/>
    <path fill="#FFCEB0" d="M101.086 139.504s31.101 27.63 48.439 20.43c17.336-7.201 22.459-24.117 13.744-26.707-8.714-2.59-75.812-4.548-62.183 6.277z"/>
    <path fill="#EE9B68" d="M141.255 111.661c-.101 0-.205-.016-.306-.053-2.83-1.027-4.23-2.278-4.283-3.831-.084-2.535 3.784-4.312 4.225-4.507.453-.201.988.004 1.19.463.2.455-.005.991-.463 1.193-1.288.569-3.179 1.852-3.145 2.79.021.68 1.178 1.498 3.088 2.19.469.171.713.69.544 1.157-.135.369-.482.598-.85.598z"/>
    <path fill="#41294A" d="M126.957 93.038c-.284 0-.568-.1-.797-.301-4.032-3.569-6.839-2.643-6.957-2.604-.619.222-1.308-.1-1.536-.714-.229-.617.069-1.3.681-1.539.169-.067 4.199-1.56 9.406 3.048.499.442.547 1.206.106 1.703-.238.27-.571.407-.903.407zM148.215 93.264c-.333 0-.663-.138-.904-.408-.44-.499-.392-1.26.106-1.702 5.215-4.613 9.238-3.116 9.406-3.048.619.241.928.94.684 1.56-.238.617-.927.921-1.541.692-.145-.05-2.944-.943-6.954 2.605-.229.2-.513.3-.797.3z"/>
    <path fill="#000C3E" d="M223.55 112.262l-22.835-6.603-6.684 8.65-16.148-1.707 19.029 9.337 6.643-10.876 19.995 1.199zM203.717 95.628l-14.419.224-2.348 6.205-9.674 1.876 12.697 2.04 1.929-7.49 11.815-2.855z"/>
    <path fill="#FFFCF6" d="M151.53 79.314c-5.225 0-9.471 4.097-9.666 9.327-.2 5.341 3.976 9.846 9.312 10.046l.368.007c5.225 0 9.472-4.097 9.667-9.327.2-5.339-3.98-9.846-9.313-10.046l-.368-.007zm.014 20.586c-.139 0-.277-.002-.416-.007-5.996-.227-10.693-5.293-10.469-11.295.227-6.022 5.259-10.693 11.288-10.483 5.995.227 10.69 5.293 10.468 11.295-.219 5.882-4.996 10.49-10.871 10.49"/>
    <path fill="#FFBD96" d="M116.465 181.964s18.309-21.594 34.298-51.002c6.265-11.526 18.003-14.326 18.429-12.71.426 1.618-6.821 8.365-6.821 8.365s9.659-7.128 11.224-4.804c1.566 2.325-6.32 9.386-6.32 9.386s7.033-4.073 10.018-2.366c2.984 1.707-8.315 3.875-8.101 9.817 3.281 91.249-39.705 84.138-39.705 84.138l-13.022-40.824z"/>
    <path fill="#EE9B68" d="M134.778 161.273c-.113 0-.229-.021-.342-.067-.46-.188-.682-.716-.494-1.179 10.521-25.786 16.994-29.555 17.263-29.702.439-.241.985-.075 1.226.359.239.437.08.982-.349 1.223-.123.074-6.364 4.039-16.468 28.804-.143.35-.482.562-.836.562z"/>
    <path fill="#FB4C47" d="M106.854 198.223l-62.073 4.956s-2.084-29.753 6.87-45.114c8.953-15.361 33.914-22.31 38.089-23.171 4.174-.861 17.114 63.329 17.114 63.329z"/>
    <path fill="#D9423D" d="M178.28 135.379s22.34 4.839 26.635 28.494c2.748 15.123 6.605 63.464 6.605 63.464l-9.986 3.828-9.176 2.734-19.319 4.375 5.241-102.895zM114.038 178.12s26.54 43.514 17.312 44.72c-9.228 1.206-56.198 4.823-68.844 0-12.646-4.823-19.09-10.789-17.48-24.066-1.42-20.654 5.355-45.938 8.723-40.213 17.12 29.108 60.289 19.559 60.289 19.559z"/>
    <path fill="#B43936" d="M111.388 179.326c-17.536 0-33.412-17.408-34.079-18.149-.446-.494-.407-1.258.087-1.702.493-.446 1.255-.408 1.7.087.157.173 15.835 17.353 32.292 17.353.664 0 1.204.54 1.204 1.205 0 .666-.54 1.206-1.204 1.206zM181.789 222.37h-.029c-.664-.017-1.192-.569-1.175-1.234.007-.309.725-30.949.002-44.692-.679-12.908-4.017-15.807-4.051-15.836-.504-.415-.598-1.164-.198-1.681.395-.511 1.12-.629 1.65-.243.434.321 4.261 3.521 5.003 17.632.73 13.837.01 44.569.003 44.878-.017.655-.552 1.176-1.205 1.176z"/>
    <path fill="#FFD310" d="M132.501 13.199c-.317 0-.661.037-1.034.11-.909.183-1.498.624-1.851 1.391-1.577 3.412 1.747 11.54 4.122 16.34 1.468-5.326 3.227-14.229.741-17.035-.478-.539-1.13-.806-1.978-.806zm1.514 21.85c-.395 0-.765-.214-.96-.566-.84-1.506-8.126-14.88-5.437-20.705.647-1.4 1.829-2.31 3.419-2.626 2.708-.54 4.263.46 5.089 1.394 4.318 4.875-.501 20.034-1.064 21.747-.138.414-.506.709-.941.75-.035.004-.071.005-.106.005z"/>
    <path fill="#FFD310" d="M147.333 18.611c-.104 0-.209.006-.315.022-3.718.495-8.21 8.38-10.585 13.369 4.937-2.079 12.768-6.05 13.808-9.66.234-.813.077-1.532-.491-2.265-.765-.984-1.557-1.466-2.417-1.466zm-13.011 16.507c-.296 0-.586-.118-.796-.34-.302-.316-.389-.78-.221-1.184.695-1.663 6.966-16.281 13.422-17.142 1.237-.165 3.066.094 4.759 2.274.996 1.28 1.297 2.742.87 4.224-1.777 6.163-16.039 11.512-17.658 12.102-.123.045-.25.066-.376.066z"/>
    <path stroke="#FFD310" stroke-width="1.631" d="M113.666 31.232c5.345 3.435 17.56 6.108 27.104 0"/>
    <defs>
        <linearGradient id="paint0_linear" x1="10.662" x2="25.575" y1="191.938" y2="243.719" gradientUnits="userSpaceOnUse">
            <stop stop-color="#FFD8D8"/>
            <stop offset="1" stop-color="#FFF8F8"/>
        </linearGradient>
        <linearGradient id="paint1_linear" x1="259.25" x2="102.754" y1="79.414" y2="-19.38" gradientUnits="userSpaceOnUse">
            <stop stop-color="#FFF8F8"/>
            <stop offset="1" stop-color="#FFCFCF"/>
        </linearGradient>
        <linearGradient id="paint2_linear" x1="253.802" x2="196.538" y1="55.298" y2="30.839" gradientUnits="userSpaceOnUse">
            <stop stop-color="#FFD7D7"/>
            <stop offset="1" stop-color="#FFF9F9"/>
        </linearGradient>
        <linearGradient id="paint3_linear" x1="240.876" x2="10.668" y1="216.592" y2="83.279" gradientUnits="userSpaceOnUse">
            <stop stop-color="#FFCFCF"/>
            <stop offset="1" stop-color="#FFF8F8"/>
        </linearGradient>
    </defs>
</svg>
