<svg xmlns="http://www.w3.org/2000/svg" width="574" height="567" fill="none" viewBox="0 0 574 567">
    <path fill="url(#paint0_linear)" d="M218.05 539.51c-30.572 10.832-61.44 15.837-94.365 9.581-36.7-6.976-68.53-38.382-86.516-69.702-6.683-11.633-12.003-24.632-11.308-38.027 1.618-30.945 30.852-34.403 55.667-29.398 13.989 2.815 26.833 9.222 39.532 15.568 21.082 10.542 45.813 15.727 64.714 30.34 6.342 4.918 11.105 10.826 18.475 14.403 11.465 5.57 24.551 8.2 36.326 13.269 10.053 4.349 21.291 11.504 21.305 22.453.002 11.23-11.713 18.385-22.007 22.856-7.286 3.185-14.54 6.089-21.823 8.657z"/>
    <path fill="url(#paint1_linear)" d="M105.522 140.359c50.081-73.805 153.639-103.44 237.581-75.69 40.477 13.387 74.399 41.264 105.687 70.203 27.58 25.506 54.336 53.016 73.17 85.805 12.86 22.381 22.065 49.21 28.564 74.256 9.718 37.503.893 85.824-47.586 82.284-11.374-.83-21.214-4.92-31.852-8.498-8.605-2.901-17.037-1.161-25.971-2.578-22.487-3.561-44.15-11.84-64.635-21.537-41.747-19.78-79.892-46.654-122.826-63.988-35.184-14.187-72.758-21.511-110.694-21.579-16.005-.026-32.833 1.094-47.15-6.062-35.286-17.655-19.418-65.26-6.24-92.04 3.491-7.133 7.485-14.009 11.952-20.576z"/>
    <path fill="url(#paint2_linear)" d="M498.186 151.498c8.244 7.468 40.639 27.854 41.262 3.93.148-5.959-2.555-11.746-6.234-16.111-4.209-5.009-8.981-7.637-12.268-13.474-4.022-7.047-8.6-13.67-13.675-19.784-10.374-12.725-22.486-24.482-37.183-29.72-10.308-3.67-27.76-2.748-32.656 10.463-7.134 19.232 23.368 22.756 32.67 29.764 8.828 6.634 13.828 18.033 20.821 27.092 2.21 2.857 4.641 5.481 7.263 7.84z"/>
    <path fill="url(#paint3_linear)" d="M345.721 128.107c17.464 10.282 30.564 25.673 46.487 38.068 26.509 20.633 62.845 24.854 93.245 39.203 30.997 14.64 54.404 37.393 64.987 70.186 13.671 42.327 14.971 92.664 3.355 136.18-12.792 47.899-42.832 79.717-86.754 100.936-43.897 21.207-92.525 31.103-141.025 33.145-4.681.201-9.353.309-14.044.339-105.363.612-245.607-36.475-281.48-149.661-.328-1.034-.643-2.068-.96-3.117-3.695-12.61-5.869-25.618-6.473-38.744-2.256-46.537 5.889-97.902 22.204-141.527 10.974-29.371 34.603-54.205 59.503-71.899 34.983-24.859 77.668-31.204 120.152-34.186 31.459-2.207 66.841-3.014 96.59 9.019 8.361 3.409 16.455 7.439 24.213 12.058z"/>
    <path fill="#FB4C47" d="M419.102 536.123c-135.051 39.268-247.593 1.402-286.983-22.439l-36.576-28.049 12.661-21.037 78.779-7.012 130.831-7.012 105.509 21.037 109.728-36.464h11.255c-16.882 57.22-90.503 91.159-125.204 100.976z"/>
    <path fill="#FB4C47" d="M125.601 504.644h333.357s11.672-191.67-30.798-219.717c-42.464-28.041-231.88-18.431-273.243 9.853-104.889 71.715-29.316 209.864-29.316 209.864z"/>
    <path fill="#000C3E" d="M181.098 244.542c-.481 0-.968-.156-1.367-.492-.921-.747-22.295-18.738-10.6-54.999 4.083-12.679 8.086-21.652 11.619-29.581 6.366-14.267 10.965-24.583 11.834-46.629.046-1.199 1.066-2.097 2.259-2.091 1.199.052 2.132 1.06 2.085 2.259-.903 22.88-5.891 34.071-12.21 48.233-3.487 7.826-7.438 16.694-11.463 29.142-10.739 33.329 8.41 49.629 9.227 50.306.921.765 1.06 2.132.295 3.053-.428.527-1.054.799-1.679.799zM299.432 28.286c-.562 15.049-13.218 26.784-28.267 26.222-15.043-.562-26.784-13.218-26.222-28.26.568-15.05 13.218-26.79 28.267-26.229 15.043.568 26.784 13.218 26.222 28.267z"/>
    <path fill="#000C3E" d="M178.659 233.954s7.999 16.496 40.657 22.295c32.663 5.804 58.294-6.013 83.508 3.133 25.215 9.141 61.643-2.774 68.866-13.369 7.217-10.594 5.705-127.918-14.174-147.595-19.885-19.67-124.055-36.092-146.628-13.073-22.573 23.024-46.548 135.396-32.229 148.609z"/>
    <path fill="#000C3E" d="M367.233 141.39c-1.859 49.583-43.558 88.276-93.141 86.417-49.583-1.859-88.276-43.559-86.416-93.147 1.859-49.583 43.558-88.27 93.141-86.41 49.583 1.853 88.276 43.558 86.416 93.14z"/>
    <path fill="#FFCEB0" d="M314.307 216.508s5.833 69.966 0 77.739c-5.833 7.773-42.76 1.946-52.473 0-9.72-1.94-13.607-77.739-7.779-77.739 5.832 0 59.134-15.599 60.252 0z"/>
    <path fill="#FFCEB0" d="M204.101 134.656s3.696 109.053 77.421 113.762c73.731 4.704 73.656-148.945 46.976-163.559-26.685-14.614-138.026-11.874-124.397 49.797z"/>
    <path fill="#EE9B68" d="M279.803 157.999s14.082 33.567 10.456 35.791c-3.621 2.225-14.227 1.825-17.082-.643-2.856-2.467.869-38.901 6.626-35.148z"/>
    <path fill="#000C3E" d="M262.153 76.5s-26.436 12.784-31.464 36.781c-5.034 24.004-2.427 85.455-30.439 82.634 0 0-54.234-121.616 61.903-119.415M276.088 77.02c-2.398 1.721 27.259 1.646 44.213 22.203 16.96 20.551 20.986 71.924 23.604 72.874 2.624.955 13.097-63.653-5.497-83.063-18.588-19.41-48.673-21.785-62.32-12.013z"/>
    <path fill="#EE9B68" d="M255.081 238.473s28.689 16.311 58.468 1.065c0 0 2.317 18.31 0 22.533-2.317 4.222-49.49 7.24-58.775-13.572 0 0-2.375-10.93.307-10.026"/>
    <path fill="#FFCEB0" d="M337.545 176.478s7.061-27.299 19.37-17.585c12.314 9.719 1.176 38.247-10.994 40.836-12.17 2.589-15.101-9.175-8.376-23.251zM221.264 172.121s-4.999-27.751-18.003-18.981c-13.004 8.764-4.031 38.05 7.913 41.543 11.944 3.487 15.738-8.023 10.09-22.562z"/>
    <path fill="#41294A" d="M307.148 142.656s12.239-8.213 21.269.765c7.942 7.895-8.839 2.595-14.619 4.338-5.787 1.744-13.636 2.086-6.65-5.103zM256.13 144.597s-11.729-8.926-21.275-.492c-8.393 7.408 8.665 3.111 14.336 5.196 5.671 2.085 13.49 2.884 6.939-4.704z"/>
    <path fill="#FFFCF6" d="M250.222 153.703c-11.387 0-20.644 8.926-21.078 20.325-.435 11.631 8.677 21.449 20.308 21.878l.811.017c11.388 0 20.644-8.926 21.078-20.319.435-11.637-8.682-21.455-20.308-21.884l-.811-.017zm.041 45.116l-.921-.017c-13.23-.492-23.587-11.66-23.094-24.89.492-12.951 11.023-23.106 23.974-23.106l.921.018c13.224.492 23.581 11.66 23.095 24.895-.493 12.952-11.023 23.1-23.975 23.1zM310.124 150.338c-11.393 0-20.65 8.926-21.078 20.325-.215 5.63 1.784 11.011 5.618 15.141 3.835 4.136 9.054 6.528 14.69 6.737l.811.017c11.387 0 20.644-8.926 21.078-20.325.209-5.63-1.79-11.012-5.624-15.147-3.835-4.13-9.048-6.523-14.684-6.731l-.811-.017zm.041 45.116l-.921-.017c-6.407-.238-12.338-2.96-16.7-7.658-4.361-4.703-6.638-10.82-6.394-17.232.486-12.952 11.017-23.106 23.974-23.106l.921.018c6.406.237 12.338 2.96 16.7 7.657 4.361 4.704 6.632 10.82 6.394 17.233-.492 12.951-11.023 23.105-23.974 23.105z"/>
    <path fill="#FFFCF6" d="M228.406 170.605c-.174 0-.36-.034-.533-.104l-8.776-3.464c-.747-.295-1.112-1.135-.817-1.876.296-.748 1.124-1.107 1.877-.817l8.781 3.469c.748.29 1.107 1.136.811 1.877-.226.568-.764.915-1.343.915zM331.856 166.774c-.625 0-1.21-.411-1.39-1.054-.22-.764.226-1.564.996-1.784l12.199-3.493c.782-.214 1.576.226 1.79.997.22.77-.226 1.569-.996 1.789l-12.205 3.487c-.127.041-.266.058-.394.058z"/>
    <path fill="#000C3E" d="M271.094 70.773s3.325 59.111 19.619 64.475c16.294 5.369 56.354 3.898 58.289-2.566 1.934-6.47-31.065-58.497-54.744-66.838-41.525-14.632-77.369 52.884-72.631 69.149 4.739 16.271 40.42 2.033 48.031-.058 7.617-2.091-.087-52.479 1.436-64.162z"/>
    <path fill="#FFFCF6" d="M272.797 175.837c-.753 0-1.385-.58-1.442-1.333-.064-.799.532-1.494 1.326-1.558l14.863-1.158c.892-.139 1.495.538 1.553 1.326.063.8-.528 1.495-1.327 1.558l-14.857 1.159c-.041.006-.081.006-.116.006z"/>
    <path fill="#000C3E" d="M255.162 54.548c-.342 0-.678-.081-.996-.244-7.971-4.112-12.726-9.847-14.128-17.04-3.076-15.79 11.266-32.716 11.88-33.429.782-.92 2.149-1.025 3.064-.231.91.782 1.014 2.149.232 3.058-.139.162-13.589 16.062-10.907 29.779 1.135 5.821 5.126 10.53 11.851 14.006 1.066.55 1.483 1.859.933 2.925-.383.747-1.141 1.176-1.929 1.176zM286.601 59.401c-.614 0-1.234-.266-1.662-.782-.771-.915-.649-2.282.272-3.052.156-.14 16.045-13.618 15.651-27.59-.162-5.925-3.325-11.225-9.389-15.755-.962-.718-1.159-2.08-.441-3.04.724-.968 2.074-1.153 3.041-.441 7.183 5.37 10.936 11.805 11.133 19.132.441 16.08-16.491 30.422-17.215 31.024-.405.342-.897.504-1.39.504zM364.459 242.71c-.649 0-1.292-.29-1.721-.84-.735-.95-.567-2.311.383-3.047.747-.585 18.332-14.614 13.733-38.247-1.801-9.256-5.103-19.503-8.607-30.352-6.1-18.901-12.407-38.45-12.517-57.321-.006-1.199.961-2.178 2.16-2.184h.012c1.193 0 2.166.967 2.172 2.16.104 18.2 6.308 37.425 12.303 56.013 3.545 10.976 6.893 21.339 8.74 30.856 5.121 26.309-14.498 41.861-15.332 42.51-.4.307-.863.452-1.326.452z"/>
    <path fill="#000C3E" d="M371.7 143.634c-.087 0-.173-.006-.266-.018-1.188-.145-2.033-1.228-1.888-2.421 2.93-23.865-1.617-43.39-13.526-58.034-19.184-23.592-51.332-26.529-51.656-26.546-1.193-.104-2.08-1.153-1.987-2.352.104-1.187 1.153-2.085 2.346-1.98 1.39.11 34.268 3.08 54.64 28.104 12.696 15.593 17.574 36.237 14.492 61.341-.133 1.095-1.072 1.906-2.155 1.906z"/>
    <path fill="#EE9B68" d="M283.213 228.392c-4.072 0-7.217-1.292-7.42-1.373-1.106-.463-1.622-1.732-1.159-2.838.458-1.106 1.75-1.604 2.833-1.176.058.023 5.983 2.427 11.15-.15 1.06-.528 2.381-.105 2.914.978.527 1.072.092 2.375-.979 2.914-2.497 1.245-5.063 1.645-7.339 1.645zM213.758 187.897c-.208 0-.423-.029-.631-.098-1.153-.348-1.796-1.558-1.443-2.705 3.951-12.981-5.508-21.6-5.601-21.687-.892-.793-.973-2.172-.174-3.07.794-.898 2.161-.979 3.07-.174.475.423 11.614 10.589 6.853 26.193-.278.939-1.141 1.541-2.074 1.541zM342.56 194.261c-.064 0-.122 0-.191-.006-1.193-.11-2.08-1.158-1.975-2.357 1.43-16.283 9.511-24.867 9.853-25.226.834-.857 2.195-.881 3.064-.058.869.823.898 2.195.075 3.064-.075.081-7.374 7.93-8.66 22.602-.104 1.13-1.054 1.981-2.166 1.981z"/>
    <path fill="#FFCEB0" d="M215.996 291.175s49.322 58.967 87.36 43.188c38.033-15.778 73.668-58.549 54.547-64.226-19.12-5.67-171.807-2.687-141.907 21.038z"/>
    <path fill="#fff" d="M348.352 211.727s14.88 107.842.967 120.03c-13.907 12.187-31.499 1.517-55.108 9.598-23.61 8.074-24.421-24.711-22.799-41.532 1.622-16.821 9.32-123.661 76.94-88.096z"/>
    <path fill="#128E5A" d="M84.505 378.639l-29.188 86.178 212.708 72.046s32.536-82.588 28.44-83.972c-4.089-1.39-211.96-74.252-211.96-74.252z"/>
    <path fill="#FFC6A6" d="M126.543 482.883s36.37-25.127 35.096-18.738c-1.268 6.395-15.338 18.738-15.338 18.738s25.55-19.775 27.218-9.888c1.668 9.888-7.298 19.272-7.298 19.272s17.974-14.325 20.876-6.916c2.902 7.408-20.291 40.176-40.796 39.226-20.499-.95-29.784-34.998-19.758-41.694z"/>
    <path fill="#fff" d="M139.998 434.436l79.634 32.438s13.861-42.146 11.254-47.017c-2.612-4.877-31.319-6.69-39.191-14.429-7.866-7.733-5.028-17.186-18.176-15.547-13.149 1.64-33.521 44.555-33.521 44.555z"/>
    <path fill="#EE9B68" d="M285.145 221.294c-.243 0-.498-.04-.741-.127-6.285-2.277-9.401-5.08-9.517-8.567-.185-5.567 7.785-9.355 9.384-10.061 1.106-.475 2.38.011 2.861 1.112.487 1.1-.011 2.38-1.112 2.861-2.89 1.28-6.852 4.055-6.789 5.943.018.521.551 2.416 6.656 4.622 1.124.412 1.709 1.657 1.303 2.787-.324.88-1.158 1.43-2.045 1.43z"/>
    <path fill="#41294A" d="M258.978 179.819c-.516 0-1.025-.179-1.437-.544-9.094-8.028-15.471-5.879-15.732-5.792-1.094.393-2.369-.163-2.78-1.275-.423-1.118.122-2.351 1.234-2.786.353-.139 8.92-3.325 20.151 6.598.898.793.985 2.166.192 3.064-.429.486-1.026.735-1.628.735zM303.62 180.312c-.603 0-1.199-.249-1.628-.736-.793-.898-.706-2.27.191-3.064 11.209-9.905 19.793-6.742 20.146-6.597 1.124.434 1.68 1.697 1.24 2.809-.429 1.118-1.686 1.68-2.786 1.245-.319-.11-6.685-2.189-15.727 5.798-.411.365-.921.545-1.436.545z"/>
    <path fill="#D9423D" d="M444.564 472.554s26.696 33.975 67.95 9.707c43.613-36.823 53.388-84.936 35.526-121.375-22.99-38.651-79.787-81.33-94.322-81.258-14.542.078-65.228 138.046-9.154 192.926z"/>
    <path fill="#FFC6A6" d="M391.791 223.92s-56.418-24.148-77.27-18.553c-20.853 5.595 19.624 10.907 27.872 14.904 8.249 3.991-30.224-2.613-35.038.44-4.807 3.047 34.98 14.325 34.98 14.325s-35.269-1.032-37.673 4.309c-2.404 5.341 32.466 11.388 32.466 11.388s-26.569 4.414-25.84 10.09c.724 5.671 49.751 3.904 65.773 24.201 16.016 20.302 38.733 130.983 106 120.834 67.261-10.148 66.624-51.61 18.113-104.83-48.511-53.214-89.817-67.765-109.383-77.108z"/>
    <path fill="#FFD310" d="M282.332 8.629c-.653 0-1.363.076-2.131.227-1.874.376-3.087 1.287-3.816 2.867-3.249 7.032 3.601 23.782 8.496 33.677 3.025-10.977 6.65-29.327 1.528-35.109-.987-1.111-2.329-1.662-4.077-1.662zm3.12 45.03c-.815 0-1.577-.438-1.979-1.164-1.732-3.104-16.746-30.67-11.205-42.672 1.333-2.886 3.77-4.76 7.046-5.413 5.581-1.112 8.787.95 10.489 2.873 8.899 10.047-1.033 41.29-2.194 44.82-.283.854-1.042 1.46-1.939 1.546-.073.007-.145.01-.218.01z"/>
    <path fill="#FFD310" d="M312.897 19.783c-.214 0-.432.013-.65.046-7.662 1.019-16.921 17.27-21.816 27.552 10.176-4.285 26.315-12.468 28.459-19.91.482-1.675.159-3.156-1.012-4.667-1.577-2.029-3.21-3.021-4.981-3.021zm-26.816 34.02c-.611 0-1.208-.244-1.64-.7-.623-.653-.801-1.61-.455-2.44 1.432-3.427 14.355-33.555 27.661-35.33 2.55-.34 6.32.195 9.81 4.687 2.051 2.639 2.671 5.65 1.791 8.705-3.662 12.702-33.054 23.725-36.392 24.943-.254.092-.515.135-.775.135z"/>
    <path stroke="#FFD310" stroke-width="4.87" d="M243.511 45.794c11.015 7.08 36.191 12.588 55.859 0"/>
    <defs>
        <linearGradient id="paint0_linear" x1="23.147" x2="54.866" y1="445.633" y2="555.768" gradientUnits="userSpaceOnUse">
            <stop stop-color="#FFCBCB"/>
            <stop offset="1" stop-color="#FFF1F1"/>
        </linearGradient>
        <linearGradient id="paint1_linear" x1="494.5" x2="166.305" y1="186" y2="33.774" gradientUnits="userSpaceOnUse">
            <stop stop-color="#fff"/>
            <stop offset="1" stop-color="#FDD"/>
        </linearGradient>
        <linearGradient id="paint2_linear" x1="540.289" x2="447.14" y1="155.009" y2="85.144" gradientUnits="userSpaceOnUse">
            <stop stop-color="#FDD"/>
            <stop offset="1" stop-color="#FFFBFC"/>
        </linearGradient>
        <linearGradient id="paint3_linear" x1="512.798" x2="23.159" y1="498.071" y2="214.523" gradientUnits="userSpaceOnUse">
            <stop stop-color="#FFE6E6"/>
            <stop offset="1" stop-color="#FFF5F5"/>
        </linearGradient>
    </defs>
</svg>
