<svg xmlns="http://www.w3.org/2000/svg" width="1057" height="812" fill="none" viewBox="0 0 1057 812">
    <g opacity=".67">
        <path fill="#03673D" d="M323.569 365.954l-18.247 6.045 17.908-11.187c-.147-1.707-.327-3.428-.545-5.162l-9.635 1.842 9.118-5.61c-2.086-13.368-6.729-30.146-13.099-47.271l-35.516 13.624 33.938-17.785c-8.911-23.009-20.818-46.186-33.739-62.17l-19.09 13.391 15.22-17.929c-11.759-12.998-24.177-19.615-35.827-14.5-14.156 6.217-18.213 36.36-13.855 72.708l9.561-.169-9.348 1.859c2.011 15.907 5.613 32.932 10.668 49.627l36.461-12.231-34.812 17.513c7.7 23.861 18.37 46.695 31.598 64.193l14.375-14.287-11.679 17.735c11.138 13.757 23.975 23.731 38.298 27.494 0 0 20.268-33.853 18.247-77.73"/>
        <path fill="#04AD66" d="M307.411 443.684s20.268-33.853 18.246-77.73l-18.246 6.045 17.907-11.187c-.146-1.707-.327-3.428-.545-5.162l-9.635 1.842 9.119-5.61c-2.086-13.368-6.73-30.146-13.1-47.269l-35.515 13.622 33.938-17.783c-8.912-23.011-20.819-46.188-33.74-62.172l-19.09 13.393 15.221-17.931c-11.759-12.998-24.177-19.615-35.828-14.5 0 0 52.999 125.573 70.237 224.143.345.096.686.208 1.031.299z"/>
        <path fill="#10794D" d="M296.013 471.274l-13.502 3.132 12.331-6.64c-1.269-3.601-2.783-7.357-4.604-11.282-3.75-8.073-9.115-17.31-15.33-26.242l-12.148 9.174 8.558-14.173c-18.84-25.381-43.606-45.902-55.782-25.935-5.004 8.205-5.334 21.268-1.878 35.953l27.636-.964-26.644 4.854c2.76 10.021 7.188 20.639 13.026 30.891l9.327-4.17-8.036 6.389c6.152 10.381 13.746 20.3 22.504 28.737l19.017-20.617-16.388 23.074c11.519 10.428 24.901 18.254 39.572 21.301 0 0 13.355-18.616 2.341-53.482"/>
        <path fill="#04AD66" d="M292.584 524.506c.364.082.725.174 1.092.249 0 0 13.354-18.616 2.34-53.48l-13.504 3.131 12.333-6.64c-1.269-3.601-2.783-7.357-4.605-11.281-3.749-8.073-9.114-17.31-15.329-26.244l-12.147 9.176 8.556-14.173c-17.758-23.927-40.778-43.517-53.56-28.964 10.237 13.721 53.374 73.158 74.824 128.226z"/>
        <path fill="#007248" d="M254.434 509.605c-7.538-7.077-20.988-15.765-36.603-23.751-6.772 9.944-14.331 21.174-15.632 23.634-.186.439-.255.59-.171.364.029-.084.089-.208.171-.364 1.095-2.579 6.394-15.564 10.688-26.101-9.367-4.569-19.34-8.813-29.177-12.275l-5.354 25.249 2.466-26.244c-30.677-10.343-59.281-12.577-62.924 7.45-1.007 5.535.946 11.685 5.131 18.122 11.758-.684 28.768-1.781 28.768-1.781l-24.798 7.162c9.095 11.138 24.035 22.844 41.359 33.541l14.882-28.707-12.164 30.36c18.246 11.002 38.845 20.817 57.893 27.68 1.616-7.08 2.797-12.21 2.797-12.21l.24 13.281c3.667 1.273 7.265 2.427 10.769 3.456l1.576-6.123 1.034 6.868c17.447 4.863 32.283 6.379 40.783 2.853 0 0 6.759-26.324-31.734-62.464"/>
        <path fill="#096B42" d="M360.093 320.595c18.382-45.005 43.527-54.4 53.801-53.472 17.038-2.227 17.934 27.293 16.252 42.332h-25.78l25.78 5.013c-.449 24.063-6.912 49.759-10.088 59.599l-31.944-6.127 31.944 10.583c-8.07 30.301-20.175 58.3-25.219 68.511l-32.505-15.039 30.824 18.381-3.923 6.684-8.967-1.671 7.846 3.899c-13.899 28.073-39.791 39.547-50.999 41.775-9.415-11.14-12.143-32.491-12.33-41.775l16.813-3.899h-16.813c-1.793-16.041 3.736-43.817 6.725-55.7l12.89 5.57-12.329-8.355 1.681-5.57 27.461 8.355-25.219-15.596c2.69-15.596 15.692-46.231 21.856-59.599l17.374 2.228-15.131-6.127z"/>
        <path fill="#0EA867" d="M388.384 460.233c-14.188 27.788-39.992 39.574-51.12 41.994 16.692-114.473 60.857-204.269 80.854-234.857 13.771 2.489 14.084 29.724 12.519 43.031l-25.56-1.037 25.56 4.666c-1.669 27.374-6.955 51.845-9.39 60.659l-34.428-7.259 32.864 10.888c-7.929 34.01-19.997 60.14-25.039 68.953l-31.82-15.553 30.777 18.664-4.174 7.258-8.867-2.073 7.824 4.666z"/>
        <path fill="#128E5A" fill-rule="evenodd" d="M320.095 662.194c0 .001 0 .002-.665-.043l.665.045c-.024.351-.316.623-.668.622-.352-.001-.642-.275-.663-.627-2.581-43.034-19.639-75.978-41.806-101.024-21.869-23.626-47.679-41.016-73.149-53.793l.087-.141c-16.874-8.339-31.372-13.582-39.754-16.613l-.001-.001c-1.914-.692-3.51-1.269-4.741-1.741-15.229-5.021-29.227-8.511-40.81-10.914.013-.104.023-.209.033-.314.016-.17.032-.34.062-.507 3.61-19.311 32.081-17.131 62.622-7.129l-2.374 24.726.065.026 5.184-23.791c9.794 3.349 19.723 7.451 29.052 11.864-3.467 8.258-7.59 18.063-9.595 22.783.325.159.651.32.978.482 2.85-4.406 8.779-13.012 14.209-20.822 15.744 7.886 29.304 16.462 36.905 23.447 38.813 35.669 32.018 61.626 32.018 61.626-.378.154-.772.294-1.177.425 16.448 21.661 28.906 48.497 32.679 81.598.237-5.835.498-14.135.62-24.465.254-21.5-.092-51.793-2.491-86.96-4.797-70.343-17.806-160.141-50.628-238.069-.142-.34.017-.731.356-.874.339-.142.73.017.873.356 32.905 78.125 45.928 168.09 50.73 238.497 2.401 35.208 2.747 65.537 2.493 87.065-.127 10.764-.404 19.329-.65 25.204-.122 2.937-.237 5.202-.321 6.733-.043.766-.077 1.348-.101 1.739l-.028.442-.007.112-.002.028v.008z" clip-rule="evenodd"/>
        <path stroke="#014D2D" stroke-linecap="round" stroke-linejoin="round" stroke-miterlimit="10" d="M245.586 435.15s73.843 102.406 73.843 227.001c11.163-217.613 67.912-336.196 67.912-336.196"/>
        <path fill="#F52D29" d="M343.546 627.692h-59.228s-15.947 125.484 35.309 140.049c51.255 14.565 23.919-140.049 23.919-140.049z"/>
        <path fill="#F80700" d="M353.958 627.692h-55.531s-12.565 125.484 27.819 140.049c64.227 7.19 27.712-140.049 27.712-140.049z"/>
    </g>
    <g opacity=".76">
        <path fill="#FF1F55" d="M366.559 40.178h-19.157V115.1h19.157V40.179z"/>
        <path fill="#FFC702" d="M389.263 40.178h-19.156V115.1h19.156V40.179z"/>
        <path fill="#3D99EE" d="M403.42 41.52l-16.225 10.123 40.124 63.458 16.225-10.123-40.124-63.459z"/>
        <path fill="#6F2A1A" d="M552.893 131.616H346.176c-4.409 0-8.638-1.74-11.756-4.838-3.118-3.097-4.87-7.298-4.87-11.678h239.966c0 4.38-1.751 8.58-4.868 11.678-3.118 3.097-7.346 4.837-11.755 4.838z"/>
        <path fill="#BDD8F5" d="M556.824 42.953h-91.518v72.146h91.518V42.953z"/>
        <path fill="#FB4C47" d="M550.707 50.04H471.43v57.958h79.277V50.04z"/>
        <path fill="#FFC700" d="M511.067 97.617c10.336 0 18.714-8.324 18.714-18.59 0-10.268-8.378-18.591-18.714-18.591-10.335 0-18.714 8.323-18.714 18.59s8.379 18.59 18.714 18.59z"/>
        <path fill="#1DB776" d="M533.655 107.998H471.43V80.246c10.742-.404 26.608.894 41.598 9.455 8.079 4.611 15.104 10.843 20.627 18.297z"/>
        <path fill="#11915B" d="M550.704 69.88V108h-49.89c3.197-6.632 7.307-12.79 12.211-18.298 8.517-9.514 20.667-17.71 37.679-19.82z"/>
        <path fill="#592A3C" d="M378.082 145.954h-14.917l2.06-30.855h10.796l2.061 30.855zM535.906 145.954h-14.917l2.061-30.855h10.796l2.06 30.855z"/>
        <path fill="#925C50" d="M849.646 98.912H636.912V0h212.734v98.912zm-203.612-9.06h194.491V9.063H646.032l.002 80.79z"/>
        <path fill="#fff" d="M840.525 9.062H646.032v80.79h194.493V9.063z"/>
        <path fill="#FFC700" d="M689.281 68.818c16.389-3.814 26.563-20.104 22.723-36.385S691.765 6.046 675.376 9.86c-16.389 3.815-26.563 20.105-22.723 36.386 3.84 16.28 20.239 26.387 36.628 22.572z"/>
        <path fill="#11915B" d="M646.032 64.346l57.818-25.649c4.606-2.044 9.687-2.8 14.693-2.185 5.007.614 9.75 2.575 13.717 5.671l61.102 47.669H646.034l-.002-25.506z"/>
        <path fill="#1DB776" d="M746.981 53.669l43.55-14.303c4.657-1.53 9.64-1.804 14.438-.794 4.799 1.01 9.241 3.266 12.875 6.54l22.68 20.437v24.308h-47.163l-46.38-36.188z"/>
    </g>
    <path fill="#FA5752" fill-opacity=".82" d="M532.765 238.419c-1.983-.057-3.696 1.462-4.181 3.55-3.077.239-6.588.32-10.441.077-2.154-.138-4.192-.361-6.103-.638.01-.366.017-.735.017-1.104 0-1.796-.126-3.561-.372-5.288.971-.743 2.188-1.523 3.658-2.193 2.554-1.169 4.947-1.584 6.786-1.704.906 2.051 2.978 3.242 4.971 2.724 2.239-.585 3.518-3.112 2.858-5.647-.66-2.534-3.009-4.119-5.248-3.534-2.041.534-3.285 2.681-2.991 4.977-1.614.915-4.01 1.907-6.978 1.981-1.47.038-2.752-.158-3.791-.412-.66-2.681-1.611-5.25-2.817-7.673 1.278-1.154 2.789-2.377 4.56-3.558 2.564-1.715 5.036-2.942 7.207-3.823 1.415 1.654 3.675 2.204 5.415 1.196 2-1.154 2.568-3.935 1.262-6.203-1.31-2.27-4-3.17-6-2.012-1.744 1.004-2.393 3.235-1.675 5.288-1.864 1.447-4.158 2.973-6.91 4.335-1.873.931-3.665 1.638-5.285 2.177-1.323-2.22-2.879-4.289-4.619-6.177.67-2.431 1.802-5.27 3.73-8.115 1.809-2.662 3.822-4.604 5.532-5.97 1.88 1.166 4.246.985 5.593-.55 1.531-1.738 1.179-4.55-.787-6.281-1.962-1.734-4.796-1.73-6.321.008-1.354 1.535-1.241 3.9.157 5.627-1.104 1.823-2.772 4.085-5.227 6.238-2.704 2.378-5.425 3.801-7.494 4.647-2.352-1.804-4.919-3.335-7.665-4.546.4-1.104.927-2.216 1.618-3.308.553-.865 1.148-1.627 1.753-2.292 2.093.85 4.428.238 5.481-1.543 1.186-1.988.321-4.688-1.932-6.027-2.25-1.338-5.032-.811-6.215 1.181-1.036 1.75-.489 4.05 1.183 5.488-.349.923-.773 1.882-1.276 2.858-.574 1.123-1.203 2.158-1.863 3.116-.277-.112-.557-.22-.834-.319-3.272-1.223-6.752-1.996-10.379-2.258-.595-1.608-1.115-3.389-1.477-5.346-.742-3.993-.605-7.469-.263-10.079 2.133-.409 3.733-2.085 3.733-4.095 0-2.315-2.123-4.192-4.742-4.192-2.615 0-4.738 1.877-4.738 4.192 0 2.044 1.658 3.744 3.842 4.116.476 2.571.787 6.172.052 10.346-.325 1.837-.804 3.512-1.364 5.027-3.477.197-6.824.869-9.987 1.951-.441-.699-.834-1.432-1.186-2.298-.701-1.714-1.005-3.321-1.125-4.659 2.045-1.065 3.101-3.301 2.376-5.279-.789-2.175-3.429-3.209-5.887-2.31-2.458.899-3.808 3.39-3.015 5.565.684 1.877 2.742 2.901 4.875 2.57.622 1.28 1.217 2.757 1.689 4.433.246.888.434 1.756.578 2.606-2.869 1.137-5.563 2.621-8.034 4.396-1.303-.942-2.633-2.035-3.946-3.316-3.025-2.949-5.046-5.974-6.372-8.397 1.47-1.627 1.726-3.956.496-5.561-1.412-1.835-4.236-2.029-6.311-.432-2.076 1.596-2.616 4.379-1.204 6.214 1.245 1.623 3.597 1.96 5.556.915 1.918 1.717 4.403 4.426 6.331 8.319.879 1.78 1.494 3.512 1.921 5.127-.396.365-.793.741-1.176 1.125-1.935 1.937-3.658 4.082-5.138 6.404-.872-.252-1.774-.555-2.697-.928-3.012-1.212-5.344-2.756-7.033-4.102.718-2.093.021-4.352-1.767-5.331-2.027-1.113-4.691-.153-5.949 2.144-1.258 2.298-.636 5.063 1.395 6.175 1.785.979 4.055.353 5.436-1.373 2.051.71 4.601 1.849 7.241 3.718.786.559 1.511 1.133 2.181 1.711-2.089 3.764-3.545 7.924-4.239 12.341-1.805.155-3.751.228-5.836.164-2.978-.092-5.668-.441-8.017-.896-.055-2.31-1.6-4.244-3.696-4.464-2.297-.241-4.386 1.675-4.656 4.281-.277 2.605 1.371 4.913 3.668 5.155 2.048.215 3.922-1.281 4.503-3.449 2.413.049 5.121.265 8.054.77 2.028.349 3.911.795 5.645 1.291-.082 1.003-.123 2.017-.123 3.043 0 2.437.229 4.82.673 7.129-1.993 1.321-4.749 2.82-8.249 3.873-3.07.923-5.836 1.237-8.038 1.304-.79-2.054-2.755-3.335-4.748-2.95-2.271.439-3.713 2.88-3.214 5.452.496 2.573 2.738 4.302 5.012 3.863 1.962-.379 3.299-2.255 3.306-4.419 2.256-.734 4.916-1.422 7.945-1.872 3.484-.515 6.605-.588 9.23-.474 1.057 3.187 2.534 6.182 4.356 8.924-.858.681-1.822 1.354-2.896 1.983-2.068 1.204-4.051 1.954-5.771 2.438-1.169-1.861-3.343-2.734-5.22-1.974-2.144.869-3.091 3.542-2.103 5.969.616 1.523 1.847 2.592 3.207 2.958.804.219 1.655.192 2.452-.131.239-.096.461-.215.666-.358 1.569-1.038 2.233-3.189 1.569-5.241 1.628-.841 3.529-1.673 5.723-2.359 1.405-.441 2.749-.761 4.014-1.001 1.152 1.491 2.417 2.891 3.778 4.183.13.122.256.245.386.361-.92 2.054-2.304 4.55-4.393 7.081-2.045 2.476-4.171 4.28-5.959 5.553-1.795-1.273-4.143-1.246-5.59.181-1.644 1.627-1.487 4.458.356 6.323 1.836 1.862 4.667 2.054 6.311.427 1.426-1.411 1.497-3.734.28-5.539 1.409-1.834 3.245-3.903 5.59-5.946 2.516-2.192 5.002-3.815 7.166-5.011 2.865 2.038 6.03 3.688 9.411 4.869-.136 1.273-.365 2.646-.738 4.088-.81 3.143-2.031 5.662-3.138 7.516-2.168-.435-4.311.557-5.047 2.457-.834 2.158.469 4.674 2.91 5.62 2.441.947 5.097-.038 5.931-2.2.729-1.877-.164-4.023-2.013-5.169.523-2.235 1.347-4.877 2.659-7.715.643-1.385 1.327-2.647 2.028-3.797 2.601.704 5.316 1.135 8.112 1.254.459 2.192.828 4.646 1.006 7.327.266 3.988.051 7.519-.329 10.435-2.126.413-3.712 2.089-3.712 4.092 0 2.314 2.123 4.192 4.741 4.192 2.619 0 4.739-1.878 4.739-4.192 0-1.996-1.58-3.669-3.692-4.089-.356-2.981-.551-6.503-.349-10.438.14-2.654.441-5.104.824-7.319 2.923-.112 5.76-.562 8.471-1.312.233.4.465.815.684 1.242 1.47 2.82 2.263 5.462 2.694 7.578-1.887 1.095-2.844 3.226-2.171 5.126.78 2.181 3.405 3.235 5.877 2.358 2.465-.881 3.833-3.362 3.056-5.543-.687-1.934-2.837-2.98-5.035-2.58-1.009-1.735-2.182-4.354-2.588-7.708-.052-.415-.089-.823-.113-1.223 3.022-1.046 5.863-2.473 8.475-4.219 1.689 1.373 3.466 3.012 5.234 4.958 2.714 2.992 4.687 5.942 6.113 8.449-1.446 1.624-1.699 3.935-.472 5.531 1.412 1.835 4.232 2.027 6.311.431 2.075-1.596 2.619-4.377 1.207-6.216-1.221-1.584-3.498-1.945-5.433-.98-2.082-2.112-4.389-4.785-6.615-8.069-1.439-2.123-2.626-4.185-3.607-6.119 1.053-.85 2.062-1.754 3.016-2.712 1.569-1.569 3.001-3.273 4.266-5.096 2.339.654 5.043 1.611 7.908 3.05 2.762 1.381 5.063 2.9 6.919 4.315-.704 2.054-.034 4.277 1.706 5.269 2.011 1.151 4.687.235 5.99-2.038 1.299-2.277.721-5.05-1.289-6.2-1.757-1.004-4.027-.431-5.439 1.254-2.072-.789-4.585-1.985-7.19-3.819-2.707-1.904-4.748-3.946-6.232-5.708 1.002-1.877 1.846-3.85 2.519-5.904 1.125.039 2.308.139 3.542.323 3.163.477 5.798 1.374 7.826 2.266-.175 2.192 1.063 4.2 3.029 4.703 2.236.577 4.584-1.011 5.237-3.55.65-2.538-.639-5.061-2.875-5.638-1.976-.508-4.031.662-4.937 2.681-2.157-.177-4.912-.65-7.928-1.82-1.148-.445-2.205-.942-3.169-1.461.482-1.904.821-3.862.995-5.869 1.949-.158 4.024-.258 6.202-.262 3.853-.011 7.347.265 10.417.673.369 2.112 1.993 3.72 3.976 3.781 2.311.065 4.249-2.004 4.321-4.623.075-2.619-1.737-4.796-4.051-4.862" opacity=".89"/>
    <path fill="#FA5752" fill-opacity=".9" d="M184.473 134.743c-3.047-.089-5.679 2.257-6.425 5.481-4.728.369-10.123.493-16.043.119-3.31-.213-6.441-.558-9.377-.986.015-.564.026-1.134.026-1.704 0-2.773-.194-5.499-.573-8.165 1.492-1.146 3.362-2.352 5.621-3.386 3.924-1.804 7.602-2.446 10.428-2.63 1.392 3.166 4.575 5.006 7.638 4.205 3.441-.903 5.406-4.805 4.392-8.718-1.014-3.913-4.623-6.36-8.064-5.457-3.136.825-5.048 4.139-4.597 7.684-2.479 1.413-6.162 2.945-10.721 3.058-2.259.06-4.229-.244-5.826-.636-1.014-4.138-2.474-8.106-4.329-11.847 1.965-1.781 4.287-3.67 7.008-5.493 3.94-2.648 7.738-4.543 11.074-5.902 2.175 2.553 5.647 3.402 8.321 1.846 3.073-1.781 3.945-6.075 1.938-9.578-2.012-3.504-6.146-4.894-9.219-3.106-2.679 1.55-3.677 4.994-2.574 8.165-2.863 2.234-6.388 4.591-10.617 6.693-2.879 1.437-5.631 2.53-8.121 3.361-2.033-3.427-4.424-6.621-7.097-9.537 1.029-3.753 2.768-8.136 5.731-12.53 2.779-4.11 5.873-7.108 8.5-9.217 2.889 1.8 6.524 1.52 8.594-.85 2.353-2.683 1.812-7.024-1.208-9.697-3.016-2.677-7.371-2.672-9.714.012-2.08 2.37-1.907 6.022.242 8.688-1.697 2.815-4.26 6.307-8.032 9.632-4.155 3.67-8.337 5.868-11.515 7.174-3.614-2.785-7.559-5.149-11.778-7.019.615-1.704 1.424-3.42 2.485-5.107.851-1.336 1.765-2.513 2.695-3.54 3.215 1.313 6.803.368 8.421-2.381 1.823-3.07.494-7.239-2.968-9.305-3.457-2.067-7.733-1.254-9.551 1.823-1.591 2.702-.751 6.252 1.818 8.474-.536 1.425-1.187 2.904-1.959 4.412-.883 1.734-1.85 3.332-2.863 4.81-.426-.172-.857-.338-1.282-.492-5.028-1.889-10.375-3.082-15.949-3.487-.914-2.482-1.713-5.232-2.27-8.254-1.14-6.165-.93-11.53-.404-15.56 3.278-.632 5.737-3.221 5.737-6.323 0-3.575-3.263-6.473-7.287-6.473-4.018 0-7.28 2.898-7.28 6.473 0 3.156 2.547 5.78 5.904 6.354.73 3.97 1.208 9.53.079 15.974-.5 2.837-1.234 5.422-2.096 7.762-5.343.304-10.485 1.341-15.345 3.013-.677-1.08-1.281-2.212-1.822-3.549-1.077-2.646-1.545-5.128-1.729-7.193 3.142-1.645 4.765-5.097 3.651-8.15-1.213-3.358-5.269-4.956-9.046-3.568-3.777 1.388-5.852 5.235-4.633 8.593 1.05 2.898 4.213 4.48 7.49 3.968.957 1.976 1.871 4.256 2.596 6.845.378 1.371.667 2.711.888 4.023-4.408 1.756-8.547 4.046-12.345 6.787-2.002-1.453-4.045-3.141-6.062-5.12-4.65-4.553-7.754-9.223-9.792-12.965 2.258-2.512 2.652-6.107.761-8.585-2.17-2.834-6.508-3.134-9.697-.668-3.189 2.465-4.019 6.761-1.85 9.595 1.913 2.505 5.527 3.026 8.537 1.413 2.947 2.65 6.766 6.833 9.73 12.844 1.35 2.75 2.295 5.423 2.951 7.916-.609.564-1.218 1.145-1.807 1.737-2.973 2.992-5.62 6.303-7.895 9.888-1.34-.389-2.727-.857-4.145-1.433-4.628-1.871-8.21-4.256-10.806-6.333 1.103-3.233.032-6.72-2.716-8.232-3.115-1.718-7.207-.236-9.14 3.312-1.933 3.547-.977 7.816 2.143 9.533 2.742 1.512 6.23.546 8.353-2.119 3.152 1.095 7.07 2.853 11.126 5.74 1.208.862 2.322 1.749 3.352 2.642-3.21 5.811-5.448 12.235-6.514 19.055-2.774.238-5.763.351-8.968.253-4.575-.142-8.71-.682-12.318-1.384-.084-3.566-2.459-6.552-5.68-6.892-3.53-.373-6.739 2.585-7.154 6.609-.425 4.022 2.107 7.586 5.637 7.959 3.146.332 6.025-1.977 6.918-5.324 3.709.076 7.87.408 12.377 1.188 3.115.54 6.01 1.228 8.673 1.993-.126 1.549-.19 3.115-.19 4.699 0 3.762.352 7.442 1.035 11.008-3.062 2.039-7.296 4.354-12.676 5.978-4.717 1.426-8.967 1.911-12.35 2.015-1.213-3.172-4.234-5.15-7.296-4.556-3.489.679-5.705 4.447-4.938 8.419.761 3.972 4.207 6.642 7.7 5.964 3.016-.586 5.07-3.482 5.08-6.822 3.468-1.134 7.555-2.197 12.209-2.891 5.353-.795 10.15-.908 14.184-.732 1.623 4.921 3.892 9.545 6.692 13.778-1.318 1.052-2.8 2.091-4.45 3.062-3.177 1.86-6.224 3.017-8.867 3.764-1.796-2.872-5.137-4.221-8.021-3.048-3.294 1.343-4.75 5.47-3.231 9.217.946 2.352 2.837 4.002 4.927 4.567 1.235.338 2.543.297 3.767-.203.368-.148.71-.332 1.024-.552 2.412-1.602 3.43-4.923 2.412-8.093 2.5-1.297 5.42-2.582 8.794-3.642 2.159-.68 4.223-1.175 6.167-1.545 1.77 2.303 3.714 4.463 5.805 6.458.2.189.394.379.593.557-1.413 3.172-3.54 7.026-6.75 10.933-3.142 3.824-6.41 6.61-9.157 8.575-2.758-1.965-6.366-1.924-8.588.279-2.527 2.513-2.286 6.883.546 9.763 2.82 2.874 7.17 3.171 9.697.659 2.19-2.179 2.301-5.766.43-8.551 2.165-2.832 4.986-6.028 8.59-9.181 3.866-3.385 7.685-5.891 11.01-7.737 4.403 3.147 9.267 5.694 14.463 7.518-.21 1.965-.562 4.085-1.135 6.312-1.245 4.852-3.12 8.742-4.823 11.604-3.33-.671-6.624.86-7.753 3.794-1.282 3.332.72 7.216 4.47 8.676 3.751 1.463 7.833-.058 9.115-3.396 1.118-2.898-.253-6.212-3.094-7.981.803-3.451 2.07-7.53 4.086-11.913.988-2.138 2.039-4.085 3.116-5.862 3.997 1.087 8.168 1.753 12.465 1.937.704 3.384 1.272 7.173 1.545 11.312.41 6.158.079 11.61-.504 16.112-3.268.637-5.705 3.226-5.705 6.318 0 3.573 3.262 6.473 7.286 6.473 4.024 0 7.281-2.9 7.281-6.473 0-3.081-2.427-5.665-5.674-6.313-.546-4.602-.846-10.042-.536-16.117.216-4.097.678-7.88 1.266-11.3 4.492-.172 8.852-.868 13.018-2.025.357.617.714 1.258 1.05 1.917 2.259 4.354 3.478 8.434 4.14 11.7-2.9 1.692-4.371 4.981-3.336 7.915 1.198 3.367 5.232 4.995 9.03 3.641 3.788-1.36 5.889-5.191 4.697-8.558-1.056-2.986-4.36-4.602-7.738-3.984-1.55-2.679-3.352-6.723-3.977-11.902-.079-.64-.136-1.27-.173-1.887 4.644-1.616 9.009-3.819 13.023-6.515 2.595 2.12 5.326 4.65 8.042 7.655 4.171 4.62 7.202 9.175 9.393 13.046-2.222 2.507-2.611 6.075-.725 8.54 2.169 2.832 6.503 3.13 9.697.665 3.189-2.465 4.024-6.758 1.855-9.597-1.876-2.446-5.374-3.004-8.348-1.514-3.199-3.26-6.745-7.387-10.165-12.459-2.211-3.278-4.034-6.46-5.542-9.448 1.618-1.312 3.168-2.708 4.634-4.186 2.411-2.423 4.612-5.054 6.556-7.868 3.593 1.009 7.748 2.487 12.15 4.708 4.245 2.132 7.78 4.478 10.633 6.663-1.082 3.171-.053 6.604 2.621 8.136 3.089 1.776 7.202.362 9.204-3.147 1.996-3.516 1.108-7.798-1.981-9.573-2.7-1.55-6.188-.665-8.358 1.936-3.183-1.218-7.044-3.064-11.047-5.897-4.161-2.94-7.297-6.093-9.577-8.813 1.54-2.898 2.837-5.944 3.872-9.115 1.728.059 3.546.214 5.442.498 4.859.737 8.91 2.121 12.025 3.499-.268 3.384 1.634 6.484 4.654 7.262 3.436.89 7.045-1.562 8.048-5.481.998-3.92-.982-7.815-4.418-8.706-3.036-.784-6.193 1.022-7.586 4.139-3.314-.273-7.548-1.003-12.182-2.809-1.765-.688-3.388-1.455-4.869-2.256.74-2.94 1.26-5.963 1.528-9.062 2.995-.244 6.183-.398 9.53-.404 5.92-.018 11.289.409 16.006 1.039.567 3.261 3.063 5.742 6.11 5.838 3.551.1 6.529-3.095 6.64-7.139.115-4.044-2.669-7.405-6.225-7.506z" opacity=".93"/>
    <path fill="#FA5752" fill-opacity=".75" d="M1053.28 62.616c-1.83-.054-3.4 1.368-3.85 3.323-2.82.223-6.05.299-9.59.072-1.98-.13-3.85-.339-5.6-.598.01-.342.01-.687.01-1.033 0-1.681-.11-3.333-.34-4.95.89-.694 2.01-1.425 3.36-2.052 2.35-1.094 4.55-1.483 6.24-1.595.83 1.92 2.73 3.035 4.56 2.55 2.06-.548 3.23-2.913 2.63-5.286-.61-2.372-2.77-3.855-4.82-3.308-1.88.5-3.02 2.51-2.75 4.658-1.48.857-3.69 1.786-6.41 1.855-1.35.035-2.53-.148-3.49-.386-.6-2.509-1.47-4.914-2.58-7.182 1.17-1.08 2.56-2.225 4.19-3.33 2.35-1.605 4.62-2.754 6.62-3.578 1.3 1.547 3.37 2.063 4.97 1.119 1.84-1.08 2.36-3.683 1.16-5.806-1.2-2.125-3.67-2.967-5.51-1.883-1.6.94-2.2 3.028-1.54 4.95-1.71 1.354-3.82 2.783-6.35 4.057-1.72.871-3.36 1.534-4.85 2.037-1.22-2.077-2.65-4.013-4.25-5.78.62-2.276 1.66-4.933 3.43-7.597 1.66-2.491 3.51-4.31 5.08-5.587 1.73 1.09 3.9.921 5.14-.515 1.41-1.627 1.08-4.259-.72-5.879-1.8-1.623-4.41-1.62-5.81.007-1.24 1.437-1.14 3.65.15 5.267-1.02 1.706-2.55 3.823-4.81 5.84-2.48 2.224-4.98 3.556-6.88 4.348-2.16-1.688-4.52-3.121-7.04-4.255.36-1.033.85-2.074 1.48-3.096.51-.81 1.06-1.523 1.61-2.145 1.93.795 4.07.222 5.04-1.445 1.09-1.86.29-4.388-1.78-5.64-2.06-1.253-4.62-.76-5.71 1.105-.95 1.638-.45 3.79 1.09 5.137-.32.864-.71 1.76-1.17 2.674-.53 1.052-1.11 2.02-1.71 2.917-.26-.105-.51-.206-.77-.299-3.01-1.145-6.2-1.868-9.53-2.113-.55-1.505-1.03-3.173-1.36-5.004-.68-3.738-.56-6.99-.24-9.434 1.96-.382 3.43-1.952 3.43-3.832 0-2.167-1.95-3.924-4.36-3.924-2.403 0-4.353 1.757-4.353 3.924 0 1.913 1.523 3.504 3.53 3.851.437 2.408.723 5.778.047 9.684-.298 1.72-.738 3.288-1.253 4.706-3.194.184-6.269.813-9.174 1.826-.405-.654-.767-1.34-1.09-2.151-.644-1.604-.923-3.109-1.033-4.36 1.878-.998 2.848-3.09 2.182-4.941-.725-2.036-3.15-3.004-5.408-2.163-2.258.841-3.499 3.173-2.77 5.209.628 1.757 2.519 2.715 4.479 2.405.571 1.199 1.118 2.58 1.551 4.15.226.831.399 1.644.531 2.439-2.635 1.064-5.11 2.453-7.381 4.114-1.197-.88-2.418-1.904-3.624-3.103-2.78-2.76-4.636-5.592-5.855-7.86 1.351-1.523 1.586-3.703.456-5.204-1.298-1.719-3.892-1.9-5.798-.406-1.907 1.495-2.403 4.1-1.106 5.817 1.143 1.519 3.304 1.835 5.104.857 1.762 1.606 4.045 4.142 5.817 7.786.807 1.666 1.372 3.287 1.765 4.799-.365.341-.729.694-1.081 1.053-1.777 1.813-3.36 3.821-4.72 5.994-.801-.236-1.63-.52-2.478-.869-2.767-1.134-4.909-2.58-6.461-3.84.66-1.959.019-4.073-1.624-4.99-1.862-1.04-4.309-.142-5.465 2.008-1.156 2.15-.584 4.739 1.282 5.78 1.639.916 3.725.33 4.994-1.285 1.884.664 4.227 1.73 6.652 3.48.722.523 1.388 1.06 2.004 1.601-1.919 3.523-3.257 7.417-3.895 11.552-1.658.144-3.445.213-5.361.153-2.736-.086-5.208-.413-7.365-.839-.051-2.162-1.47-3.972-3.396-4.178-2.11-.226-4.029 1.567-4.277 4.007-.255 2.438 1.259 4.599 3.37 4.825 1.881.2 3.602-1.2 4.136-3.228 2.217.046 4.705.248 7.4.72 1.862.327 3.593.745 5.185 1.208-.075.94-.113 1.889-.113 2.85 0 2.28.211 4.51.619 6.672-1.831 1.237-4.363 2.64-7.579 3.624-2.82.865-5.361 1.159-7.384 1.222-.725-1.923-2.531-3.122-4.362-2.762-2.086.411-3.411 2.696-2.953 5.103.456 2.409 2.516 4.027 4.605 3.616 1.802-.355 3.03-2.111 3.037-4.136 2.073-.687 4.516-1.331 7.299-1.752 3.2-.482 6.068-.55 8.48-.444.971 2.983 2.327 5.787 4.002 8.353-.789.637-1.675 1.267-2.661 1.856-1.9 1.127-3.722 1.829-5.301 2.282-1.075-1.742-3.072-2.56-4.796-1.848-1.97.814-2.84 3.316-1.932 5.587.565 1.426 1.696 2.427 2.946 2.769.738.205 1.52.18 2.252-.123.22-.09.424-.201.612-.335 1.442-.97 2.051-2.984 1.442-4.906 1.495-.786 3.241-1.565 5.258-2.208 1.291-.412 2.525-.712 3.687-.936 1.059 1.396 2.221 2.705 3.471 3.915.119.114.235.23.355.337-.845 1.923-2.117 4.26-4.036 6.628-1.879 2.318-3.832 4.007-5.475 5.199-1.649-1.192-3.806-1.167-5.135.169-1.511 1.523-1.366 4.172.327 5.918 1.686 1.743 4.287 1.923 5.798.4 1.309-1.321 1.375-3.496.257-5.184 1.294-1.717 2.981-3.654 5.135-5.566 2.312-2.052 4.595-3.571 6.583-4.69 2.632 1.907 5.541 3.452 8.647 4.557-.126 1.192-.336 2.477-.678 3.827-.745 2.941-1.866 5.299-2.884 7.034-1.991-.406-3.96.522-4.635 2.3-.767 2.02.43 4.375 2.672 5.26 2.243.887 4.683-.035 5.45-2.059.669-1.757-.151-3.766-1.85-4.838.48-2.092 1.237-4.565 2.443-7.222.591-1.296 1.219-2.477 1.863-3.553 2.39.659 4.884 1.062 7.453 1.174.421 2.051.76 4.348.923 6.858.245 3.733.047 7.037-.301 9.767-1.954.386-3.411 1.955-3.411 3.83 0 2.166 1.95 3.924 4.356 3.924 2.407 0 4.357-1.758 4.357-3.924 0-1.868-1.45-3.435-3.4-3.827-.32-2.79-.5-6.088-.32-9.77.13-2.485.41-4.777.76-6.851 2.69-.105 5.29-.526 7.78-1.228.22.374.43.763.63 1.163 1.35 2.639 2.08 5.112 2.48 7.092-1.74 1.026-2.62 3.02-2 4.798.72 2.042 3.13 3.029 5.4 2.207 2.27-.824 3.52-3.146 2.81-5.188-.63-1.81-2.61-2.789-4.63-2.415-.92-1.623-2-4.075-2.37-7.215-.05-.388-.09-.77-.11-1.144 2.78-.98 5.39-2.315 7.79-3.95 1.55 1.286 3.18 2.82 4.81 4.641 2.49 2.801 4.3 5.562 5.61 7.909-1.33 1.52-1.56 3.683-.43 5.177 1.3 1.717 3.89 1.898 5.8.403 1.9-1.494 2.4-4.096 1.11-5.817-1.13-1.483-3.22-1.822-5-.918-1.91-1.977-4.03-4.478-6.07-7.553-1.33-1.987-2.42-3.916-3.32-5.728.97-.795 1.9-1.641 2.77-2.537 1.45-1.47 2.76-3.064 3.92-4.77 2.15.611 4.64 1.508 7.27 2.854 2.54 1.293 4.65 2.714 6.36 4.04-.65 1.922-.04 4.003 1.56 4.931 1.85 1.077 4.31.22 5.51-1.907 1.19-2.131.66-4.727-1.19-5.804-1.61-.94-3.7-.403-5 1.174-1.9-.738-4.21-1.858-6.6-3.575-2.49-1.782-4.36-3.694-5.73-5.343.92-1.756 1.7-3.603 2.32-5.525 1.03.036 2.12.13 3.25.302 2.91.447 5.33 1.285 7.19 2.12-.16 2.052.98 3.932 2.78 4.403 2.06.54 4.22-.947 4.82-3.323.59-2.376-.59-4.737-2.65-5.277-1.81-.475-3.7.62-4.53 2.509-1.98-.165-4.51-.608-7.28-1.703-1.06-.417-2.03-.882-2.92-1.368.45-1.782.76-3.614.92-5.493 1.79-.148 3.69-.241 5.7-.245 3.53-.011 6.74.248 9.57.63.33 1.977 1.83 3.481 3.65 3.539 2.12.061 3.9-1.876 3.97-4.328.07-2.451-1.6-4.489-3.72-4.55"/>
    <path stroke="#925D51" stroke-miterlimit="10" stroke-width="5.81" d="M896.366 286.798v412.105"/>
    <path fill="#AC6352" d="M815.481 285.333s70.569 29.735 161.042-3.499L927.665 171.64l-72.372-1.75-39.812 115.443z"/>
    <path fill="#984B39" d="M946.819 214.839c-28.435 32.008-74.616 45.486-123.072 46.526l-8.266 23.968s70.569 29.735 161.044-3.499l-29.706-66.995z"/>
    <rect width="730.856" height="16.939" x="268.882" y="762.272" fill="#925D51" rx="8.47"/>
    <path fill="#F5C827" fill-rule="evenodd" d="M634.945 393.656c-.813-.126-1.638-.187-2.473-.187h-185.9c-12.83-.001-23.203-.001-23.203 46.835v251.053c0-6.31 3.28-4.542 8.433-1.763 4.048 2.183 9.253 4.99 14.931 4.99h185.739c1.78 0 3.513-.276 5.179-.722h181.973c7.893 0 15.129-2.798 20.757-4.975 7.162-2.77 11.721-4.534 11.721 1.757V440.35c0-46.695-14.42-46.695-32.254-46.694H634.945z" clip-rule="evenodd"/>
    <path fill="#DCB21D" d="M438.3 524.238v166.66c0-11.978 9.393 3.431 20.979 3.431h166.785c8.442 0 15.716-8.17 19.043-7.976v4.545c0-2.279.34-3.562.964-4.153.63.591.972 1.874.972 4.153v-4.547c3.306-.162 10.499 7.978 18.846 7.978H831.1c11.478 0 20.782-15.409 20.782-3.431V424.073c0-2.669-.032-5.167-.084-7.559L438.3 524.238z" opacity=".7"/>
    <path fill="#EBAFB2" d="M456.84 648.111c0 16.915-9.729 30.626-21.731 30.626H387.3c-12.003 0-21.733-13.711-21.733-30.626V537.856c0-16.915 9.73-30.627 21.733-30.627h47.809c12.002 0 21.731 13.712 21.731 30.627v110.255z"/>
    <path fill="#CAA41E" d="M476.717 660.326c0 18.397-14.116 33.311-31.531 33.311h-69.367c-17.414 0-31.531-14.914-31.531-33.311V540.408c0-18.398 14.117-33.311 31.531-33.311h69.367c17.415 0 31.531 14.913 31.531 33.311v119.918zM963.53 660.611c0 18.455-13.921 33.415-31.094 33.415h-68.407c-17.173 0-31.094-14.96-31.094-33.415V540.318c0-18.455 13.921-33.415 31.094-33.415h68.407c17.173 0 31.094 14.96 31.094 33.415v120.293z"/>
    <path fill="#925D51" d="M395.735 801.411c0 5.847-3.839 10.589-8.574 10.589-4.736 0-8.575-4.742-8.575-10.589v-36.584c0-5.847 3.839-10.588 8.575-10.588 4.735 0 8.574 4.741 8.574 10.588v36.584zM928.308 799.517c0 5.847-3.839 10.589-8.575 10.589-4.735 0-8.574-4.742-8.574-10.589v-36.584c0-5.847 3.839-10.588 8.574-10.588 4.736 0 8.575 4.741 8.575 10.588v36.584z"/>
    <path fill="#F5C827" d="M942.659 507.097h-24.044c-12.072 0-21.858 13.719-21.858 30.642v153.207h-488.52V537.739c0-16.923-9.786-30.642-21.858-30.642h-24.042c-12.072 0-21.858 13.719-21.858 30.642v209.893c0 8.857 2.696 16.812 6.982 22.407 3.989 5.995 9.659 9.766 15.969 9.766l579.229-1.531c12.072 0 21.858-13.719 21.858-30.642V537.739c0-16.923-9.786-30.642-21.858-30.642z"/>
    <path fill="#fff" d="M532.745 523.195h-88.959c-3.385 0-6.128 3.181-6.128 7.105v103.151c0 3.925 2.743 7.106 6.128 7.106h88.959c3.384 0 6.128-3.181 6.128-7.106V530.3c0-3.924-2.744-7.105-6.128-7.105zM876.997 534.406l-80.898-14.032c-3.077-.534-6.124 2.173-6.805 6.047l-17.9 101.826c-.681 3.874 1.262 7.447 4.34 7.981l80.898 14.033c3.078.534 6.125-2.174 6.806-6.048l17.899-101.826c.681-3.874-1.262-7.447-4.34-7.981z"/>
    <path fill="#FFE792" fill-rule="evenodd" d="M585.264 714.351H428.802c-11.684 0-21.155-14.921-21.155-33.328v-29.995c0-18.407 9.471-33.329 21.155-33.329H632.95c1.778 0 3.505.346 5.155.997h229.701c16.425 0 29.741 14.767 29.741 32.985v29.685c0 18.218-13.316 32.985-29.741 32.985H585.264z" clip-rule="evenodd"/>
    <path fill="#FF504A" d="M581.83 344.017c-3.047-.244-5.886-1.626-7.972-3.848-5.45-5.81-13.255-19.321-2.076-43.316 20.811-44.686 96.923-37.982 115.077-5.512 12.916 23.1 25.766 27.683 18.833 34.633-6.69 6.708-85.961 21.084-123.862 18.043z"/>
    <path fill="#fff" d="M715.98 612.483l-.253.034c-16.46 2.383-33.152 4.572-49.892 5.858-.959.07-1.919.145-2.882.203-17.714 1.252-35.475 1.44-53.053-.279-5.766-.563-11.516-1.341-17.205-2.375-12.719-2.309-21.292-14.257-19.233-26.94 1.94-11.908 3.207-23.189 4.041-33.794.125-1.577.245-3.134.345-4.677.844-12.379 1.117-23.779 1.207-34.134.004-.881.012-1.752.016-2.613 0-.39.007-.778.007-1.159.004-.591.004-1.177.004-1.755.008-.396.008-.785.008-1.166 0-.808.004-1.595 0-2.383.011-2.421.004-4.773.011-7.056v-.606c.004-7.903.037-14.977.356-21.179.012-.284.023-.559.046-.837.071-1.288.136-2.566.199-3.825.056-1.221.117-2.43.161-3.627.132-3.358.222-6.595.275-9.686.033-2.6.033-5.091-.007-7.455-.05-2.623-.144-5.08-.293-7.356-.058-.753-.109-1.531-.17-2.33-.094-1.21-.196-2.465-.301-3.754-.063-.784-.13-1.573-.21-2.376-.035-.35-.063-.705-.098-1.065-.004-.089-.015-.175-.021-.257-.046-.496-.092-.99-.136-1.494-.05-.489-.099-.978-.147-1.472-.079-.862-.165-1.741-.26-2.627-.41-4.134-.886-8.474-1.371-12.923-.158-1.394-.313-2.809-.47-4.226-.251-2.195-.504-4.414-.748-6.622-.169-1.426-.332-2.853-.492-4.277-2.455-21.451-4.765-41.989-3.944-48.507 1.422-11.286 56.417-41.074 56.417-41.074l33.011-1.031s46.337 18.551 54.885 29.749c.045.055.084.112.126.163 1.938 2.638 3.159 6.303 3.858 10.833.625 3.983.847 8.629.801 13.84-.021 3.709-.183 7.706-.425 11.945-.254 4.495-.6 9.264-.981 14.259-.109 1.453-.224 2.925-.339 4.414-.119 1.514-.231 3.041-.348 4.587l-.224 3.018c-.201 2.669-.398 5.386-.576 8.14-.057.888-.121 1.786-.178 2.686-.038.566-.071 1.143-.101 1.713-.037.584-.071 1.166-.104 1.754v.011c-.03.54-.065 1.075-.09 1.613-.04.586-.067 1.173-.095 1.763-.056 1.08-.113 2.162-.157 3.254-.046.9-.083 1.809-.117 2.716-.013.16-.019.329-.019.492-.031.586-.054 1.174-.069 1.756l-.01.306-.007.146c-.023.767-.05 1.547-.071 2.319-.031.928-.054 1.854-.077 2.776-.009.427-.013.866-.021 1.299-.011.383-.015.778-.023 1.166 0 .198-.003.388-.003.59-.012.534-.02 1.069-.025 1.618-.008.911-.01 1.834-.01 2.779v1.495c.002 2.615.031 5.348.082 8.191.02 1.174.046 2.364.073 3.572.029 1.28.063 2.573.096 3.883.084 2.754.174 5.567.287 8.431.011.419.025.833.044 1.255.008.172.011.341.019.512.034.934.071 1.871.115 2.82.059 1.364.122 2.743.178 4.12.063 1.491.166 3.071.298 4.737.163 2.085.372 4.295.624 6.63.056.546.119 1.099.186 1.655.103.896.204 1.808.331 2.735.069.582.138 1.16.216 1.751.048.373.096.748.147 1.124.182 1.404.379 2.847.588 4.316.023.163.046.325.067.488.107.744.224 1.491.327 2.252.212 1.449.442 2.929.674 4.428.068.42.132.848.199 1.272.401 2.552.834 5.169 1.286 7.845.078.466.164.945.244 1.423.18 1.053.366 2.115.552 3.183.65 3.724 1.339 7.534 2.059 11.404.84 4.475 1.714 9.028 2.621 13.615.743 3.773 1.512 7.568 2.289 11.362 1.818 8.876 3.708 17.748 5.574 26.308 2.91 13.328-6.116 26.362-19.694 28.33z"/>
    <path fill="#1DB776" fill-opacity=".56" d="M719.769 352.387c-24.116 5.136-46.49 6.603-64.161 6.603-3.211 0-6.265-.048-9.149-.13-27.301-.793-45.058-4.726-45.803-4.889l1.286-5.649 1.282-5.646h.004c.348.078 17.765 3.887 43.882 4.619 17.639.493 42.014-.384 68.675-5.905.044.055.084.11.124.164 1.939 2.637 3.162 6.302 3.86 10.833zM720.568 366.226c-.023 3.709-.186 7.706-.427 11.945-23.587 4.983-45.577 6.452-63.279 6.452-4.384 0-8.504-.09-12.322-.24-27.283-1.061-44.995-5.169-45.736-5.344l2.683-11.271c.174.042 17.586 4.061 43.819 5.054 19.059.726 46.005-.075 75.262-6.596zM719.163 392.43c-.109 1.453-.223 2.925-.338 4.414-.119 1.514-.232 3.041-.348 4.587l-.226 3.018c-22.222 4.464-43.004 5.831-60.115 5.831-5.589 0-10.779-.144-15.507-.372-27.262-1.334-44.93-5.619-45.671-5.797l2.796-11.244c.172.04 17.541 4.232 43.755 5.487 19.122.915 46.205.376 75.654-5.924zM717.295 418.741v.012c-.031.542-.063 1.074-.09 1.613-.038.587-.065 1.173-.096 1.763-.055 1.08-.111 2.162-.156 3.254-.044.899-.083 1.808-.115 2.716-.014.159-.021.329-.021.492-.031.586-.052 1.174-.067 1.755l-.012.307c-21.032 4.037-40.758 5.319-57.328 5.319-6.808 0-13.079-.213-18.695-.546-27.244-1.601-44.867-6.063-45.604-6.249l2.908-11.213h.004c.159.041 4.56 1.143 12.182 2.424 7.622 1.282 18.46 2.743 31.505 3.498 19.085 1.105 46.124.837 75.585-5.145zM596.284 443.062l-1.508 5.592 1.512-5.592h-.004zm120.302 9.97c-.052-2.844-.081-5.577-.085-8.192-29.891 5.871-57.309 5.887-76.586 4.576-26.072-1.767-43.311-6.272-43.627-6.354l-1.512 5.592-1.509 5.591c.732.194 18.307 4.831 45.533 6.702 6.479.449 13.833.75 21.883.75 16.369 0 35.577-1.25 55.973-5.094-.025-1.207-.051-2.398-.07-3.571zM717.693 482.361c-20.202 3.821-39.301 5.092-55.744 5.092-9.302 0-17.75-.407-25.067-.982-27.204-2.149-44.732-6.957-45.466-7.158l1.569-5.576 1.563-5.577h.002c.279.078 17.48 4.759 43.564 6.792 19.769 1.538 48.122 1.769 78.988-4.268.034.936.072 1.873.114 2.82.06 1.364.123 2.743.18 4.122.063 1.489.167 3.069.297 4.735zM720.852 507.74c-20.798 4.123-40.56 5.498-57.648 5.498-10.562 0-20.1-.527-28.236-1.247-27.188-2.418-44.668-7.4-45.401-7.61l3.247-11.12v-.004c.169.05 17.352 4.928 43.499 7.226 20.565 1.81 50.463 2.293 82.884-4.226.182 1.405.379 2.847.587 4.315l.069.489c.105.743.222 1.491.326 2.252.212 1.451.442 2.928.673 4.427zM725.192 532.867c-21.824 4.643-42.68 6.185-60.75 6.185-11.824 0-22.456-.66-31.394-1.542-27.168-2.689-44.603-7.843-45.332-8.064l3.36-11.086c.169.048 17.307 5.099 43.434 7.657 21.748 2.13 53.953 2.879 88.623-4.553.65 3.724 1.337 7.533 2.059 11.403zM730.1 557.846c-23.057 5.3-45.212 7.056-64.43 7.056-13.094 0-24.82-.814-34.539-1.876-27.146-2.959-44.536-8.288-45.262-8.512l1.738-5.529 1.732-5.527.003.004c.27.08 17.341 5.276 43.367 8.089 23.062 2.489 57.922 3.543 95.102-5.069.743 3.773 1.512 7.568 2.289 11.364z"/>
    <path fill="#FB4C47" d="M641.323 596.906c1.116-47.742-7.109-103.293-7.04-151.049.063-42.818 3.211-85.328 3.177-128.146-10.278.768-14.693 2.512-14.693 2.512s-9.828 8.334-41.807 18.691c-30.156 9.766-24.551 120.465-22.718 182.424 1.832 61.96 1.104 101.243 60.386 108.772 5.569.708 11.038 1.332 16.394 1.855.09-14.169 5.97-20.856 6.301-35.059z"/>
    <path fill="#B63A37" d="M577.011 471.021c-.637 0-1.211-.443-1.349-1.09-.161-.74.316-1.47 1.062-1.63.756-.162 18.55-4.188 24.685-25.363.208-.73.976-1.149 1.711-.941.733.209 1.157.971.945 1.7-6.606 22.811-25.946 27.12-26.767 27.293-.096.021-.193.031-.287.031zM628.764 587.501c-.574 0-1.057-.445-1.089-1.023-4.773-85.49-8.569-169.058-2.683-251.541.044-.597.568-1.044 1.165-1.004.603.042 1.055.561 1.013 1.158-5.881 82.356-2.086 165.849 2.684 251.265.033.599-.428 1.11-1.029 1.143-.021.002-.04.002-.061.002z"/>
    <path fill="#FB4C47" d="M744.221 382.275c1.43-44.106-19.945-55.747-62.6-62.105-.166-.025-.329-.049-.495-.072-.685 7.286-.435 14.686.044 21.96.765 11.634 2.124 23.201 2.594 34.854 1.971 48.626 6.759 81.654 2.829 145.476-2.957 47.968 4.759 73.145 6.11 109.493 24.214-3.676 43.271-13.471 55.007-33.347 22.015-37.289-4.916-172.153-3.489-216.259z"/>
    <path fill="#B63A37" d="M739.212 469.533c-.104 0-.205-.009-.31-.034-.286-.065-28.646-6.982-33.44-47.976-.088-.753.456-1.436 1.215-1.522.764-.093 1.445.453 1.531 1.206 4.572 39.087 31.044 45.553 31.312 45.612.744.17 1.209.907 1.039 1.647-.146.635-.716 1.067-1.347 1.067zM695.957 579.658c-.525 0-.988-.377-1.076-.909-1.999-12.07-1.232-44.45-.488-75.762.565-23.821 1.099-46.32.475-59.874-2.107-45.888-8.416-109.977-8.479-110.618-.059-.595.379-1.126.978-1.185.595-.057 1.134.377 1.192.972.063.643 6.378 64.785 8.488 110.73.626 13.63.092 36.165-.474 60.026-.741 31.213-1.506 63.489.461 75.359.098.589-.304 1.149-.899 1.246-.06.009-.119.015-.178.015z"/>
    <path fill="#002014" d="M657.176 219.014l-20.975 7.571s-6.291 8.623-14.541 6.845c-3.308-.715-6.931-3.102-10.591-8.383-12.787-18.463 18.054-44.043 36.591-39.745 9.091 2.107 11.556 10.262 11.703 18.024.155 8.058-2.187 15.688-2.187 15.688z"/>
    <path fill="#FFD339" d="M657.175 219.014l-20.974 7.571s-6.292 8.623-14.541 6.845c0-9.562 13.496-27.046 37.702-30.104.155 8.058-2.187 15.688-2.187 15.688z"/>
    <path fill="#FFD339" d="M656.827 182.13c-.379 0-.791.044-1.237.132-1.086.216-1.791.741-2.214 1.652-1.884 4.055 2.09 13.713 4.93 19.418 1.755-6.329 3.858-16.909.886-20.243-.572-.641-1.351-.959-2.365-.959zm1.81 25.964c-.473 0-.915-.252-1.148-.671-1.005-1.79-9.715-17.683-6.501-24.604.773-1.664 2.188-2.744 4.088-3.121 3.237-.641 5.097.548 6.085 1.656 5.163 5.794-.599 23.808-1.273 25.843-.164.492-.604.842-1.125.892-.042.004-.084.005-.126.005z"/>
    <path fill="#FFD339" d="M674.562 188.562c-.124 0-.251.008-.377.027-4.445.587-9.816 9.958-12.656 15.886 5.903-2.471 15.266-7.189 16.51-11.48.279-.966.092-1.82-.588-2.691-.914-1.169-1.861-1.742-2.889-1.742zm-15.557 19.616c-.354 0-.701-.141-.951-.403-.362-.377-.465-.929-.264-1.408.83-1.976 8.327-19.347 16.047-20.371 1.479-.195 3.666.113 5.691 2.703 1.19 1.521 1.55 3.258 1.039 5.019-2.124 7.324-19.176 13.68-21.112 14.382-.148.053-.299.078-.45.078z"/>
    <path fill="#002014" d="M620.074 236.145c-4.581-.681-9.732-3.108-12.966-9.812-7.637-15.825 10.628-29.18 10.813-29.313.374-.268.894-.183 1.164.186.27.371.186.89-.188 1.158-.174.126-17.317 12.68-10.287 27.252 6.275 13.001 20.089 8.427 20.672 8.223.438-.148.911.082 1.062.514.15.432-.08.903-.516 1.054-.083.028-4.551 1.51-9.754.738zM680.844 238.1s8.186 34.163-3.185 56.276c-11.368 22.113-22.792 28.136-6.466 35.005 16.327 6.868 34.902-6.215 47.367.59 15.048 8.214-1.826-60.728-9.346-89.904-7.698-29.854-44.255-33.195-44.255-33.195l15.885 31.228z"/>
    <path fill="#002014" d="M702.482 262.648s14.627-33.296-12.798-48.969c-27.427-15.673-55.129-3.836-62.51 14.209-7.38 18.044 3.921 29.914 3.921 29.914l71.387 4.846z"/>
    <path fill="#FBB990" d="M655.478 332.95c7.916 2.185 11.083-1.303 13.513-3.897l1.636-14.106.957-8.227.199-1.212-3.64-.401-26.854-7.699-3.632 16.948-1.726 8.035c3.452 3.239 8.039 7.383 19.547 10.559z"/>
    <path fill="#181818" d="M670.625 314.947c-8.322 3.729-24.734 2.035-32.97-.592-.029-.003-.05-.013-.079-.023l3.711-16.924 26.854 7.699 3.64.401-.199 1.211-.957 8.228z"/>
    <path fill="#FB9476" d="M692.553 262.853s15.945-4.606 12.817 9.395c-3.447 15.417-16.141 11.04-18.326 10.042l5.509-19.437z"/>
    <path fill="#fff" d="M681.096 288.459c-.882 5.866 3.201 11.351 9.103 12.227 5.903.877 11.422-3.181 12.304-9.049.752-5.003-2.117-9.72-6.634-11.546-.008.01-.016.021-.023.038-.76.198-.919.78-.99 1.413 4.007 1.417 6.585 5.506 5.934 9.842-.74 4.924-5.375 8.336-10.335 7.6-4.954-.736-8.387-5.346-7.646-10.27.333-2.225 1.461-4.138 3.055-5.498.414-.35.858-.666 1.327-.94-.418-.374-.814-.81-1.164-1.308-.43.266-.851.569-1.238.9-1.925 1.622-3.293 3.919-3.693 6.591z"/>
    <path fill="#FA7764" d="M694.336 277.713c-.031-.004-.062-.011-.092-.019-.461-.12-.741-.589-.62-1.05 1.774-6.795 6.808-9.15 7.021-9.247.434-.195.949-.007 1.148.427.197.431.007.941-.425 1.139-.19.087-4.51 2.147-6.068 8.115-.113.43-.532.7-.964.635z"/>
    <path fill="#FA7764" d="M700.041 274.853c-.245-.036-.472-.175-.61-.401-.025-.038-1.091-1.72-2.616-1.739-.476-.002-.861-.393-.857-.869.007-.475.398-.856.876-.85 2.486.025 4.011 2.457 4.074 2.56.249.407.119.936-.289 1.183-.18.108-.384.144-.578.116z"/>
    <path fill="#FFC29C" d="M701.297 260.933c-.992 5.568-2.519 10.979-4.419 16.053-.855 2.299-1.797 4.526-2.794 6.668-7.026 15.093-17.126 25.968-25.193 26.909-12.773 1.493-27.272-4.709-34.381-21.264-1.162-2.705-2.379-5.972-2.96-9.822-.079-.534-.155-1.082-.221-1.641-2.083-17.2 2.306-41.721 2.306-41.721 10.469-15.534 32.977-11.394 46.033-9.258 13.065 2.14 26.177 8.593 21.629 34.076z"/>
    <path fill="#FB9476" d="M665.357 301.674c-2.773-.411-4.411-1.66-4.481-1.714-.377-.292-.446-.833-.151-1.207.292-.375.834-.443 1.211-.152.029.021 1.496 1.108 3.944 1.407 2.495.302 4.167-.27 4.183-.276.449-.158.945.076 1.106.521.16.445-.071.938-.519 1.098-.082.03-2.049.72-4.979.365-.107-.012-.21-.027-.314-.042z"/>
    <path fill="#108A57" d="M616.741 466.759c-.555 0-1.072-.352-1.252-.906-1.881-5.757-3.178-12.251-3.234-12.525-.139-.71.324-1.396 1.037-1.537.71-.139 1.405.321 1.545 1.031.013.066 1.324 6.618 3.155 12.225.224.686-.155 1.424-.846 1.647-.134.044-.271.065-.405.065zM623.765 464.416c-.549 0-1.06-.343-1.246-.888-1.957-5.731-3.341-12.205-3.398-12.477-.151-.707.304-1.401 1.016-1.55.71-.15 1.406.303 1.558 1.008.013.067 1.41 6.598 3.316 12.178.233.685-.136 1.426-.823 1.658-.142.048-.283.071-.423.071zM630.794 462.073c-.541 0-1.048-.335-1.24-.872-2.032-5.703-3.501-12.156-3.563-12.428-.158-.704.286-1.404.995-1.562.707-.157 1.413.284 1.572.989.015.065 1.498 6.575 3.476 12.129.243.68-.116 1.426-.799 1.667-.146.052-.295.077-.441.077zM637.816 459.73c-.536 0-1.037-.327-1.234-.855-2.109-5.675-3.663-12.108-3.728-12.379-.17-.702.266-1.408.974-1.575.706-.168 1.414.266 1.585.968.015.064 1.584 6.554 3.637 12.08.251.677-.097 1.431-.778 1.68-.15.055-.305.081-.456.081zM644.844 457.388c-.528 0-1.027-.32-1.228-.839-2.184-5.649-3.826-12.06-3.892-12.33-.18-.7.246-1.411.951-1.588.704-.177 1.419.247 1.597.947.018.063 1.673 6.533 3.799 12.033.26.674-.077 1.431-.756 1.689-.155.059-.314.088-.471.088zM651.867 455.046c-.523 0-1.016-.312-1.221-.824-2.26-5.62-3.986-12.012-4.059-12.282-.187-.696.23-1.413.932-1.599.702-.187 1.422.228 1.609.926.018.064 1.761 6.514 3.959 11.985.27.672-.059 1.432-.732 1.7-.161.063-.326.094-.488.094zM658.892 452.703c-.517 0-1.005-.305-1.215-.807-2.335-5.593-4.147-11.964-4.223-12.232-.198-.695.21-1.417.91-1.613.699-.196 1.426.209 1.621.905.019.065 1.847 6.493 4.122 11.938.277.666-.04 1.432-.712 1.708-.164.068-.335.101-.503.101z"/>
    <path fill="#0CAD69" d="M696.744 313.328c-.268 3.41-.906 6.815-2.075 9.996-.296.814-.631 1.611-1.006 2.391v.004c-1.885 3.963-4.736 7.455-8.927 10.009 0 0-20.435 8.633-44.507-1.962h-.004c-1.366-.603-2.746-1.271-4.137-2.003-1.215-.639-2.432-1.329-3.653-2.073-10.456-6.366-14.601-14.945-15.734-23.115-.101-.729-.179-1.449-.235-2.174-.444-5.761.492-11.189 1.611-15.325l.226-.805c1.211-4.214 2.538-6.896 2.538-6.896s5.411-2.337 12.51-3.41c2.7-.407 5.645-.631 8.63-.473 3.389.175 6.832.844 10.027 2.293 22.825 10.35 34.385 14.972 41.008 6.088 0 0 1.15 3.306 2.199 8.285.149.707.292 1.443.436 2.212.386 2.111.733 4.44.96 6.896.301 3.216.404 6.637.133 10.062z"/>
    <path fill="#108E59" d="M695.652 296.369c-.304.468-.647.942-1.022 1.413-2.891 3.631-8.509 7.811-19.055 7.811-.647 0-1.309-.015-1.992-.049-10.226-.485-18.198-4.681-25.909-8.737-9.205-4.84-17.902-9.416-29.441-7.001l-.155-.73-.153-.731c.129-.024.257-.051.381-.074 11.876-2.352 20.718 2.298 30.07 7.218 7.566 3.977 15.39 8.094 25.278 8.56 8.961.43 15.605-1.974 19.753-7.138.745-.926 1.338-1.863 1.809-2.754.151.706.293 1.444.436 2.212zM694.666 323.324c-.296.814-.631 1.611-1.006 2.391v.003c-3.824 2.182-8.405 3.677-13.703 4.468-3.012.453-6.256.675-9.717.675-4.507 0-9.38-.38-14.582-1.141-15.605-2.294-28.946-7.299-29.082-7.353l.538-1.396c.132.052 13.341 5.008 28.789 7.273 12.289 1.795 28.214 2.174 38.763-4.92z"/>
    <path fill="#0CAD69" d="M658.587 442.994l-46.27 15.017s-.612-2.68-1.559-7.237c-.211-1.015-.441-2.128-.68-3.324-.654-3.235-1.406-7.094-2.2-11.4-.199-1.092-.4-2.208-.603-3.355-.643-3.602-1.301-7.455-1.94-11.483-.176-1.117-.354-2.244-.527-3.387-.574-3.766-1.131-7.65-1.638-11.592-.147-1.143-.292-2.29-.432-3.442-.475-3.901-.896-7.834-1.244-11.735-.109-1.168-.207-2.333-.297-3.495-.319-4.065-.553-8.072-.669-11.946-.035-1.192-.061-2.372-.075-3.537-.053-4.34.056-8.479.368-12.3.101-1.253.225-2.466.373-3.642.101-.852.222-1.685.348-2.495.605-3.785 1.443-7.217 2.455-10.333.421-1.308.876-2.558 1.357-3.754 8.565-21.381 25.387-25.595 25.387-25.595 12.459 1.229 17.936 14.46 17.936 14.46-2.612 2.474-4.499 5.873-5.793 9.95-.335 1.058-.631 2.161-.886 3.304-.692 3.062-1.113 6.424-1.309 10.002-.063 1.11-.101 2.242-.12 3.389-.056 3.343.061 6.839.319 10.431.079 1.122.173 2.25.278 3.386.323 3.459.763 6.989 1.293 10.532.171 1.13.347 2.254.531 3.382.577 3.526 1.236 7.055 1.949 10.538.226 1.12.464 2.232.701 3.343.769 3.581 1.588 7.096 2.426 10.489.272 1.105.546 2.195.825 3.271.926 3.642 1.871 7.117 2.78 10.344.312 1.109.624 2.193.928 3.241 1.124 3.87 2.176 7.303 3.075 10.15.372 1.174.714 2.244 1.026 3.208 1.162 3.565 1.887 5.615 1.887 5.615z"/>
    <path fill="#108E59" d="M642.88 338.37c-.335 1.057-.632 2.158-.886 3.301-8.19-1.004-23.066-1.938-38.001 1.638.421-1.309.876-2.56 1.356-3.754 7.423-1.596 14.553-2.127 20.437-2.186 6.946-.074 12.922.463 17.094 1.001zM640.686 351.675c-.063 1.109-.102 2.241-.121 3.388-9.774-.417-25.127-.025-39.748 4.714.101-1.251.226-2.464.373-3.642 9.692-2.961 19.356-4.087 26.943-4.441 4.728-.22 9.001-.173 12.553-.019zM641.162 368.88c-10.433.175-26.099 1.472-40.638 6.737-.035-1.193-.061-2.374-.077-3.54 10.705-3.727 21.644-5.363 30.03-6.057 3.815-.318 7.332-.468 10.406-.523.08 1.12.174 2.248.279 3.383zM642.99 382.795c-10.775.721-26.817 2.737-41.497 8.262-.107-1.17-.205-2.334-.295-3.496 14.765-5.435 30.506-7.429 41.262-8.147.17 1.127.346 2.253.53 3.381zM645.636 396.675c-10.95 1.233-27.477 3.895-42.47 9.559-.147-1.143-.293-2.29-.432-3.444 15.063-5.599 31.277-8.233 42.201-9.458.226 1.122.463 2.234.701 3.343zM648.889 410.437c-10.978 1.721-28.099 5.053-43.556 10.775-.176-1.116-.352-2.244-.527-3.387 15.406-5.622 32.271-8.925 43.26-10.662.27 1.107.544 2.197.823 3.274zM652.604 424.022c-10.857 2.196-28.665 6.261-44.721 12.027-.199-1.09-.402-2.206-.605-3.353 15.986-5.69 33.533-9.709 44.398-11.917.312 1.109.624 2.193.928 3.243zM656.698 437.379c-10.515 2.63-29.126 7.562-45.94 13.395-.213-1.016-.44-2.128-.681-3.325 16.716-5.774 35.073-10.64 45.596-13.278.373 1.173.713 2.244 1.025 3.208z"/>
    <path fill="#128E5A" d="M640.228 333.766h-.003c-.343-.019-.695-.059-1.06-.128-1.112-.209-2.134-.865-3.079-1.875-7.955-8.528-10.004-42.183-10.004-42.183s2.981-7.324 7.269-11.613c2.698-.407 5.645-.631 8.63-.473.618 6.32 2.758 26.468 5.245 32.012 2.861 6.367 2.496 24.764-6.998 24.26z"/>
    <path fill="#108E59" d="M696.745 313.328c-11.625 8.966-36.995 3.804-60.16-2.98-7.915-2.318-14.509-3.4-19.884-3.771-.098-.729-.178-1.451-.234-2.174 10.07.626 23.56 3.438 40.271 7.212 24.784 5.593 36.074-3.848 39.877-8.347.3 3.216.402 6.639.13 10.06z"/>
    <path fill="#181818" d="M679.947 267.722c-.383 2.43.409 4.574 1.772 4.787 1.368.215 2.788-1.586 3.171-4.019.151-.958.118-1.867-.058-2.636 2.431.483 3.473-.905 3.473-.905-1.613-.025-3.67-.69-4.64-1.037-.342-.127-.553-.209-.553-.209-1.362-.215-2.78 1.583-3.165 4.019z"/>
    <path fill="#181818" d="M683.114 263.702s.209.082.554.21c-.171-.107-.355-.179-.554-.21z"/>
    <path fill="#FD9B7E" d="M696.882 276.986c-.857 2.299-1.797 4.526-2.794 6.668-1.098.009-2.277-.067-3.492-.238-5.429-.763-9.579-3.125-9.271-5.274.308-2.147 4.958-3.267 10.381-2.506 1.935.272 3.708.747 5.176 1.35zM657.036 273.925c-.31 2.172-5.005 3.304-10.49 2.532-5.484-.774-9.678-3.159-9.366-5.331.308-2.17 5.005-3.304 10.488-2.532 5.484.774 9.678 3.159 9.368 5.331z"/>
    <path fill="#FBB990" d="M634.397 260.194c.297-2.056-.583-4.094-2.271-5.315-4.185-3.026-9.79-4.74-12.566.76-5.155 10.21 4.211 23.891 12.313 22.089l2.524-17.534z"/>
    <path fill="#FB9476" d="M636.096 277.057c-.157.145-.312.284-.471.411-.465.383-.939.708-1.423.978-.888.5-1.788.825-2.649 1.033-.082-.539-.157-1.085-.218-1.644.616-.146 1.25-.359 1.875-.673.508-.238 1.015-.54 1.497-.915.191-.15.386-.314.568-.483.303-.293.735-.228.961.137.226.358.17.883-.14 1.156zM628.255 270.63c-.425-.062-.748-.433-.737-.871.168-6.892-4.231-10.572-4.275-10.608-.367-.302-.423-.843-.12-1.21.302-.369.845-.424 1.217-.123.206.169 5.099 4.216 4.91 11.981-.012.476-.41.852-.886.839-.038 0-.073-.004-.109-.008z"/>
    <path fill="#FB9476" d="M622.726 265.802c-.199-.03-.386-.127-.526-.289-.312-.359-.274-.899.088-1.211.101-.088 2.534-2.147 5.264-1.429.461.122.737.594.615 1.054-.125.458-.601.729-1.061.611-1.837-.483-3.668 1.051-3.687 1.067-.199.169-.454.233-.693.197zM673.619 276.925h.006-.006zm-4.345 4.344c-.35-.052-.66-.314-.731-.719-.067-.38.157-.753.509-.921 2.13-1.004 4.183-2.295 4.541-2.841l-1.891-10.085c-.088-.468.222-.913.693-1.001.469-.087.92.219 1.008.685.442 2.358 1.673 8.921 1.918 10.22.086.449.342 1.813-5.55 4.588-.161.076-.335.098-.497.074"/>
    <path fill="#181818" d="M658.281 264.505c-.351 2.436-1.738 4.255-3.104 4.064-1.37-.192-2.199-2.328-1.851-4.766.138-.958.437-1.82.831-2.503-2.467-.243-3.056-1.875-3.056-1.875 1.55.445 3.714.407 4.744.358.365-.023.589-.042.589-.042 1.366.192 2.197 2.322 1.847 4.764z"/>
    <path fill="#181818" d="M656.439 259.741s-.224.019-.59.04c.194-.051.391-.07.59-.04z"/>
    <path fill="#111" d="M692.453 263.833c-.496-1.018-1.147-2.032-1.849-2.944-.708-.919-1.504-1.754-2.355-2.488-.846-.746-1.776-1.356-2.739-1.845-.949-.521-1.986-.806-2.987-1.063l-.103-.025c-1.089-.277-1.743-1.38-1.464-2.461.278-1.082 1.387-1.734 2.474-1.456.127.032.255.079.368.133 1.265.597 2.491 1.253 3.538 2.128 1.06.844 2.007 1.797 2.799 2.841.802 1.035 1.483 2.132 2.046 3.275.561 1.151 1.014 2.305 1.336 3.562.076.299-.104.601-.404.677-.262.067-.528-.062-.641-.296l-.019-.038zM645.816 256.454c.871-1.185 1.839-2.214 2.917-3.188 1.075-.966 2.256-1.835 3.534-2.586 1.269-.765 2.662-1.368 4.124-1.809 1.462-.483 3.015-.66 4.583-.761 1.119-.072 2.085.773 2.158 1.885.071 1.113-.777 2.073-1.896 2.145-.111.008-.222.004-.329-.005l-.13-.014c-1.198-.123-2.44-.224-3.68-.036-1.242.145-2.495.436-3.707.904-1.215.452-2.405 1.034-3.538 1.738-1.121.702-2.223 1.529-3.167 2.429l-.03.028c-.222.213-.576.204-.791-.017-.191-.198-.204-.5-.048-.713z"/>
    <path fill="#002014" d="M644.834 234.183s16.054 21.778 53.564 20.713c20.18-.572 2.654-31.892-27.427-33.653-30.083-1.759-26.137 12.94-26.137 12.94z"/>
    <path fill="#181818" d="M698.494 251.488s2.255 16.608-1.613 25.498c0 0 7.253-14.867 4.991-24.264-2.262-9.397-3.378-1.234-3.378-1.234z"/>
    <path fill="#002014" d="M654.891 234.248s-17.878 30.291-13.504 54.743c4.371 24.45 10.757 43.916-6.877 45.741-17.451 1.809-29.027-5.003-44.653 1.138h-.003c-.163.066-.324.129-.49.198-.41.167-.777.268-1.116.313-2.706.346-3.224-3.164-2.21-9.155.362-2.119.911-4.542 1.621-7.218 3.291-12.39 10.061-30.117 17.415-47.154 5.777-13.38 11.914-26.335 17.013-35.943 1.858-3.5 3.581-6.55 5.094-9.024 16.139-26.312 52.083-18.893 52.083-18.893l-24.373 25.254z"/>
    <path fill="#002014" d="M623.16 238.062c-.165.299-9.269 16.94-18.089 34.791-7.197 14.564-14.202 29.939-16.018 37.907-.781 3.433-1.211 6.514-1.399 9.249-.593 8.745 1.309 13.954 2.195 15.86l-.488.197c-.41.17-.779.27-1.118.314-.702-1.542-1.791-4.564-2.208-9.155-.39-4.243-.203-9.831 1.389-16.832 4.09-17.959 33.042-70.882 34.27-73.126.09-.165.23-.283.391-.355.229-.105.503-.105.74.026.406.217.557.721.335 1.124z"/>
    <path fill="#FFC29C" d="M676.11 254.942s-19.476-5.879-25.023 15.403c-5.549 21.279 13.649 30.834 25.827 28.495 12.18-2.341 20.192-40.289-.804-43.898z" opacity=".4"/>
    <path fill="#fff" d="M656.685 252.681c-7.284 0-13.209 5.891-13.209 13.131 0 7.238 5.925 13.128 13.209 13.128 7.285 0 13.21-5.89 13.21-13.128 0-7.24-5.925-13.131-13.21-13.131zm0 28.066c-8.287 0-15.029-6.7-15.029-14.935 0-8.237 6.742-14.937 15.029-14.937 8.288 0 15.029 6.7 15.029 14.937 0 8.235-6.741 14.935-15.029 14.935zM689.979 259.392c-7.285 0-13.209 5.89-13.209 13.128 0 7.241 5.924 13.131 13.209 13.131 7.285 0 13.209-5.89 13.209-13.131 0-7.238-5.924-13.128-13.209-13.128zm0 28.066c-8.287 0-15.029-6.701-15.029-14.938 0-8.235 6.742-14.935 15.029-14.935 8.288 0 15.029 6.7 15.029 14.935 0 8.237-6.741 14.938-15.029 14.938z"/>
    <path fill="#fff" d="M675.807 268.642c-1.601-2.453-4.552-1.415-4.678-1.369l-.624-1.697c1.529-.555 4.921-.835 6.827 2.081l-1.525.985z"/>
    <path fill="#108E59" d="M699.706 611.712c-4.204 2.999-9.934 11.961-19.884 15.106C623.298 644.694 570.548 610 570.548 610c-3.132-15.386-1.194-32.867 4.021-39.267-1.64-2.273-.555-4.991-.555-4.991l-24.892-45.863c.603.377 39.046 24.53 67.534 41.641h.011c8.209 4.928 15.59 9.272 20.997 12.29 8.254 4.605 18.788 5.055 29.109 3.642 20.118-2.763 39.418-12.615 39.418-12.615s48.135-28.21 60.284-27.236c9.446.753-24.732 52.517-66.769 74.111z"/>
    <path fill="#fff" d="M593.244 658.116s-3.043.567-7.988 1.575c-1.408.287-2.969.605-4.655.96-2.239.47-4.7.995-7.325 1.575-1.497.329-3.047.675-4.641 1.035-19.817 4.486-46.057 11.31-56.624 17.982-.74.467-1.46.931-2.151 1.397-16.1 10.759-19.393 20.05-22.38 18.165-3.118-1.963-3.816-10.019 1.27-15.316 3.521-3.67 5.986-9.024 10.714-14.811 1.278-1.565 2.721-3.163 4.396-4.768 7.395-7.083 19.231-14.403 25.84-20.03.427-.362.831-.719 1.211-1.067 5.441-4.987 7.563-15.249 17.49-18.368 4.851-1.522 10.665-.928 16.273.542.997.26 1.988.551 2.962.859 1.46.464 2.888.974 4.264 1.501 1.9.74 3.702 1.517 5.346 2.28 1.575.73 3.01 1.446 4.246 2.088 2.984 1.554 4.828 2.709 4.828 2.709l6.924 21.692z"/>
    <path fill="#80D7B2" d="M564.669 626.987c-5.867 7.632-19.379 22.221-34.974 18.894.426-.363.83-.719 1.211-1.068 5.44-4.987 7.564-15.249 17.49-18.369 4.851-1.521 10.664-.926 16.273.543zM509.859 682.639c-16.1 10.759-19.393 20.05-22.379 18.167-3.119-1.963-3.815-10.021 1.269-15.318 3.523-3.67 5.988-9.022 10.714-14.809 3.984 2.809 8.221 6.791 10.396 11.96zM585.252 659.691c-1.409.285-2.968.605-4.656.96-2.932-5.321-4.403-11.81-4.313-19.212.046-3.741.478-7.14.958-9.812 1.577.731 3.01 1.446 4.247 2.088-.351 2.25-.632 4.928-.664 7.813-.067 5.833.899 12.513 4.428 18.163zM571.896 629.347c-1.376-.527-2.803-1.037-4.263-1.501-.948 2.733-2.304 7.338-2.917 12.752-.993 8.775.354 16.481 3.915 22.662 1.594-.359 3.144-.705 4.641-1.034-7.532-11.466-3.389-27.004-1.376-32.879z"/>
    <path fill="#0CAD69" d="M830.85 574.855c-21.219 25.756-68.93 52.103-119.957 67.39-17.717 5.308-32.928 9.292-45.91 12.278-10.222 2.356-19.066 4.087-26.657 5.352-29.308 4.886-40.08 2.851-40.08 2.851s-18.085-5.78-10.331-34.977c0 0 34.283-7.832 60.847-20.882 5.415-2.659 10.513-5.539 14.932-8.614 1.035-.721 2.064-1.453 3.082-2.197 24.689-17.974 45.799-42.388 101.436-64.457 0 0 29.099-17.564 52.491-9.688 3.488 1.171 6.791 2.864 9.776 5.2 16.95 13.255 14.698 30.366.371 47.744z"/>
    <path fill="#108E59" d="M726.926 634.354l-11.06 1.51-67.095-28.997c5.415-2.661 10.511-5.538 14.931-8.614 1.034-.721 2.065-1.453 3.083-2.196l60.141 38.297zM664.99 654.522c-10.222 2.357-19.067 4.087-26.658 5.352-21.351-5.763-46.916-16.516-46.916-16.516l1.664-13.179 71.91 24.343zM830.849 574.856c-17.513-23.394-14.034-42.983-10.148-52.945 3.491 1.173 6.791 2.864 9.778 5.2 16.949 13.255 14.697 30.366.37 47.745z"/>
    <path fill="#108E59" d="M590.831 636.457c17.844-3.473 54.54-18.359 98.163-39.821 32.626-16.052 70.348-36.736 76.074-44.22 3.092-4.042 3.972-7.419 2.616-10.036-2.031-3.916-8.33-4.578-11.21-4.671-.743-.025-1.351.574-1.328 1.314.021.669.555 1.21 1.23 1.232 2.831.101 7.737.791 9.03 3.292 1.076 2.079-.7 5.132-2.38 7.326-4.617 6.037-36.229 24.321-75.168 43.479-33.53 16.496-76.757 35.564-97.519 39.606l.492 2.499z"/>
    <path fill="#108E59" d="M594.686 624.111c1.326 15.576 4.763 29.831 13.106 41.002 0 0-7.769 5.078-14.491.915-5.134-3.18-14.241-27.807-9.82-40.561 4.502-2.202 8.333-2.875 11.205-1.356z"/>
    <path fill="#fff" d="M717.558 664.405s2.999.761 7.867 2.09c1.385.376 2.924.799 4.583 1.261 2.202.614 4.623 1.299 7.204 2.048 1.472.426 2.997.871 4.562 1.333 19.48 5.767 45.216 14.283 55.319 21.624.71.518 1.397 1.027 2.057 1.537 15.356 11.782 18.034 21.265 21.135 19.581 3.242-1.755 4.467-9.75-.258-15.366-3.274-3.892-5.381-9.394-9.717-15.478-1.173-1.643-2.507-3.332-4.072-5.042-6.914-7.55-18.242-15.621-24.467-21.667-.402-.388-.782-.771-1.138-1.145-5.1-5.329-6.545-15.706-16.244-19.466-4.74-1.833-10.58-1.62-16.273-.517-1.014.196-2.023.42-3.014.666-1.489.369-2.945.783-4.353 1.221-1.945.614-3.793 1.274-5.485 1.926-1.62.628-3.098 1.248-4.374 1.811-3.079 1.354-4.996 2.385-4.996 2.385l-8.336 21.198z"/>
    <path fill="#80D7B2" d="M748.116 635.197c5.352 8 17.877 23.433 33.656 21.128-.402-.388-.781-.77-1.139-1.143-5.099-5.331-6.544-15.707-16.244-19.467-4.74-1.832-10.578-1.619-16.273-.518zM799.148 694.298c15.356 11.782 18.033 21.266 21.135 19.581 3.241-1.755 4.466-9.751-.258-15.367-3.275-3.891-5.379-9.393-9.717-15.477-4.161 2.545-8.65 6.246-11.16 11.263zM725.426 666.494c1.385.377 2.922.799 4.583 1.261 3.274-5.118 5.17-11.498 5.568-18.891.199-3.735-.007-7.155-.311-9.852-1.621.626-3.1 1.246-4.377 1.809.205 2.267.308 4.956.151 7.84-.317 5.823-1.722 12.424-5.614 17.833zM737.214 669.804c1.471.426 2.994.871 4.562 1.333 3.959-5.936 5.811-13.537 5.398-22.36-.257-5.441-1.307-10.124-2.073-12.914-1.487.369-2.943.784-4.351 1.221 1.623 5.991 4.732 21.765-3.536 32.72z"/>
    <path fill="#0CAD69" d="M723.234 634.856c5.814 29.642-12.61 34.231-12.61 34.231s-27.454 3.357-111.057-27.759c-48.202-17.939-92.647-45.974-113.179-72.261-15.077-19.3-17.26-37.666 1.426-50.403 4.305-2.935 9.131-4.616 14.154-5.399 23.133-3.608 50.461 11.865 50.461 11.865 56.298 26.698 42.207 35.873 89.156 65.597 26.851 16.999 81.649 44.129 81.649 44.129z"/>
    <path fill="#108E59" d="M501.968 513.265c.896 10.022 2.43 43.535-15.58 55.802-15.077-19.3-17.26-37.666 1.427-50.403 4.306-2.935 9.13-4.616 14.153-5.399zM719.757 643.356c-17.577-4.625-53.216-21.865-95.333-46.117-31.499-18.138-67.778-41.231-72.998-49.07-2.821-4.236-3.477-7.663-1.952-10.184 2.285-3.778 8.615-4.027 11.495-3.934.742.025 1.309.662 1.238 1.396-.065.668-.635 1.172-1.309 1.153-2.832-.084-7.771.285-9.227 2.699-1.211 2.002.362 5.163 1.892 7.464 4.21 6.322 34.553 26.624 72.147 48.273 32.372 18.64 74.252 40.477 94.704 45.858l-.657 2.462z"/>
    <path fill="#108E59" d="M716.718 630.786c-2.35 15.459-6.717 29.456-15.777 40.061 0 0 7.419 5.572 14.399 1.856 5.331-2.837 16.04-26.82 12.471-39.834-4.35-2.491-8.127-3.41-11.093-2.083z"/>
    <path fill="#FB4C47" d="M801.012 512.719c-6.242 7.938-14.853 12.379-21.689 16.92-16.439 10.926-49.794 17.834-47.287-19.804 2.51-37.633 31.156-22.383 10.08-88.483-8.995-28.203-15.191-86.338-15.191-86.338s47.084 32.784 74.944 113.639c2.172 6.299 3.814 12.048 5 17.303 5.389 23.872 1.334 37.63-5.857 46.763z"/>
    <path fill="#B63A37" d="M801.009 512.719c-10.215-18.127-1.744-36.046 5.857-46.763 5.388 23.872 1.334 37.63-5.857 46.763zM731.926 516.572c-.52 0-.989-.36-1.1-.887-.069-.321-1.651-7.98 1.491-18.162 2.887-9.348 10.496-22.648 30.349-32.919.555-.288 1.234-.073 1.521.475.289.55.073 1.227-.478 1.512-19.102 9.884-26.421 22.569-29.197 31.472-3.014 9.652-1.497 17.082-1.482 17.156.131.605-.26 1.2-.868 1.328-.081.017-.159.025-.236.025z"/>
    <path fill="#B63A37" d="M749.033 475.561c-.153.015-.313-.002-.468-.053-.594-.198-.911-.833-.71-1.419 3.655-10.814 5.997-15.443 6.094-15.635.282-.552.959-.772 1.516-.491.555.28.777.953.496 1.505-.025.045-2.377 4.705-5.969 15.334-.147.432-.53.717-.959.759z"/>
    <path fill="#B63A37" d="M750.307 470.636c-.622 0-1.127-.502-1.127-1.12 0-22.03-29.618-71.907-29.918-72.41-.318-.532-.142-1.221.394-1.536.536-.316 1.226-.139 1.546.392 1.234 2.069 30.232 50.914 30.232 73.554 0 .618-.503 1.12-1.127 1.12z"/>
    <path fill="#B63A37" d="M729.342 414.025c-.235 0-.472-.072-.675-.223-3.833-2.847-13.531-5.365-13.629-5.389-.602-.155-.964-.767-.807-1.364.155-.601.771-.961 1.372-.805.415.107 10.226 2.652 14.415 5.763.497.371.601 1.073.227 1.569-.222.293-.56.449-.903.449z"/>
    <path fill="#FAB893" d="M715.538 571.348c.183 1.99.356 4.068.601 5.746.461 3.17 1.188 4.905 2.774 1.89.352-.679.637-1.546.871-2.543 1.366-5.815.916-16.051 1.548-18.282.714-2.535 3.689-9.745 3.949-10.152-.133.3-1.475 4.709-1.63 7.429-.147 2.55 0 5.65 0 11.93 0 2.738.102 5.57.45 7.63v.006c.448 2.662 1.313 4.018 2.918 2.172.79-.909 1.295-2.505 1.625-4.394.865-4.905.555-11.831 1.01-14.098.612-3.039 3.094-7.95 3.253-8.258-.941 3.127-.941 2.819-1.464 6.927-.369 2.87-1.043 10.505-.329 13.927.302 1.476.871 2.172 1.831 1.364 1.499-1.261 2.54-3.11 3.274-5.225.827-2.373 1.263-5.087 1.541-7.687.524-4.922 2.528-7.956 2.528-7.956-1.112 5.331-1.721 10.487-1.392 13.15.228 1.883.923 2.518 2.232 1.086 2.552-2.788 5.13-12.007 6.022-15.474.03-.106.055-.213.08-.313.032-.107.052-.2.078-.29.119-.464.182-.728.182-.728l.006-.006c.74-2.889 1.408-5.777 2.388-8.364 1.454-3.844 3.615-7.027 7.773-8.558 9.434-3.486 6.537-21.318-6.686-22.389-3.852-.312-7.666.957-10.689 3.349-1.925 1.524-4.641 3.652-7.388 5.738l-.006.006c-.264.335-8.864 10.92-11.556 17.514-2.735 6.694-5.054 17.269-5.58 20.302-.53 3.034-.737 8.792-.214 14.551z"/>
    <path fill="#FB4C47" d="M507.685 521.514c6.28 8.139 14.945 12.694 21.822 17.351 16.54 11.204 50.101 18.285 47.579-20.309-2.526-38.589-31.347-22.95-10.141-90.732 9.049-28.919 10.141-86.552 10.141-86.552s-42.231 31.636-70.264 114.548c-2.185 6.457-3.837 12.352-5.029 17.743-5.421 24.479-1.341 38.586 5.892 47.951z"/>
    <path fill="#B63A37" d="M507.946 523.099c10.214-18.129 1.743-36.046-5.856-46.763-5.388 23.872-1.334 37.63 5.856 46.763zM577.027 526.952c.521 0 .989-.36 1.1-.887.069-.321 1.652-7.98-1.492-18.162-2.886-9.348-10.494-22.647-30.349-32.921-.553-.286-1.232-.071-1.521.477-.287.548-.073 1.225.48 1.512 19.101 9.882 26.42 22.569 29.199 31.472 3.01 9.65 1.494 17.082 1.479 17.156-.128.605.26 1.199.869 1.328.078.017.157.025.235.025z"/>
    <path fill="#B63A37" d="M559.924 485.94c.155.016.314-.001.471-.053.589-.198.907-.833.71-1.419-3.657-10.813-5.999-15.443-6.097-15.635-.281-.551-.959-.772-1.515-.49-.555.279-.777.952-.496 1.506.023.044 2.377 4.703 5.97 15.333.146.431.528.717.957.758z"/>
    <path fill="#B63A37" d="M558.648 481.015c.624 0 1.127-.502 1.127-1.12 0-22.029 29.62-71.907 29.918-72.409.32-.533.142-1.221-.394-1.537-.534-.316-1.227-.139-1.544.394-1.236 2.067-30.234 50.912-30.234 73.552 0 .618.505 1.12 1.127 1.12z"/>
    <path fill="#B63A37" d="M579.614 424.405c.235 0 .47-.072.673-.224 3.833-2.847 13.531-5.363 13.629-5.388.602-.154.966-.767.809-1.366-.157-.599-.773-.958-1.374-.804-.415.106-10.226 2.653-14.415 5.764-.497.369-.599 1.073-.227 1.569.222.293.56.449.905.449z"/>
    <path fill="#FAB893" d="M593.418 581.727c-.183 1.991-.354 4.07-.599 5.745-.463 3.17-1.19 4.907-2.774 1.892-.354-.68-.64-1.546-.873-2.544-1.364-5.816-.917-16.052-1.548-18.281-.714-2.537-3.689-9.745-3.948-10.152.132.301 1.474 4.709 1.629 7.429.147 2.548 0 5.65 0 11.93 0 2.739-.1 5.571-.448 7.63v.006c-.448 2.663-1.315 4.019-2.92 2.172-.788-.909-1.294-2.505-1.623-4.395-.865-4.905-.557-11.832-1.01-14.099-.614-3.039-3.096-7.949-3.255-8.256.941 3.127.941 2.819 1.466 6.927.367 2.868 1.043 10.504.329 13.927-.303 1.476-.873 2.172-1.833 1.364-1.497-1.263-2.54-3.11-3.273-5.225-.828-2.373-1.263-5.087-1.542-7.687-.524-4.924-2.526-7.957-2.526-7.957 1.112 5.333 1.719 10.488 1.389 13.149-.227 1.885-.922 2.518-2.231 1.086-2.552-2.786-5.13-12.006-6.02-15.471-.032-.107-.057-.215-.082-.314-.033-.109-.05-.202-.077-.289-.118-.464-.181-.729-.181-.729l-.008-.007c-.739-2.887-1.408-5.776-2.388-8.363-1.453-3.843-3.613-7.027-7.771-8.56-9.436-3.484-6.539-21.316 6.684-22.389 3.854-.311 7.668.957 10.691 3.35 1.925 1.525 4.638 3.653 7.386 5.739l.006.006c.266.333 8.866 10.92 11.556 17.514 2.736 6.695 5.056 17.269 5.58 20.302.53 3.032.739 8.793.214 14.55z"/>
</svg>
