<svg xmlns="http://www.w3.org/2000/svg" width="64" height="63" fill="none" viewBox="0 0 64 63">
    <path fill="#FB4C47" d="M45.723 31.5c0 1.05.851 1.901 1.9 1.901h4.323c2.2 0 4.374.505 6.339 1.496.586.296 1.258.444 1.97.397 1.883-.126 3.411-1.66 3.531-3.545.142-2.213-1.61-4.052-3.793-4.052-.59 0-1.15.135-1.649.376-2.002.967-4.176 1.525-6.399 1.525h-4.321c-1.05 0-1.9.852-1.9 1.902zM19.968 43.845c-.613-.614-1.608-.614-2.221 0l-2.527 2.528c-1.287 1.287-2.852 2.263-4.58 2.832-.516.17-.995.477-1.383.92-1.028 1.176-1.025 2.966.006 4.138 1.21 1.377 3.31 1.427 4.585.151.346-.346.594-.752.745-1.184.605-1.736 1.55-3.334 2.85-4.634l2.526-2.528c.613-.614.613-1.61 0-2.223zM42.76 21.043c.643.643 1.684.643 2.326 0l2.644-2.645c1.347-1.347 2.985-2.369 4.793-2.964.539-.178 1.041-.499 1.447-.963 1.076-1.23 1.073-3.103-.006-4.33-1.267-1.44-3.464-1.493-4.799-.158-.361.362-.621.787-.779 1.24-.633 1.816-1.622 3.488-2.981 4.849l-2.644 2.645c-.642.642-.642 1.684 0 2.326z"/>
    <path fill="#FFA2A1" d="M32.308 44.92c-1.05 0-1.9.851-1.9 1.901v4.325c0 2.201-.505 4.376-1.496 6.341-.296.586-.444 1.26-.397 1.97.126 1.886 1.659 3.414 3.543 3.534 2.213.142 4.05-1.611 4.05-3.794 0-.592-.134-1.152-.375-1.65-.966-2.003-1.525-4.178-1.525-6.402V46.82c0-1.05-.85-1.901-1.9-1.901z"/>
    <path fill="#FB4C47" d="M35.736 57.547c-.967-2.003-1.525-4.178-1.525-6.402v-4.324c0-1.05-.85-1.901-1.9-1.901-1.05 0-1.901.851-1.901 1.901v4.324c0 2.224.558 4.399 1.525 6.402.24.499.375 1.058.375 1.65 0 1.406-.763 2.633-1.897 3.291.492.286 1.052.465 1.648.504 2.212.14 4.05-1.612 4.05-3.795 0-.592-.134-1.151-.375-1.65z"/>
    <path fill="#FF807E" d="M18.124 23.647c3.43 0 6.209-2.78 6.209-6.211 0-3.43-2.78-6.211-6.209-6.211-3.428 0-6.208 2.78-6.208 6.21 0 3.431 2.78 6.212 6.208 6.212z"/>
    <path fill="#FB4C47" d="M18.123 11.225c-.663 0-1.3.105-1.9.297 2.499.803 4.308 3.147 4.308 5.914s-1.81 5.11-4.308 5.913c.599.193 1.237.298 1.9.298 3.43 0 6.209-2.78 6.209-6.211 0-3.43-2.78-6.211-6.209-6.211z"/>
    <path fill="#FFBFBE" d="M32.31 51.781c11.195 0 20.271-9.08 20.271-20.281 0-11.201-9.076-20.282-20.272-20.282-11.196 0-20.272 9.08-20.272 20.282 0 11.2 9.076 20.281 20.272 20.281z"/>
    <path fill="#FFA2A2" d="M32.31 11.218c-.64 0-1.274.031-1.9.09 10.305.959 18.372 9.632 18.372 20.192S40.715 50.733 30.41 51.692c.626.058 1.26.09 1.9.09 11.197 0 20.273-9.081 20.273-20.282S43.507 11.218 32.31 11.218z"/>
    <path fill="#FFA2A1" d="M39.909 28.687c2.274 0 4.118-1.845 4.118-4.12 0-2.275-1.844-4.12-4.118-4.12s-4.118 1.845-4.118 4.12c0 2.275 1.844 4.12 4.118 4.12z"/>
    <path fill="#FF807E" d="M39.912 20.447c-.686 0-1.332.169-1.9.466 1.317.687 2.216 2.065 2.216 3.654 0 1.59-.9 2.967-2.217 3.654.569.297 1.215.466 1.9.466 2.275 0 4.119-1.845 4.119-4.12 0-2.275-1.844-4.12-4.118-4.12zM25.06 42.211c1.54 0 2.788-1.248 2.788-2.788 0-1.54-1.248-2.79-2.787-2.79-1.54 0-2.788 1.25-2.788 2.79s1.248 2.788 2.788 2.788z"/>
    <path fill="#FB4C47" d="M46.1 50.344c2.099 0 3.8-1.702 3.8-3.803 0-2.1-1.701-3.802-3.8-3.802-2.1 0-3.801 1.702-3.801 3.803 0 2.1 1.701 3.802 3.8 3.802z"/>
    <path fill="#FF807E" d="M46.1 42.739c-.692 0-1.341.186-1.9.51 1.136.657 1.9 1.885 1.9 3.293 0 1.407-.764 2.635-1.9 3.292.559.324 1.208.51 1.9.51 2.1 0 3.801-1.702 3.801-3.802s-1.701-3.803-3.8-3.803z"/>
    <path fill="#FB4C47" d="M18.894 31.5c0 1.05-.85 1.901-1.9 1.901h-4.322c-2.2 0-4.375.505-6.34 1.496-.585.296-1.258.444-1.969.397-1.884-.126-3.412-1.66-3.532-3.545-.141-2.213 1.611-4.052 3.793-4.052.591 0 1.15.135 1.65.376 2.001.967 4.175 1.525 6.398 1.525h4.322c1.05 0 1.9.852 1.9 1.902z"/>
    <path fill="#FFA2A1" d="M32.308 18.08c1.05 0 1.9-.852 1.9-1.902v-4.324c0-2.202.505-4.377 1.496-6.342.295-.586.443-1.259.396-1.97-.126-1.885-1.658-3.414-3.543-3.534-2.212-.141-4.05 1.612-4.05 3.795 0 .591.134 1.15.375 1.65.967 2.003 1.525 4.178 1.525 6.401v4.324c0 1.05.851 1.901 1.9 1.901z"/>
    <path fill="#FB4C47" d="M36.101 3.542C35.975 1.657 34.443.128 32.558.008c-.787-.05-1.526.14-2.152.503 1.064.62 1.808 1.742 1.894 3.03.047.712-.1 1.385-.396 1.971-.991 1.965-1.496 4.14-1.496 6.342v4.324c0 1.05.85 1.901 1.9 1.901 1.05 0 1.901-.85 1.901-1.901v-4.324c0-2.202.505-4.377 1.496-6.342.295-.586.444-1.259.396-1.97z"/>
    <path fill="#FF807E" d="M59.997 27.7c-.59 0-1.15.134-1.648.375-.089.043-.178.083-.266.124 1.21.693 2.003 2.034 1.906 3.55-.083 1.297-.832 2.427-1.905 3.047.069.033.137.065.205.1.586.295 1.258.443 1.969.396 1.883-.126 3.41-1.658 3.53-3.543.14-2.212-1.61-4.05-3.791-4.05z"/>
</svg>
