<svg xmlns="http://www.w3.org/2000/svg" width="1171" height="873" fill="none" viewBox="0 0 1171 873">
    <path fill="url(#paint0_linear)" d="M541.104 722.83c-35.171 20.332-72.039 33.555-114.017 33.382-46.789-.197-93.172-31.592-122.484-66.048-10.891-12.797-20.415-27.588-22.623-44.243-5.086-38.478 30.125-49.423 61.829-48.935 17.87.267 35.153 5.219 52.243 10.129 28.373 8.161 60.014 8.889 86.633 22.562 8.935 4.605 16.152 10.792 26.046 13.512 15.392 4.236 32.109 4.482 47.769 8.031 13.375 3.057 28.85 9.298 31.372 22.778 2.571 13.828-10.219 25.32-21.873 33.179-8.245 5.589-16.514 10.825-24.895 15.653z"/>
    <path fill="url(#paint1_linear)" d="M292.8 267.685C333.798 157.432 457.155 86.982 573.386 96.193c56.049 4.45 108.249 29.517 157.407 56.771 43.329 24.019 86.233 50.864 120.646 86.957 23.495 24.635 43.703 56.113 59.886 86.157 24.213 44.991 28.069 109.657-35.141 120.331-14.83 2.506-28.718.354-43.467-.892-11.933-1.017-22.188 3.858-34.077 4.846-29.922 2.493-60.269-1.316-89.551-7.31-59.682-12.242-116.976-34.699-177.41-43.433-49.521-7.134-99.949-4.728-148.565 7.087-20.51 4.988-41.715 11.702-62.299 7.027-50.739-11.545-45.348-77.504-36.869-115.942 2.235-10.233 5.194-20.294 8.854-30.107z"/>
    <path fill="url(#paint2_linear)" d="M792.509 161.678c12.06 6.523 56.821 21.431 50.553-7.393-1.571-7.179-6.504-13.314-12.189-17.461-6.508-4.764-12.991-6.511-18.638-12.534-6.881-7.258-14.304-13.845-22.172-19.677-16.151-12.192-34.1-22.717-53.231-24.68-13.417-1.37-34.041 4.852-36.029 22.104-2.902 25.116 34.649 20.391 47.841 26.055 12.514 5.353 21.842 17.534 32.871 26.329 3.483 2.772 7.164 5.201 10.994 7.257z"/>
    <path fill="url(#paint3_linear)" d="M588.693 174.827c25.597 7.692 47.206 23.296 71.491 34.178 40.431 18.114 88.299 12.122 131.742 20.965 44.3 9.029 81.421 30.83 105.265 69.516 30.792 49.931 48.249 114.003 47.022 173.389-1.358 65.37-29.856 115.552-79.462 156.513-49.577 40.936-108.763 68.869-170.249 86.7-5.932 1.726-11.883 3.33-17.883 4.84-134.774 33.84-326.056 30.332-407.516-103.401-.746-1.222-1.474-2.447-2.208-3.692-8.691-14.993-15.556-30.973-20.448-47.599-17.489-58.903-23.171-127.254-15.958-188.256 4.842-41.065 29.832-73.083 56.176-103.561 37.013-42.818 87.188-71.543 140.672-88.692 39.606-12.697 84.675-24.831 126.558-18.75 11.779 1.744 23.411 4.367 34.798 7.85z"/>
    <path fill="url(#paint4_linear)" d="M902.258 591.85c-23.657 33.025-51.792 60.275-90.106 77.427-42.707 19.114-97.909 9.638-138.821-9.665-15.199-7.168-29.975-16.715-38.854-30.978-20.5-32.957 7.064-57.447 36.149-70.076 16.39-7.126 34.177-9.741 51.771-12.314 29.215-4.266 58.34-16.649 88.228-15.169 10.04.511 19.165 3.171 29.301 1.569 15.769-2.487 31.1-9.157 46.83-12.381 13.446-2.73 30.117-3.426 37.974 7.815 8.044 11.537 1.13 27.281-6.246 39.246-5.206 8.491-10.581 16.671-16.226 24.526z"/>
    <path fill="#000C3E" d="M506.432 412.302c-.341 0-.684-.108-.977-.334-.267-.21-6.596-5.209-11.429-15.406-4.432-9.351-8.368-25.028-1.96-46.641 4.346-14.662 8.702-25.085 12.543-34.287 6.974-16.694 12.014-28.756 12.421-54.328.013-.875.659-1.626 1.613-1.565.882.016 1.582.735 1.569 1.616-.417 26.183-5.823 39.123-12.667 55.506-3.811 9.125-8.129 19.465-12.428 33.965-11.686 39.402 12.053 58.442 12.295 58.626.69.541.814 1.54.277 2.234-.315.404-.783.614-1.257.614zM636.799 161.035c-.238 17.334-14.483 31.197-31.82 30.959-17.334-.239-31.194-14.484-30.958-31.821.238-17.334 14.486-31.194 31.82-30.958 17.334.239 31.197 14.486 30.958 31.82z"/>
    <path fill="#000C3E" d="M503.394 401.089s9.657 18.769 47.414 24.556c37.755 5.785 66.941-8.52 96.216 1.318 29.275 9.841 70.883-4.872 78.904-17.264 8.024-12.393 3.073-147.417-20.351-169.52-23.424-22.104-143.785-38.159-169.144-11.041-25.358 27.121-49.883 157.13-33.039 171.951z"/>
    <path fill="#000C3E" d="M717.938 289.38c-.783 57.128-47.729 102.805-104.86 102.022-57.128-.782-102.805-47.732-102.023-104.86.786-57.128 47.733-102.805 104.861-102.022 57.128.786 102.805 47.732 102.022 104.86z"/>
    <path fill="#FFCEB0" d="M529.966 286.087s7.232 125.433 92.235 128.838c85 3.404 80.714-173.465 49.6-189.562-31.114-16.093-159.214-9.892-141.835 60.724z"/>
    <path fill="#F5A473" d="M617.744 310.891s17.127 38.254 13.017 40.914c-4.111 2.657-16.329 2.491-19.686-.271-3.356-2.761-.063-44.808 6.669-40.643z"/>
    <path fill="#41294A" d="M592.633 324.426c-.111 4.404-3.77 7.884-8.173 7.773-4.404-.108-7.885-3.767-7.773-8.171.108-4.403 3.767-7.884 8.173-7.776 4.404.112 7.885 3.771 7.773 8.174zM661.01 319.045c-.111 4.404-3.77 7.884-8.174 7.773-4.403-.108-7.884-3.767-7.772-8.171.108-4.403 3.767-7.884 8.173-7.776 4.404.111 7.885 3.77 7.773 8.174zM595.202 217.554s-30.084 15.441-35.216 43.204c-5.135 27.764-.461 98.434-32.781 95.955 0 0-65.754-138.517 67.997-139.159M611.256 217.774c-2.714 2.042 31.423 1.148 51.503 24.346 20.083 23.198 26.122 82.223 29.167 83.247 3.045 1.028 13.331-73.632-8.597-95.468-21.929-21.833-56.629-23.748-72.073-12.125z"/>
    <path fill="#FFCEB0" d="M684.725 330.584s7.378-31.62 21.817-20.771c14.438 10.85 2.396 43.994-11.544 47.306-13.936 3.313-17.626-10.153-10.273-26.535zM550.746 328.746s-6.51-31.811-21.241-21.362c-14.728 10.449-3.599 43.915 10.242 47.609 13.844 3.69 17.9-9.667 10.999-26.247z"/>
    <path fill="#41294A" d="M649.183 290.911s15.012-7.92 24.261 3.458c8.136 10.003-10.433 1.896-17.267 3.191-6.838 1.299-15.867.732-6.994-6.649zM589.527 293.793s-15.397-7.143-24.054 4.69c-7.614 10.407 10.516 1.362 17.41 2.31 6.892.945 15.884-.083 6.644-7zM643.732 375.18s-9.793-14.798-20.388-13.866c-10.599.935-18.722 14.575-20.147 15.148 0 0 16.539 7.767 40.535-1.282"/>
    <path fill="#FFFCF6" d="M584.172 306.667c-13.258 0-24.193 10.793-24.378 24.054-.086 6.51 2.364 12.67 6.908 17.341 4.543 4.667 10.63 7.286 17.143 7.375l.34.003c13.258 0 24.194-10.789 24.375-24.051.185-13.442-10.601-24.531-24.047-24.718l-.341-.004zm.013 51.955l-.385-.003c-7.362-.099-14.244-3.064-19.38-8.34-5.135-5.278-7.906-12.24-7.808-19.602.207-14.993 12.571-27.191 27.56-27.191l.385.003c15.2.21 27.392 12.746 27.185 27.942-.203 14.992-12.568 27.191-27.557 27.191zM653.038 301.156c-13.261 0-24.197 10.792-24.378 24.053-.185 13.44 10.604 24.532 24.047 24.716l.341.003c13.261 0 24.197-10.789 24.378-24.05.089-6.513-2.364-12.673-6.904-17.344-4.544-4.664-10.631-7.286-17.144-7.375l-.34-.003zm.01 51.954l-.382-.003c-15.203-.21-27.395-12.746-27.188-27.942.207-14.992 12.568-27.191 27.56-27.191l.385.003c7.363.099 14.245 3.064 19.377 8.339 5.138 5.279 7.91 12.24 7.808 19.603-.207 14.992-12.571 27.191-27.56 27.191z"/>
    <path fill="#FFFCF6" d="M558.887 326.727c-.182 0-.37-.032-.548-.096l-10.204-3.748c-.824-.305-1.247-1.218-.944-2.045.302-.821 1.221-1.238 2.042-.942l10.201 3.745c.827.305 1.247 1.218.945 2.046-.236.642-.843 1.04-1.492 1.04zM677.873 319.496c-.677 0-1.307-.435-1.517-1.116-.264-.837.203-1.731 1.043-1.995l13.946-4.353c.833-.267 1.731.207 1.992 1.044.264.84-.204 1.731-1.044 1.995l-13.946 4.355c-.155.048-.318.07-.474.07z"/>
    <path fill="#000C3E" d="M610.759 246.942s.029 31.731 18.931 37.462c18.9 5.733 67.52 3.204 67.027-4.55-4.452-70.008-37.36-66.486-64.844-75.446-48.2-15.708-87.622 62.992-81.72 81.593 5.902 18.597 46.584 1.231 55.292-1.384 8.706-2.619 3.882-24.181 5.314-37.675"/>
    <path fill="#DB5C5D" d="M562.015 354.112s42.88-24.742 61.7-21.283c18.82 3.462 51.85 4.003 53.345 10.754 1.499 6.749-41.875 3.707-55.216 5.005-13.341 1.298-64.557 16.656-59.829 5.524z" opacity=".21"/>
    <path fill="#DB5C5D" d="M586.013 337.556c-.627 0-1.222-.373-1.474-.993-.33-.811.061-1.74.875-2.071 4.312-1.757 5.11-3.141 5.117-3.153.283-.834 1.155-1.222 1.995-.926.83.283 1.247 1.25.964 2.084-.201.585-1.286 2.666-6.879 4.941-.198.08-.398.118-.598.118zM651.524 334.188c-1.282 0-3.446-.388-6.844-2.046-.792-.382-1.12-1.333-.735-2.126.382-.789 1.339-1.113 2.125-.731 4.191 2.039 5.75 1.699 5.769 1.699.811-.341 1.677.057 2.02.865.344.808-.095 1.763-.907 2.11-.21.089-.661.229-1.428.229z"/>
    <path fill="#FFFCF6" d="M610.128 331.541c-.805 0-1.499-.608-1.582-1.429-.089-.875.548-1.658 1.423-1.744l17.073-1.743c.856-.108 1.654.544 1.743 1.419.09.875-.547 1.658-1.422 1.744l-17.073 1.743c-.054.006-.108.01-.162.01z"/>
    <path fill="#000C3E" d="M586.487 191.565c-.232 0-.471-.05-.693-.162-9.027-4.387-14.487-10.646-16.237-18.603-3.881-17.669 11.903-37.217 12.578-38.041.56-.681 1.559-.78 2.236-.223.681.557.783 1.556.226 2.237-.156.191-15.485 19.195-11.931 35.352 1.53 6.955 6.414 12.479 14.518 16.421.789.382 1.12 1.336.735 2.125-.274.564-.84.894-1.432.894zM622.817 196.294c-.442 0-.881-.185-1.196-.541-.58-.662-.516-1.664.146-2.246.184-.163 18.429-16.386 17.576-32.909-.366-7.111-4.276-13.363-11.623-18.584-.716-.506-.885-1.499-.375-2.218.509-.713 1.501-.881 2.217-.372 8.18 5.809 12.543 12.882 12.959 21.021.923 18.063-17.856 34.751-18.657 35.454-.303.264-.675.395-1.047.395zM717.447 405.181c-.461 0-.919-.198-1.234-.589-.554-.678-.452-1.68.229-2.237.21-.171 21.136-17.649 15.075-45.298-2.336-10.659-6.43-22.387-10.767-34.802-7.519-21.531-15.295-43.796-15.928-65.381-.025-.882.668-1.61 1.546-1.639.824.029 1.61.665 1.636 1.543.62 21.095 8.311 43.126 15.749 64.427 4.369 12.511 8.496 24.325 10.872 35.168 6.488 29.606-15.946 48.267-16.176 48.451-.295.239-.649.357-1.002.357z"/>
    <path fill="#000C3E" d="M723.098 291.551c-.051 0-.105-.003-.159-.006-.872-.086-1.511-.866-1.426-1.741 2.749-27.837-3.108-50.43-17.404-67.163-23.019-26.933-60.418-29.405-60.79-29.428-.878-.051-1.549-.801-1.495-1.683.047-.875.802-1.568 1.677-1.492.391.022 39.138 2.58 63.026 30.535 14.881 17.417 20.99 40.815 18.152 69.543-.079.824-.773 1.435-1.581 1.435z"/>
    <path fill="#DB5C5D" d="M609.154 378.321s15.854-11.124 30.013-1.588c0 0-16.532 6.195-30.013 1.588zM619.644 389.741c-1.565 0-2.911-.016-3.741-.029-.878-.013-1.578-.735-1.566-1.616.013-.879.614-1.591 1.617-1.566 6.007.08 13.185-.067 14.302-.49.817-.312 1.74.096 2.055.913.315.821-.086 1.734-.904 2.053-1.591.617-7.496.735-11.763.735zM542.48 346.203c-.143 0-.286-.019-.429-.06-.847-.236-1.34-1.111-1.105-1.96 4.353-15.6-7.203-25.645-7.321-25.747-.668-.566-.751-1.571-.181-2.243.566-.668 1.572-.751 2.243-.178.541.458 13.22 11.483 8.323 29.027-.197.7-.833 1.161-1.53 1.161zM690.92 350.003c-.035 0-.067 0-.105-.003-.875-.057-1.54-.815-1.486-1.69 1.19-18.463 10.038-28.333 10.417-28.743.592-.65 1.597-.694 2.243-.102.649.592.694 1.597.105 2.246-.086.095-8.476 9.523-9.586 26.803-.058.843-.758 1.489-1.588 1.489z"/>
    <path fill="#FFCEB0" d="M658.972 401.941s5.059 56.593-1.654 65.544c-6.714 8.953-49.234 2.236-60.425 0-11.19-2.237-11.212-95.837-8.953-89.515 18.683 52.215 69.744 6.007 71.032 23.971z"/>
    <path fill="#F5A473" d="M591.986 407.539s30.166 14.499 64.459-3.052c0 0 2.666 21.083 0 25.944-2.663 4.862-56.985 8.336-67.679-15.625 0 0 .134-8.308 3.22-7.267"/>
    <path fill="#FB4C47" d="M427.249 850.876h390.373s19.94-339.402-28.96-376.31c-48.903-36.911-264.176-18.473-314.858 13.055-50.682 31.528-46.555 363.255-46.555 363.255z"/>
    <path fill="#05BA6E" d="M622.153 460.778s-15.047 130.463-8.479 148.621c6.563 18.159-1.846 98.666-4.519 109.131-2.675 10.464-83.781 14.909-104.71 6.538-20.93-8.371 5.332-234.023 17.047-275.77 11.719-41.751 99.372-17.153 100.661 11.48z"/>
    <path fill="#FFCEB0" d="M383.969 300.932s32.629 62.493 55.496 63.072c22.87.579 99.989-93.336 128.424-94.304 28.439-.964 52.858 1.795 52.97-4.982.111-6.781-39.552-14.181-39.552-14.181s57.36 3.652 45.495-2.622c-11.861-6.274-40.287-11.916-40.287-11.916s41.226 1.664 41.525-2.745c.299-4.41-42.922-10.904-42.922-10.904s52.594-1.68 42.976-8.915c-9.622-7.236-27.729-4.095-76.705 3.385-48.98 7.48-159.787 72.868-167.42 84.112z"/>
    <path fill="#FB4C47" d="M441.214 297.938s52.196 31.092 29.469 66.327c-24.2 37.519-22.845 26.373-27.029 41.553-4.187 15.18 64.787 44.745 67.924 57.739 3.137 12.991-29.377 172.775-59.833 166.217-26.51-5.705-173.83-89.308-195.002-172.854-16.411-64.77 117.359-223.198 184.471-158.982z"/>
    <path fill="#fff" d="M577.845 662.398s-57.834 127.403-36.571 144.464c21.264 17.057 38.398 5.943 57.202 17.016 18.807 11.072 36.847 5.536 51.954-4.098 15.107-9.638-24.21-136.389-40.472-148.457-16.261-12.071-29.182-15.546-32.113-8.925z"/>
    <path fill="#FB4C47" d="M770.001 465.5s31.098 3.796 55.509 48.5c18.314 33.541 53.794 229.529 0 257.454-53.794 27.923-104.249 13.317-123.774-5.501-19.527-18.818 15.214-115.799 38.372-123.038 23.16-7.236 29.893-177.415 29.893-177.415z"/>
    <path fill="#05BA6E" d="M780.071 462.496s1.454-9.062-43.329-28.441c-35.737-15.467-66.349 10.636-120.862 13.446-54.512 2.812-49.593-18.795-88.153-8.753-59.504 15.491-12.128 54.496 7.045 58.874 19.173 4.378 83.409 112.363 245.299-35.126z"/>
    <path fill="#fff" d="M623.78 353.6s-.166 3.691 1.953 4.025c2.119.334 6.036-.849 5.027-5.822 0 0-5.313 1.708-6.98 1.797z"/>
    <path fill="#B31B1F" d="M844.514 659.318c-.149 0-.302-.009-.455-.031-1.47-.21-2.558-1.394-2.714-2.804-2.65-3.064-20.446-9.481-32.317-13.764-23.519-8.485-34.066-12.682-36.335-17.273-1.925-3.892-1.063-9.504.029-16.609 1.727-11.244 3.881-25.244-3.259-38.728-12.329-23.287-11.155-57.828-11.097-59.285.07-1.757 1.587-3.163 3.299-3.058 1.756.067 3.125 1.546 3.061 3.299-.016.344-1.161 34.306 10.363 56.066 8.123 15.348 5.695 31.139 3.923 42.67-.85 5.52-1.648 10.735-.614 12.826 1.928 2.974 20.5 9.675 32.788 14.107 27.693 9.991 37.309 14.01 36.472 19.854-.226 1.588-1.588 2.73-3.144 2.73zM761.5 633.159c-.277 0-.557-.035-.84-.112-10.512-2.867-26.844-5.851-27.006-5.883-1.731-.312-2.877-1.969-2.562-3.697.315-1.731 1.967-2.895 3.701-2.561.677.121 16.761 3.061 27.541 6 1.696.465 2.695 2.212 2.233 3.908-.385 1.416-1.667 2.345-3.067 2.345zM818.653 790.54c-.05 0-.098 0-.146-.004-58.894-2.669-117.571-27.757-120.744-51.62-.995-7.499-1.715-11.251-2.16-13.106-1.19-.591-1.912-1.858-1.699-3.242.404-2.621 2.179-3.551 3.589-3.551h.035c3.204.035 4.267 1.913 6.545 19.062 2.462 18.524 55.884 43.434 114.72 46.1 1.757.08 3.115 1.566 3.036 3.322-.077 1.709-1.486 3.039-3.176 3.039z"/>
    <path fill="#B31B1F" d="M713.077 734.226c-.232 0-.468-.026-.706-.077-1.712-.388-2.787-2.093-2.399-3.808.137-.614 14.053-61.958 27.06-106.085.497-1.687 2.278-2.654 3.952-2.151 1.686.496 2.65 2.265 2.151 3.951-12.95 43.931-26.819 105.077-26.956 105.691-.337 1.477-1.648 2.479-3.102 2.479zM437 600.994c-.155 0-.318-.012-.477-.035-1.737-.26-2.933-1.883-2.672-3.617.327-2.196 8.183-54.042 18.963-78.303 10.48-23.576 15.845-47.481 15.899-47.719.375-1.715 2.071-2.788 3.796-2.418 1.715.381 2.796 2.084 2.415 3.799-.22.999-5.559 24.766-16.294 48.925-10.43 23.472-18.41 76.129-18.489 76.658-.236 1.581-1.594 2.71-3.141 2.71zM388.497 419.977c-8.469 0-17.961-.515-28.409-1.845-1.744-.223-2.978-1.814-2.756-3.557.22-1.744 1.852-2.956 3.557-2.756 31.818 4.054 54.421.322 66.072-2.221-5.803-1.855-13.933-3.662-22.046-3.22-18.257.859-44.971-15.45-46.1-16.15-1.495-.923-1.957-2.883-1.034-4.378.923-1.496 2.886-1.963 4.378-1.034.261.159 26.192 16.001 42.428 15.205 15.467-.814 33.784 6.074 35.448 9.03.595 1.053.547 2.421-.13 3.424-.63.925-1.935 1.482-3.08 1.412-.503.058-1.992.414-3.44.758-6.958 1.667-22.294 5.329-44.888 5.332zM466.708 351.594c-1.183 0-2.319-.662-2.866-1.795-.08-.162-8.025-16.3-21.553-22.695-15.359-7.264-32.728-32.581-33.46-33.653-.989-1.454-.614-3.436.837-4.423 1.457-.986 3.433-.607 4.42.837.171.248 17.127 24.958 30.926 31.483 15.591 7.379 24.2 24.939 24.56 25.68.763 1.585.099 3.481-1.483 4.245-.445.219-.916.321-1.381.321z"/>
    <path fill="#08824F" d="M614.497 536.501c-.118 0-.238-.013-.356-.041-.856-.195-1.394-1.05-1.197-1.903.077-.337 7.665-33.51 9.886-50.361 3.459-26.271-8.307-35.435-8.425-35.524-.703-.528-.85-1.521-.328-2.224.522-.706 1.508-.856 2.215-.337.55.404 13.417 10.207 9.691 38.499-2.237 17.003-9.86 50.322-9.936 50.653-.169.742-.824 1.238-1.55 1.238zM520.663 488.657l-3.16-.366s2.469-21.48 3.758-32.04c1.301-10.652 4.34-17.926 4.47-18.231.341-.815 1.276-1.184 2.084-.85.808.344 1.187 1.279.847 2.087-.032.07-3.001 7.197-4.242 17.382-1.288 10.551-3.757 32.015-3.757 32.018z"/>
    <path fill="#B31B1F" d="M611.008 841.386c-18.145 0-28.123-.599-41.932-1.426-17.764-1.066-42.088-2.523-98.933-3.407-1.756-.026-3.159-1.47-3.131-3.23.029-1.756 1.575-3.22 3.23-3.134 56.985.885 81.392 2.351 99.213 3.42 13.7.818 23.595 1.413 41.553 1.413 22.479 0 42.645-2.463 62.149-4.842 17.121-2.094 33.29-4.067 50.621-4.452 36.969-.814 64.596-.003 64.869 0 1.757.058 3.138 1.524 3.084 3.277-.055 1.757-1.537 3.058-3.274 3.087-.274-.01-27.745-.824-64.536 0-17.015.375-33.035 2.332-49.994 4.403-19.692 2.406-40.052 4.891-62.919 4.891z"/>
    <path fill="#fff" d="M755.143 798.932c-1.581 0-3.165-.709-4.546-2.796-4.299-6.494-5.597-7.029-13.908-5.75-7.518 1.174-10.487-4.155-12.453-7.677-.655-1.178-1.279-2.288-1.823-2.718-1.464-1.154-5.12.233-6.666 1.085l-1.543-2.78c.675-.376 6.669-3.573 10.182-.802 1.04.824 1.775 2.141 2.628 3.662 1.899 3.395 3.865 6.892 9.188 6.087 9.514-1.47 12.056-.398 17.048 7.136 1.324 2.005 2.469 1.731 5.998-.327 2.679-1.572 6.742-3.943 9.771.289l-2.584 1.852c-1.18-1.639-2.249-1.343-5.584.604-1.594.933-3.649 2.135-5.708 2.135z"/>
    <path fill="#FFCEB0" d="M718.124 649.085s-75.999-27.481-108.971-13.424c-32.972 14.054-60.144 50.287-55.111 52.683 5.034 2.399 31.97-18.492 31.97-18.492s-27.468 27.757-22.374 30.535c5.094 2.777 31.563-12.043 31.563-12.043s-18.476 19.752-10.541 21.263c7.935 1.512 24.948-14.763 42.689-15.374 17.745-.614 40.106 13.408 62.289 17.357 22.18 3.945 28.486-62.505 28.486-62.505z"/>
    <path fill="#B31B1F" d="M832.818 634.84c-.197 0-.395-.019-.595-.057-.223-.039-22.603-4.27-49.358-9.711-1.722-.35-2.835-2.03-2.485-3.751.347-1.722 2.023-2.835 3.751-2.482 26.711 5.428 49.053 9.65 49.276 9.695 1.727.324 2.86 1.988 2.532 3.716-.286 1.527-1.622 2.59-3.121 2.59z"/>
    <path fill="#FFD310" fill-rule="evenodd" d="M620.41 134.769c-.831 0-1.734.097-2.713.29-2.385.479-3.93 1.638-4.858 3.649-4.137 8.954 4.585 30.278 10.817 42.877 3.851-13.976 8.466-37.337 1.945-44.699-1.256-1.415-2.965-2.117-5.191-2.117zm3.429 57.28c.1.019.201.033.303.041.332.128.686.194 1.044.194.331 0 .663-.055.986-.173 4.25-1.549 41.672-15.584 46.333-31.756 1.121-3.888.332-7.723-2.28-11.082-4.443-5.72-9.243-6.4-12.49-5.968-9.211 1.229-18.278 13.129-24.927 24.435 2.352-12.877 3.258-27.748-2.886-34.684-2.167-2.448-6.249-5.073-13.354-3.658-4.17.832-7.274 3.217-8.97 6.892-6.278 13.597 8.164 42.879 12.977 51.954-6.069 1.171-12.173 1.435-18.012 1.039-12.579-.855-23.729-4.767-30.386-9.046l-2.379 3.701c7.366 4.735 19.254 8.837 32.467 9.735 6.929.47 14.278.064 21.574-1.624zm35.488-43.078c-.273 0-.55.016-.827.058-9.756 1.298-21.543 21.989-27.775 35.078 12.955-5.455 33.503-15.874 36.232-25.348.614-2.133.202-4.018-1.289-5.942-2.007-2.582-4.086-3.846-6.341-3.846z" clip-rule="evenodd"/>
    <path stroke="#FFB2B1" stroke-linejoin="round" stroke-width="5" d="M197.27 243.75h113.245c7.269 0 14.147 3.295 18.703 8.96l33.24 41.338c4.715 5.862 11.905 9.175 19.425 8.949l212.967-6.401"/>
    <path fill="#FF383D" d="M209.361 244.265c0 5.036-4.082 9.119-9.118 9.119-5.036 0-9.119-4.083-9.119-9.119s4.083-9.118 9.119-9.118 9.118 4.082 9.118 9.118z"/>
    <path fill="#FFE1E2" d="M11 244.366c0-39.01 31.625-70.634 70.635-70.634 39.01 0 70.631 31.624 70.631 70.634 0 39.01-31.621 70.634-70.631 70.634C42.625 315 11 283.376 11 244.366z"/>
    <path stroke="#FFD6D7" stroke-miterlimit="10" stroke-width="2.4" d="M81.33 156.49c48.773 0 88.31 39.538 88.31 88.31 0 48.773-39.537 88.313-88.31 88.313v43.611"/>
    <path fill="#F2AEB0" d="M74.068 378.928c0-4.012 3.25-7.263 7.262-7.263s7.262 3.251 7.262 7.263c0 4.011-3.25 7.262-7.262 7.262-4.011 0-7.262-3.251-7.262-7.262z"/>
    <path fill="#FF383D" d="M46.002 236.424h9.79v1.98h-7.678v4.884h7.15v1.98h-7.15V252h-2.112v-15.576zm12.633 0h10.054v1.98h-7.942v4.642h7.392v1.98h-7.392v4.994h8.338V252h-10.45v-15.576zm11.315 0h2.442l4.576 12.672h.044l4.752-12.672h2.31L77.936 252h-1.98l-6.006-15.576zm15.992 0h10.054v1.98h-7.942v4.642h7.391v1.98h-7.391v4.994h8.337V252h-10.45v-15.576zm13.449 0h5.478c.997 0 1.818.139 2.464.418.645.264 1.151.609 1.518 1.034.381.411.645.88.792 1.408.146.513.22 1.012.22 1.496 0 .499-.088.983-.264 1.452-.176.455-.433.873-.77 1.254-.323.367-.726.682-1.21.946-.47.249-.998.403-1.584.462l4.422 7.106h-2.64l-3.96-6.864h-2.354V252h-2.112v-15.576zm2.112 6.864h2.772c.41 0 .814-.029 1.21-.088.41-.073.77-.198 1.078-.374.322-.176.579-.425.77-.748.19-.337.286-.77.286-1.298s-.096-.953-.286-1.276c-.191-.337-.448-.594-.77-.77-.308-.176-.668-.293-1.078-.352-.396-.073-.8-.11-1.21-.11h-2.772v5.016z"/>
    <path stroke="#FFB2B1" stroke-linejoin="round" stroke-width="5" d="M650.77 358.046h168.814c8.814 0 16.919 4.831 21.111 12.584l31.249 57.789c4.192 7.753 12.297 12.585 21.111 12.585h82.785"/>
    <path fill="#FF383D" d="M979.944 440.905c0 5.036-4.082 9.118-9.118 9.118-5.036 0-9.118-4.082-9.118-9.118 0-5.037 4.082-9.119 9.118-9.119 5.036 0 9.118 4.082 9.118 9.119z"/>
    <path fill="#FF383D" d="M1005.73 459.366c0-39.01 31.63-70.634 70.64-70.634 39.01 0 70.63 31.624 70.63 70.634 0 39.01-31.62 70.634-70.63 70.634-39.01 0-70.64-31.624-70.64-70.634z" opacity=".15"/>
    <path fill="#FF383D" d="M1040.29 440.424h5.48c.99 0 1.81.139 2.46.418.64.264 1.15.609 1.52 1.034.38.411.64.88.79 1.408.15.513.22 1.012.22 1.496 0 .499-.09.983-.26 1.452-.18.455-.44.873-.77 1.254-.33.367-.73.682-1.21.946-.47.249-1 .403-1.59.462l4.42 7.106h-2.64l-3.96-6.864h-2.35V456h-2.11v-15.576zm2.11 6.864h2.77c.41 0 .82-.029 1.21-.088.41-.073.77-.198 1.08-.374.32-.176.58-.425.77-.748.19-.337.29-.77.29-1.298s-.1-.953-.29-1.276c-.19-.337-.45-.594-.77-.77-.31-.176-.67-.293-1.08-.352-.39-.073-.8-.11-1.21-.11h-2.77v5.016zm13.16-6.864v9.548c0 .484.07.99.2 1.518.13.513.35.99.66 1.43.31.44.71.799 1.21 1.078s1.12.418 1.85.418 1.35-.139 1.85-.418c.5-.279.9-.638 1.21-1.078.3-.44.52-.917.66-1.43.13-.528.19-1.034.19-1.518v-9.548h2.12v9.878c0 .909-.16 1.738-.47 2.486-.3.733-.73 1.371-1.27 1.914-.54.543-1.18.961-1.92 1.254-.73.293-1.52.44-2.37.44-.85 0-1.64-.147-2.38-.44-.73-.293-1.37-.711-1.91-1.254-.54-.543-.97-1.181-1.28-1.914-.31-.748-.46-1.577-.46-2.486v-9.878h2.11zm13.67 0h2.77l8.58 12.804h.04v-12.804h2.11V456h-2.68l-8.67-12.804h-.04V456h-2.11v-15.576zm17.51 0h2.77l8.58 12.804h.04v-12.804h2.11V456h-2.68l-8.67-12.804h-.04V456h-2.11v-15.576zm21.18 8.932l-5.9-8.932h2.71l4.25 6.842 4.37-6.842h2.58l-5.9 8.932V456h-2.11v-6.644zm-59.66 20.068h2.77l8.58 12.804h.04v-12.804h2.12V485h-2.69l-8.67-12.804h-.04V485h-2.11v-15.576zm24.66 15.972c-1.19 0-2.28-.205-3.28-.616-1-.425-1.86-1.005-2.57-1.738-.71-.733-1.27-1.599-1.68-2.596-.39-.997-.59-2.075-.59-3.234 0-1.159.2-2.237.59-3.234.41-.997.97-1.863 1.68-2.596.71-.733 1.57-1.305 2.57-1.716 1-.425 2.09-.638 3.28-.638s2.28.213 3.28.638c.99.411 1.84.983 2.55 1.716.72.733 1.27 1.599 1.67 2.596.41.997.62 2.075.62 3.234 0 1.159-.21 2.237-.62 3.234-.4.997-.95 1.863-1.67 2.596-.71.733-1.56 1.313-2.55 1.738-1 .411-2.09.616-3.28.616zm0-1.98c.89 0 1.7-.161 2.42-.484.72-.337 1.33-.785 1.85-1.342.51-.557.9-1.21 1.18-1.958.28-.763.42-1.569.42-2.42s-.14-1.65-.42-2.398c-.28-.763-.67-1.423-1.18-1.98-.52-.557-1.13-.997-1.85-1.32-.72-.337-1.53-.506-2.42-.506-.9 0-1.7.169-2.42.506-.72.323-1.34.763-1.85 1.32s-.91 1.217-1.19 1.98c-.28.748-.42 1.547-.42 2.398 0 .851.14 1.657.42 2.42.28.748.68 1.401 1.19 1.958.51.557 1.13 1.005 1.85 1.342.72.323 1.52.484 2.42.484zm11.61-1.672c.39.572.87.997 1.46 1.276.6.264 1.21.396 1.84.396.36 0 .72-.051 1.08-.154.37-.117.7-.286.99-.506.31-.22.56-.491.75-.814.19-.323.29-.697.29-1.122 0-.601-.19-1.056-.58-1.364-.38-.323-.85-.587-1.43-.792-.55-.22-1.17-.425-1.84-.616-.66-.205-1.28-.484-1.85-.836-.56-.352-1.03-.821-1.41-1.408-.38-.601-.57-1.408-.57-2.42 0-.455.09-.939.28-1.452.21-.513.52-.983.95-1.408.43-.425.97-.777 1.63-1.056.67-.293 1.48-.44 2.42-.44.85 0 1.66.117 2.44.352s1.46.711 2.05 1.43l-1.72 1.562c-.26-.411-.64-.741-1.12-.99-.49-.249-1.04-.374-1.65-.374-.59 0-1.08.081-1.48.242-.38.147-.69.345-.92.594-.23.235-.4.491-.51.77-.08.279-.13.535-.13.77 0 .66.19 1.166.57 1.518.39.352.85.638 1.41.858.57.22 1.19.418 1.85.594.67.176 1.29.425 1.85.748.57.308 1.05.733 1.43 1.276.38.528.57 1.261.57 2.2 0 .748-.15 1.423-.44 2.024-.28.601-.66 1.107-1.14 1.518-.49.411-1.06.726-1.72.946-.66.22-1.36.33-2.11.33-1 0-1.95-.176-2.84-.528-.89-.352-1.61-.895-2.13-1.628l1.73-1.496zm11.77-12.32h10.05v1.98h-7.94v4.642h7.39v1.98h-7.39v4.994h8.34V485h-10.45v-15.576z"/>
    <path stroke="#FFD6D7" stroke-miterlimit="10" stroke-width="2.4" d="M1081.03 371.265c48.77 0 88.31 39.538 88.31 88.313 0 48.772-39.54 88.31-88.31 88.31v43.614"/>
    <path fill="#F2AEB0" d="M1073.77 593.704c0-4.012 3.25-7.262 7.26-7.262s7.26 3.25 7.26 7.262-3.25 7.262-7.26 7.262-7.26-3.25-7.26-7.262z"/>
    <path fill="#FF383D" d="M11 730.366c0-39.01 31.625-70.634 70.635-70.634 39.01 0 70.631 31.624 70.631 70.634 0 39.01-31.621 70.634-70.631 70.634C42.625 801 11 769.376 11 730.366z" opacity=".15"/>
    <g filter="url(#filter0_d)">
        <path fill="#FF383D" d="M26.65 726.424h5.435c1.1 0 2.06.125 2.882.374.836.249 1.554.587 2.156 1.012.616.411 1.122.887 1.518 1.43.41.543.733 1.1.968 1.672.234.572.403 1.144.506 1.716.102.572.154 1.1.154 1.584 0 .997-.184 1.965-.55 2.904-.367.924-.91 1.753-1.628 2.486-.719.719-1.614 1.298-2.684 1.738-1.056.44-2.28.66-3.674.66H26.65v-15.576zm2.113 13.596h2.662c.894 0 1.738-.117 2.53-.352.806-.249 1.51-.616 2.112-1.1.601-.484 1.078-1.085 1.43-1.804.352-.733.528-1.584.528-2.552 0-.499-.08-1.078-.242-1.738-.162-.675-.47-1.313-.924-1.914-.44-.601-1.056-1.107-1.848-1.518-.792-.425-1.819-.638-3.08-.638h-3.168v11.616zm18.22-4.664l-5.896-8.932h2.706l4.246 6.842 4.378-6.842h2.574l-5.896 8.932V742h-2.112v-6.644zm9.797-8.932h5.478c.997 0 1.819.139 2.464.418.645.264 1.151.609 1.518 1.034.381.411.645.88.792 1.408.147.513.22 1.012.22 1.496s-.073.99-.22 1.518c-.147.513-.41.983-.792 1.408-.367.411-.873.755-1.518 1.034-.645.264-1.467.396-2.464.396h-3.366V742H56.78v-15.576zm2.112 6.864h2.772c.41 0 .814-.029 1.21-.088.41-.073.77-.198 1.078-.374.323-.176.58-.425.77-.748.19-.337.286-.77.286-1.298s-.095-.953-.286-1.276c-.19-.337-.447-.594-.77-.77-.308-.176-.667-.293-1.078-.352-.396-.073-.8-.11-1.21-.11h-2.772v5.016zm11.391 5.456c.381.572.865.997 1.452 1.276.601.264 1.217.396 1.848.396.352 0 .711-.051 1.078-.154.367-.117.697-.286.99-.506.308-.22.557-.491.748-.814.19-.323.286-.697.286-1.122 0-.601-.19-1.056-.572-1.364-.381-.323-.858-.587-1.43-.792-.557-.22-1.173-.425-1.848-.616-.66-.205-1.276-.484-1.848-.836-.557-.352-1.027-.821-1.408-1.408-.381-.601-.572-1.408-.572-2.42 0-.455.095-.939.286-1.452.205-.513.52-.983.946-1.408.425-.425.968-.777 1.628-1.056.675-.293 1.481-.44 2.42-.44.85 0 1.665.117 2.442.352.777.235 1.46.711 2.046 1.43l-1.716 1.562c-.264-.411-.638-.741-1.122-.99-.484-.249-1.034-.374-1.65-.374-.587 0-1.078.081-1.474.242-.381.147-.69.345-.924.594-.235.235-.403.491-.506.77-.088.279-.132.535-.132.77 0 .66.19 1.166.572 1.518.381.352.85.638 1.408.858.572.22 1.188.418 1.848.594.675.176 1.29.425 1.848.748.572.308 1.049.733 1.43 1.276.381.528.572 1.261.572 2.2 0 .748-.147 1.423-.44 2.024-.279.601-.66 1.107-1.144 1.518-.484.411-1.056.726-1.716.946-.66.22-1.364.33-2.112.33-.997 0-1.943-.176-2.838-.528-.895-.352-1.606-.895-2.134-1.628l1.738-1.496zm11.763-12.32h2.772l8.58 12.804h.044v-12.804h2.112V742H92.87l-8.668-12.804h-.044V742h-2.112v-15.576zm24.659 15.972c-1.188 0-2.28-.205-3.278-.616-.997-.425-1.855-1.005-2.574-1.738-.704-.733-1.26-1.599-1.671-2.596-.397-.997-.594-2.075-.594-3.234 0-1.159.198-2.237.594-3.234.41-.997.967-1.863 1.671-2.596.719-.733 1.577-1.305 2.574-1.716.998-.425 2.09-.638 3.278-.638 1.188 0 2.281.213 3.278.638.998.411 1.848.983 2.552 1.716.719.733 1.276 1.599 1.672 2.596.411.997.616 2.075.616 3.234 0 1.159-.205 2.237-.616 3.234-.396.997-.953 1.863-1.672 2.596-.704.733-1.554 1.313-2.552 1.738-.997.411-2.09.616-3.278.616zm0-1.98c.895 0 1.702-.161 2.42-.484.719-.337 1.335-.785 1.848-1.342.514-.557.91-1.21 1.188-1.958.279-.763.418-1.569.418-2.42s-.139-1.65-.418-2.398c-.278-.763-.674-1.423-1.188-1.98-.513-.557-1.129-.997-1.848-1.32-.718-.337-1.525-.506-2.42-.506-.894 0-1.701.169-2.42.506-.718.323-1.334.763-1.848 1.32-.513.557-.909 1.217-1.188 1.98-.278.748-.418 1.547-.418 2.398 0 .851.14 1.657.418 2.42.279.748.675 1.401 1.188 1.958.514.557 1.13 1.005 1.848 1.342.719.323 1.526.484 2.42.484zm11.155-13.992h10.054v1.98h-7.942v4.642h7.392v1.98h-7.392v4.994h8.338V742h-10.45v-15.576zm18.333 0h1.914L144.773 742h-2.464l-1.562-3.85h-7.414l-1.54 3.85h-2.464l6.864-15.576zm3.784 9.878l-2.904-7.15h-.044l-2.948 7.15h5.896z"/>
    </g>
    <path stroke="#FFD6D7" stroke-miterlimit="10" stroke-width="2.4" d="M81.332 642.642c48.773 0 88.311 39.538 88.311 88.31 0 48.775-39.538 88.313-88.31 88.313v43.611"/>
    <path fill="#F2AEB0" d="M74.07 865.08c0-4.012 3.25-7.262 7.262-7.262s7.263 3.25 7.263 7.262c0 4.009-3.251 7.262-7.263 7.262-4.011 0-7.262-3.253-7.262-7.262z"/>
    <path stroke="#FFB2B1" stroke-linejoin="round" stroke-width="5" d="M186.74 742.834h178.293c9.633 0 18.332-5.759 22.094-14.627l56.413-132.974c3.762-8.868 12.462-14.627 22.094-14.627h207.175"/>
    <path fill="#FF383D" d="M201.987 743.241c0 5.036-4.083 9.118-9.119 9.118s-9.118-4.082-9.118-9.118c0-5.036 4.082-9.119 9.118-9.119 5.036 0 9.119 4.083 9.119 9.119z"/>
    <path fill="#FF383D" d="M159.268 488.366c0-39.01-31.624-70.634-70.634-70.634-39.01 0-70.634 31.624-70.634 70.634C18 527.376 49.624 559 88.634 559c39.01 0 70.634-31.624 70.634-70.634z" opacity=".15"/>
    <path fill="#FF383D" d="M43.298 470.404h-5.016v-1.98h12.144v1.98H45.41V484h-2.112v-13.596zm9.377-1.98h2.112v6.468h8.074v-6.468h2.112V484H62.86v-7.128h-8.074V484h-2.112v-15.576zm16.306 0h5.479c.997 0 1.818.139 2.464.418.645.264 1.15.609 1.517 1.034.382.411.646.88.793 1.408.146.513.22 1.012.22 1.496 0 .499-.088.983-.264 1.452-.177.455-.433.873-.77 1.254-.323.367-.727.682-1.21.946-.47.249-.998.403-1.584.462L80.047 484h-2.64l-3.96-6.864h-2.353V484h-2.112v-15.576zm2.113 6.864h2.772c.41 0 .814-.029 1.21-.088.41-.073.77-.198 1.078-.374.322-.176.579-.425.77-.748.19-.337.285-.77.285-1.298s-.095-.953-.285-1.276c-.191-.337-.448-.594-.77-.77-.308-.176-.668-.293-1.078-.352-.396-.073-.8-.11-1.21-.11h-2.772v5.016zm18.487 9.108c-1.188 0-2.281-.205-3.278-.616-.998-.425-1.856-1.005-2.574-1.738-.704-.733-1.262-1.599-1.672-2.596-.396-.997-.594-2.075-.594-3.234 0-1.159.198-2.237.594-3.234.41-.997.968-1.863 1.672-2.596.718-.733 1.576-1.305 2.574-1.716.997-.425 2.09-.638 3.278-.638 1.188 0 2.28.213 3.278.638.997.411 1.848.983 2.552 1.716.718.733 1.276 1.599 1.672 2.596.41.997.616 2.075.616 3.234 0 1.159-.206 2.237-.616 3.234-.396.997-.954 1.863-1.672 2.596-.704.733-1.555 1.313-2.552 1.738-.998.411-2.09.616-3.278.616zm0-1.98c.894 0 1.701-.161 2.42-.484.718-.337 1.334-.785 1.848-1.342.513-.557.909-1.21 1.188-1.958.278-.763.418-1.569.418-2.42s-.14-1.65-.418-2.398c-.279-.763-.675-1.423-1.188-1.98-.514-.557-1.13-.997-1.848-1.32-.719-.337-1.526-.506-2.42-.506-.895 0-1.702.169-2.42.506-.719.323-1.335.763-1.848 1.32-.514.557-.91 1.217-1.188 1.98-.279.748-.418 1.547-.418 2.398 0 .851.139 1.657.418 2.42.278.748.674 1.401 1.188 1.958.513.557 1.129 1.005 1.848 1.342.718.323 1.525.484 2.42.484zm16.038-13.992h1.914L114.199 484h-2.464l-1.562-3.85h-7.414l-1.54 3.85h-2.464l6.864-15.576zm3.784 9.878l-2.904-7.15h-.044l-2.948 7.15h5.896zm8.059-7.898h-5.016v-1.98h12.144v1.98h-5.016V484h-2.112v-13.596zm-56.226 27.02h5.478c.998 0 1.819.139 2.464.418.646.264 1.152.609 1.518 1.034.382.411.646.88.792 1.408.147.513.22 1.012.22 1.496s-.073.99-.22 1.518c-.146.513-.41.983-.792 1.408-.366.411-.872.755-1.518 1.034-.645.264-1.466.396-2.464.396h-3.366V513h-2.112v-15.576zm2.112 6.864h2.772c.411 0 .814-.029 1.21-.088.411-.073.77-.198 1.078-.374.323-.176.58-.425.77-.748.191-.337.286-.77.286-1.298s-.095-.953-.286-1.276c-.19-.337-.447-.594-.77-.77-.308-.176-.667-.293-1.078-.352-.396-.073-.799-.11-1.21-.11h-2.772v5.016zm14.18-6.864h1.915L86.109 513h-2.464l-1.562-3.85h-7.414l-1.54 3.85h-2.464l6.864-15.576zm3.785 9.878l-2.904-7.15h-.044l-2.948 7.15h5.896zm6.822-9.878h2.112V513h-2.112v-15.576zm6.123 0h2.772l8.58 12.804h.044v-12.804h2.112V513h-2.684l-8.668-12.804h-.044V513h-2.112v-15.576z"/>
    <path stroke="#FFD6D7" stroke-miterlimit="10" stroke-width="2.4" d="M89.973 400.026c-48.773 0-88.31 39.537-88.31 88.312 0 48.773 39.537 88.31 88.31 88.31v43.614"/>
    <path fill="#F2AEB0" d="M97.433 622.545c0-4.012-3.25-7.262-7.263-7.262-4.008 0-7.262 3.25-7.262 7.262 0 4.011 3.254 7.262 7.263 7.262 4.011 0 7.262-3.251 7.262-7.262z"/>
    <path stroke="#FFB2B1" stroke-linejoin="round" stroke-width="5" d="M190.511 503.07h203.311c7.421 0 14.424-3.432 18.97-9.298l42.736-55.143c4.546-5.866 11.549-9.298 18.97-9.298h157.223"/>
    <path fill="#FF383D" d="M200.761 503.586c0 5.036-4.083 9.118-9.119 9.118s-9.118-4.082-9.118-9.118c0-5.036 4.082-9.118 9.118-9.118 5.036 0 9.119 4.082 9.119 9.118z"/>
    <path fill="#FF383D" d="M1160 700.366c0-39.01-31.62-70.634-70.63-70.634-39.01 0-70.63 31.624-70.63 70.634 0 39.01 31.62 70.634 70.63 70.634 39.01 0 70.63-31.624 70.63-70.634z" opacity=".13"/>
    <path fill="#FA5652" d="M1045.44 688.744c.38.572.87.997 1.45 1.276.61.264 1.22.396 1.85.396.35 0 .71-.051 1.08-.154.37-.117.7-.286.99-.506.31-.22.56-.491.75-.814.19-.323.28-.697.28-1.122 0-.601-.19-1.056-.57-1.364-.38-.323-.86-.587-1.43-.792-.55-.22-1.17-.425-1.85-.616-.66-.205-1.27-.484-1.84-.836-.56-.352-1.03-.821-1.41-1.408-.38-.601-.57-1.408-.57-2.42 0-.455.09-.939.28-1.452.21-.513.52-.983.95-1.408.42-.425.97-.777 1.63-1.056.67-.293 1.48-.44 2.42-.44.85 0 1.66.117 2.44.352s1.46.711 2.04 1.43l-1.71 1.562c-.27-.411-.64-.741-1.12-.99-.49-.249-1.04-.374-1.65-.374-.59 0-1.08.081-1.48.242-.38.147-.69.345-.92.594-.24.235-.4.491-.51.77-.09.279-.13.535-.13.77 0 .66.19 1.166.57 1.518.38.352.85.638 1.41.858.57.22 1.19.418 1.85.594.67.176 1.29.425 1.85.748.57.308 1.05.733 1.43 1.276.38.528.57 1.261.57 2.2 0 .748-.15 1.423-.44 2.024-.28.601-.66 1.107-1.15 1.518-.48.411-1.05.726-1.71.946-.66.22-1.37.33-2.11.33-1 0-1.95-.176-2.84-.528-.9-.352-1.61-.895-2.14-1.628l1.74-1.496zm11.77-12.32h2.11v6.468h8.07v-6.468h2.11V692h-2.11v-7.128h-8.07V692h-2.11v-15.576zm21.19 0h1.91l6.67 15.576h-2.47l-1.56-3.85h-7.41L1074 692h-2.47l6.87-15.576zm3.78 9.878l-2.9-7.15h-.05l-2.95 7.15h5.9zm6.82-9.878h2.11v6.732h.18l6.89-6.732h2.94l-7.52 7.194 8.03 8.382h-3.08l-7.26-7.788h-.18V692H1089v-15.576zm14.27 0h2.11V692h-2.11v-15.576zm6.12 0h2.77l8.58 12.804h.05v-12.804h2.11V692h-2.69l-8.66-12.804h-.05V692h-2.11v-15.576zm30.78 6.864v7.678c-.38.235-.82.44-1.3.616-.49.176-.99.323-1.52.44-.51.132-1.04.227-1.58.286-.53.059-1.03.088-1.5.088-1.32 0-2.5-.22-3.54-.66-1.03-.44-1.9-1.034-2.62-1.782-.7-.748-1.25-1.613-1.63-2.596-.36-.997-.55-2.046-.55-3.146 0-1.159.2-2.237.6-3.234.41-.997.96-1.863 1.67-2.596.72-.733 1.58-1.305 2.57-1.716 1-.425 2.09-.638 3.28-.638 1.44 0 2.61.183 3.52.55.91.352 1.67.843 2.29 1.474l-1.5 1.606c-.64-.616-1.32-1.041-2.04-1.276-.72-.249-1.48-.374-2.27-.374-.89 0-1.7.169-2.42.506-.72.323-1.33.763-1.85 1.32-.51.557-.91 1.217-1.19 1.98-.27.748-.41 1.547-.41 2.398 0 .88.15 1.701.46 2.464.31.748.73 1.401 1.27 1.958.55.557 1.19.997 1.92 1.32.73.308 1.53.462 2.4.462.74 0 1.45-.066 2.11-.198.67-.147 1.25-.352 1.71-.616v-4.334h-3.45v-1.98h5.57zm-71.3 25.502c-.44-.572-1-1.012-1.67-1.32-.68-.308-1.38-.462-2.09-.462-.88 0-1.68.169-2.4.506-.71.323-1.32.77-1.83 1.342-.5.572-.89 1.247-1.16 2.024-.28.763-.42 1.584-.42 2.464 0 .821.13 1.599.39 2.332.27.733.65 1.379 1.15 1.936.5.557 1.1.997 1.82 1.32.72.323 1.54.484 2.45.484.89 0 1.67-.183 2.35-.55.67-.367 1.25-.88 1.72-1.54l1.78 1.342c-.12.161-.33.396-.62.704-.29.293-.68.594-1.16.902-.49.293-1.08.55-1.76.77-.68.235-1.46.352-2.36.352-1.23 0-2.35-.235-3.34-.704-.99-.469-1.83-1.085-2.53-1.848-.69-.763-1.22-1.621-1.59-2.574-.36-.968-.55-1.943-.55-2.926 0-1.203.2-2.31.6-3.322.39-1.027.94-1.907 1.65-2.64.72-.748 1.57-1.327 2.57-1.738 1-.411 2.1-.616 3.3-.616 1.03 0 2.03.198 3.02.594.99.396 1.81 1.005 2.44 1.826l-1.76 1.342zm4.64-3.366h2.11v6.468h8.08v-6.468h2.11V721h-2.11v-7.128h-8.08V721h-2.11v-15.576zm16.31 0h2.11V721h-2.11v-15.576zm6.12 0h2.11v13.596h7.15V721h-9.26v-15.576zm11.41 0h2.11v13.596h7.15V721h-9.26v-15.576zm11.87 12.32c.38.572.87.997 1.45 1.276.6.264 1.22.396 1.85.396.35 0 .71-.051 1.08-.154.36-.117.69-.286.99-.506.31-.22.56-.491.75-.814.19-.323.28-.697.28-1.122 0-.601-.19-1.056-.57-1.364-.38-.323-.86-.587-1.43-.792-.56-.22-1.17-.425-1.85-.616-.66-.205-1.27-.484-1.85-.836-.55-.352-1.02-.821-1.4-1.408-.39-.601-.58-1.408-.58-2.42 0-.455.1-.939.29-1.452.21-.513.52-.983.95-1.408.42-.425.96-.777 1.62-1.056.68-.293 1.49-.44 2.42-.44.85 0 1.67.117 2.45.352.77.235 1.46.711 2.04 1.43l-1.71 1.562c-.27-.411-.64-.741-1.13-.99-.48-.249-1.03-.374-1.65-.374-.58 0-1.07.081-1.47.242-.38.147-.69.345-.92.594-.24.235-.41.491-.51.77-.09.279-.13.535-.13.77 0 .66.19 1.166.57 1.518.38.352.85.638 1.41.858.57.22 1.19.418 1.85.594.67.176 1.29.425 1.84.748.58.308 1.05.733 1.43 1.276.39.528.58 1.261.58 2.2 0 .748-.15 1.423-.44 2.024-.28.601-.66 1.107-1.15 1.518-.48.411-1.05.726-1.71.946-.66.22-1.37.33-2.12.33-.99 0-1.94-.176-2.83-.528-.9-.352-1.61-.895-2.14-1.628l1.74-1.496z"/>
    <path stroke="#FFD6D7" stroke-miterlimit="10" stroke-width="2.4" d="M1089.87 613.801c-48.77 0-88.31 39.538-88.31 88.31 0 48.775 39.54 88.313 88.31 88.313v43.611"/>
    <path fill="#F2AEB0" d="M1097.13 836.239c0-4.012-3.25-7.263-7.27-7.263-4.01 0-7.26 3.251-7.26 7.263 0 4.009 3.25 7.262 7.26 7.262 4.02 0 7.27-3.253 7.27-7.262z"/>
    <path stroke="#FFA6A6" stroke-linejoin="round" stroke-width="5" d="M725.738 754.401h91.108c7.278 0 14.163-3.303 18.719-8.98l25.531-31.816c4.555-5.676 11.44-8.979 18.718-8.979h94.181"/>
    <path fill="#FF383D" d="M979.943 703.913c0 5.036-4.082 9.118-9.118 9.118-5.036 0-9.119-4.082-9.119-9.118 0-5.037 4.083-9.119 9.119-9.119s9.118 4.082 9.118 9.119z"/>
    <path fill="#FF383D" d="M1160 214.366c0-39.01-31.62-70.634-70.63-70.634-39.01 0-70.63 31.624-70.63 70.634 0 39.01 31.62 70.634 70.63 70.634 39.01 0 70.63-31.624 70.63-70.634z" opacity=".15"/>
    <path fill="#FF383D" d="M1030 207.424h2.11v6.468h8.08v-6.468h2.11V223h-2.11v-7.128h-8.08V223H1030v-15.576zm16.31 0h10.05v1.98h-7.94v4.642h7.39v1.98h-7.39v4.994h8.34V223h-10.45v-15.576zm18.33 0h1.92l6.66 15.576h-2.46l-1.56-3.85h-7.42l-1.54 3.85h-2.46l6.86-15.576zm3.79 9.878l-2.91-7.15h-.04l-2.95 7.15h5.9zm6.47-9.878h5.43c1.1 0 2.06.125 2.88.374.84.249 1.56.587 2.16 1.012.61.411 1.12.887 1.52 1.43.41.543.73 1.1.96 1.672.24.572.41 1.144.51 1.716.1.572.15 1.1.15 1.584 0 .997-.18 1.965-.55 2.904-.36.924-.91 1.753-1.62 2.486-.72.719-1.62 1.298-2.69 1.738-1.05.44-2.28.66-3.67.66h-5.08v-15.576zm2.11 13.596h2.66c.89 0 1.74-.117 2.53-.352.81-.249 1.51-.616 2.11-1.1.6-.484 1.08-1.085 1.43-1.804.35-.733.53-1.584.53-2.552 0-.499-.08-1.078-.24-1.738-.16-.675-.47-1.313-.93-1.914-.44-.601-1.05-1.107-1.84-1.518-.8-.425-1.82-.638-3.08-.638h-3.17v11.616zm19.43-13.596h1.91l6.67 15.576h-2.47l-1.56-3.85h-7.41l-1.54 3.85h-2.47l6.87-15.576zm3.78 9.878l-2.9-7.15h-.05l-2.94 7.15h5.89zm17.67-6.512c-.44-.572-1-1.012-1.67-1.32-.68-.308-1.37-.462-2.09-.462-.88 0-1.68.169-2.4.506-.7.323-1.31.77-1.83 1.342-.49.572-.88 1.247-1.16 2.024-.28.763-.42 1.584-.42 2.464 0 .821.13 1.599.4 2.332.26.733.64 1.379 1.14 1.936.5.557 1.11.997 1.83 1.32.72.323 1.53.484 2.44.484.89 0 1.68-.183 2.35-.55.68-.367 1.25-.88 1.72-1.54l1.78 1.342c-.12.161-.32.396-.62.704-.29.293-.68.594-1.16.902-.49.293-1.07.55-1.76.77-.68.235-1.46.352-2.36.352-1.23 0-2.34-.235-3.34-.704-.98-.469-1.83-1.085-2.53-1.848-.69-.763-1.22-1.621-1.58-2.574-.37-.968-.55-1.943-.55-2.926 0-1.203.19-2.31.59-3.322.4-1.027.95-1.907 1.65-2.64.72-.748 1.58-1.327 2.57-1.738 1-.411 2.1-.616 3.3-.616 1.03 0 2.04.198 3.02.594 1 .396 1.81 1.005 2.44 1.826l-1.76 1.342zm4.65-3.366h2.11v6.468h8.07v-6.468h2.11V223h-2.11v-7.128h-8.07V223h-2.11v-15.576zm16.3 0h10.06v1.98h-7.95v4.642h7.4v1.98h-7.4v4.994h8.34V223h-10.45v-15.576z"/>
    <path stroke="#FFD6D7" stroke-miterlimit="10" stroke-width="2.4" d="M1089.87 127.65c-48.77 0-88.31 39.537-88.31 88.31 0 48.772 39.54 88.312 88.31 88.312v43.611"/>
    <path fill="#F2AEB0" d="M1097.13 350.087c0-4.012-3.25-7.262-7.26-7.262s-7.26 3.25-7.26 7.262 3.25 7.262 7.26 7.262 7.26-3.25 7.26-7.262z"/>
    <path stroke="#FFB2B1" stroke-linejoin="round" stroke-width="5" d="M975.839 222.859h-126.28c-6.117 0-12.004 2.336-16.457 6.531l-28.535 26.881c-4.453 4.195-10.339 6.531-16.457 6.531H674.12"/>
    <path fill="#FF383D" d="M979.941 222.146c0 5.036-4.082 9.118-9.119 9.118-5.036 0-9.118-4.082-9.118-9.118 0-5.036 4.082-9.119 9.118-9.119 5.037 0 9.119 4.083 9.119 9.119z"/>
    <defs>
        <linearGradient id="paint0_linear" x1="279.615" x2="343.866" y1="651.802" y2="780.175" gradientUnits="userSpaceOnUse">
            <stop stop-color="#FFC8C8"/>
            <stop offset="1" stop-color="#FFF2F5"/>
        </linearGradient>
        <linearGradient id="paint1_linear" x1="911.18" x2="389.511" y1="248.499" y2="38.237" gradientUnits="userSpaceOnUse">
            <stop stop-color="#fff"/>
            <stop offset="1" stop-color="#FFD5D5"/>
        </linearGradient>
        <linearGradient id="paint2_linear" x1="843.946" x2="682.873" y1="153.536" y2="126.967" gradientUnits="userSpaceOnUse">
            <stop stop-color="#FFD3D3"/>
            <stop offset="1" stop-color="#FFF6F6"/>
        </linearGradient>
        <linearGradient id="paint3_linear" x1="205.431" x2="962.765" y1="428.025" y2="428.025" gradientUnits="userSpaceOnUse">
            <stop stop-color="#FFF8F5"/>
            <stop offset="1" stop-color="#FFDEDE"/>
        </linearGradient>
        <linearGradient id="paint4_linear" x1="893.009" x2="694.623" y1="609.534" y2="627.818" gradientUnits="userSpaceOnUse">
            <stop stop-color="#FFC2C2"/>
            <stop offset="1" stop-color="#fff"/>
        </linearGradient>
        <filter id="filter0_d" width="118.123" height="16.368" x="26.651" y="726.028" color-interpolation-filters="sRGB" filterUnits="userSpaceOnUse">
            <feFlood flood-opacity="0" result="BackgroundImageFix"/>
            <feColorMatrix in="SourceAlpha" values="0 0 0 0 0 0 0 0 0 0 0 0 0 0 0 0 0 0 127 0"/>
            <feOffset/>
            <feColorMatrix values="0 0 0 0 0 0 0 0 0 0 0 0 0 0 0 0 0 0 0.1 0"/>
            <feBlend in2="BackgroundImageFix" result="effect1_dropShadow"/>
            <feBlend in="SourceGraphic" in2="effect1_dropShadow" result="shape"/>
        </filter>
    </defs>
</svg>
