<svg xmlns="http://www.w3.org/2000/svg" width="192" height="63" fill="none" viewBox="0 0 192 63">
    <path fill="#035755" d="M85.635 36.644c.697 0 1.349-.146 1.957-.437.608-.291 1.146-.71 1.615-1.254l1.805 1.786c-.633.747-1.444 1.343-2.432 1.786-.975.443-1.983.665-3.021.665-1 0-1.938-.177-2.812-.532-.862-.355-1.609-.836-2.242-1.444s-1.134-1.33-1.501-2.166c-.355-.836-.532-1.735-.532-2.698 0-.963.184-1.862.55-2.698.368-.849.868-1.577 1.502-2.185.633-.608 1.38-1.09 2.242-1.444.874-.355 1.805-.532 2.793-.532 1.064 0 2.096.228 3.097.684 1 .443 1.811 1.045 2.432 1.805l-1.862 1.843c-.469-.583-1.02-1.026-1.653-1.33-.633-.317-1.305-.475-2.014-.475-.596 0-1.16.114-1.691.342-.52.215-.97.52-1.35.912-.38.38-.677.836-.892 1.368-.216.52-.323 1.09-.323 1.71 0 .608.108 1.178.323 1.71.228.52.532.969.912 1.349.392.38.849.684 1.368.912.532.215 1.108.323 1.729.323zm20.182-4.294c0 .95-.183 1.85-.551 2.698-.367.836-.867 1.564-1.501 2.185-.62.608-1.361 1.09-2.223 1.444-.861.355-1.786.532-2.774.532-.975 0-1.893-.177-2.755-.532-.86-.355-1.608-.836-2.242-1.444-.62-.62-1.114-1.349-1.482-2.185-.367-.849-.55-1.748-.55-2.698s.183-1.843.55-2.679c.368-.849.862-1.577 1.482-2.185.634-.62 1.381-1.108 2.242-1.463.862-.355 1.78-.532 2.755-.532.988 0 1.913.177 2.774.532.862.355 1.603.842 2.223 1.463.634.608 1.134 1.336 1.501 2.185.368.836.551 1.729.551 2.679zm-2.831 0c0-.62-.107-1.19-.323-1.71-.215-.532-.513-.988-.893-1.368-.367-.393-.81-.697-1.33-.912-.519-.228-1.076-.342-1.672-.342-.595 0-1.152.114-1.672.342-.506.215-.95.52-1.33.912-.367.38-.658.836-.874 1.368-.215.52-.323 1.09-.323 1.71 0 .608.108 1.178.323 1.71.216.532.507.994.874 1.387.38.38.824.684 1.33.912.52.215 1.077.323 1.672.323.596 0 1.153-.108 1.672-.323.52-.228.963-.532 1.33-.912.38-.393.678-.855.893-1.387.216-.532.323-1.102.323-1.71zm8.102 6.65l-5.396-13.3h2.983l4.066 10.507 4.161-10.507h2.85L114.28 39h-3.192zm9.793 0V25.7h2.755V39h-2.755zm5.177 0V25.7h5.111c.988 0 1.913.171 2.774.513.861.342 1.602.81 2.223 1.406.633.595 1.127 1.305 1.482 2.128.367.823.551 1.704.551 2.641 0 .925-.184 1.792-.551 2.603-.355.81-.849 1.514-1.482 2.109-.621.583-1.362 1.045-2.223 1.387-.861.342-1.786.513-2.774.513h-5.111zm5.092-10.849h-2.337v8.398h2.337c.583 0 1.127-.108 1.634-.323.519-.215.969-.507 1.349-.874.38-.38.678-.823.893-1.33.215-.507.323-1.051.323-1.634 0-.595-.108-1.153-.323-1.672-.215-.52-.513-.969-.893-1.349s-.83-.678-1.349-.893c-.507-.215-1.051-.323-1.634-.323zm12.34 4.332h7.144v2.204h-7.144v-2.204zm17.369-6.783V39h-2.603V28.341l-2.603 1.064v-2.261l3.553-1.444h1.653zm6.605-.228c.874 0 1.672.165 2.394.494.722.317 1.336.766 1.843 1.349.519.57.918 1.26 1.197 2.071.291.81.437 1.704.437 2.679 0 1.064-.159 2.04-.475 2.926-.317.874-.76 1.621-1.33 2.242-.57.62-1.261 1.102-2.071 1.444-.811.342-1.704.513-2.679.513-.722 0-1.438-.114-2.147-.342-.71-.24-1.305-.557-1.786-.95l1.482-1.862c.392.304.804.526 1.235.665.43.14.899.209 1.406.209 1.14 0 2.033-.386 2.679-1.159.658-.785 1.019-1.894 1.083-3.325-.431.481-.963.861-1.596 1.14-.634.266-1.305.399-2.014.399-.672 0-1.292-.101-1.862-.304-.57-.203-1.064-.481-1.482-.836-.406-.367-.722-.798-.95-1.292-.228-.507-.342-1.058-.342-1.653 0-.633.126-1.216.38-1.748.253-.545.595-1.013 1.026-1.406.443-.393.969-.697 1.577-.912.62-.228 1.285-.342 1.995-.342zm.076 6.441c.595 0 1.146-.127 1.653-.38.519-.253.981-.614 1.387-1.083-.203-.836-.57-1.507-1.102-2.014-.532-.507-1.166-.76-1.9-.76-.722 0-1.33.203-1.824.608-.482.405-.722.918-.722 1.539 0 .62.234 1.127.703 1.52.468.38 1.07.57 1.805.57z"/>
    <path fill="#FB4C47" d="M45.723 31.5c0 1.05.851 1.901 1.9 1.901h4.323c2.2 0 4.374.505 6.339 1.496.586.296 1.258.444 1.97.397 1.883-.126 3.411-1.66 3.531-3.545.142-2.213-1.61-4.052-3.793-4.052-.59 0-1.15.135-1.649.376-2.002.967-4.176 1.525-6.399 1.525h-4.321c-1.05 0-1.9.852-1.9 1.902zM19.968 43.845c-.613-.614-1.608-.614-2.221 0l-2.527 2.528c-1.287 1.287-2.852 2.263-4.58 2.832-.516.17-.995.477-1.383.92-1.028 1.176-1.025 2.966.006 4.138 1.21 1.377 3.31 1.427 4.585.151.346-.346.594-.752.745-1.184.605-1.736 1.55-3.334 2.85-4.634l2.526-2.528c.613-.614.613-1.61 0-2.223zM42.76 21.043c.643.643 1.684.643 2.326 0l2.644-2.645c1.347-1.347 2.985-2.369 4.793-2.964.539-.178 1.041-.499 1.447-.963 1.076-1.23 1.073-3.103-.006-4.33-1.267-1.44-3.464-1.493-4.799-.158-.361.362-.621.787-.779 1.24-.633 1.816-1.622 3.488-2.981 4.849l-2.644 2.645c-.642.642-.642 1.684 0 2.326z"/>
    <path fill="#FFA2A1" d="M32.308 44.92c-1.05 0-1.9.851-1.9 1.901v4.325c0 2.201-.505 4.376-1.496 6.341-.296.586-.444 1.26-.397 1.97.126 1.886 1.659 3.414 3.543 3.534 2.213.142 4.05-1.611 4.05-3.794 0-.592-.134-1.152-.375-1.65-.966-2.003-1.525-4.178-1.525-6.402V46.82c0-1.05-.85-1.901-1.9-1.901z"/>
    <path fill="#FB4C47" d="M35.736 57.547c-.967-2.003-1.525-4.178-1.525-6.402v-4.324c0-1.05-.85-1.901-1.9-1.901-1.05 0-1.901.851-1.901 1.901v4.324c0 2.224.558 4.399 1.525 6.402.24.499.375 1.058.375 1.65 0 1.406-.763 2.633-1.897 3.291.492.286 1.052.465 1.648.504 2.212.14 4.05-1.612 4.05-3.795 0-.592-.134-1.151-.375-1.65z"/>
    <path fill="#FF807E" d="M18.124 23.647c3.43 0 6.209-2.78 6.209-6.211 0-3.43-2.78-6.211-6.209-6.211-3.428 0-6.208 2.78-6.208 6.21 0 3.431 2.78 6.212 6.208 6.212z"/>
    <path fill="#FB4C47" d="M18.123 11.225c-.663 0-1.3.105-1.9.297 2.499.803 4.308 3.147 4.308 5.914s-1.81 5.11-4.308 5.913c.599.193 1.237.298 1.9.298 3.43 0 6.209-2.78 6.209-6.211 0-3.43-2.78-6.211-6.209-6.211z"/>
    <path fill="#FFBFBE" d="M32.31 51.781c11.195 0 20.271-9.08 20.271-20.281 0-11.201-9.076-20.282-20.272-20.282-11.196 0-20.272 9.08-20.272 20.282 0 11.2 9.076 20.281 20.272 20.281z"/>
    <path fill="#FFA2A2" d="M32.31 11.218c-.64 0-1.274.031-1.9.09 10.305.959 18.372 9.632 18.372 20.192S40.715 50.733 30.41 51.692c.626.058 1.26.09 1.9.09 11.197 0 20.273-9.081 20.273-20.282S43.507 11.218 32.31 11.218z"/>
    <path fill="#FFA2A1" d="M39.909 28.687c2.274 0 4.118-1.845 4.118-4.12 0-2.275-1.844-4.12-4.118-4.12s-4.118 1.845-4.118 4.12c0 2.275 1.844 4.12 4.118 4.12z"/>
    <path fill="#FF807E" d="M39.912 20.447c-.686 0-1.332.169-1.9.466 1.317.687 2.216 2.065 2.216 3.654 0 1.59-.9 2.967-2.217 3.654.569.297 1.215.466 1.9.466 2.275 0 4.119-1.845 4.119-4.12 0-2.275-1.844-4.12-4.118-4.12zM25.06 42.211c1.54 0 2.788-1.248 2.788-2.788 0-1.54-1.248-2.79-2.787-2.79-1.54 0-2.788 1.25-2.788 2.79s1.248 2.788 2.788 2.788z"/>
    <path fill="#FB4C47" d="M46.1 50.344c2.099 0 3.8-1.702 3.8-3.803 0-2.1-1.701-3.802-3.8-3.802-2.1 0-3.801 1.702-3.801 3.803 0 2.1 1.701 3.802 3.8 3.802z"/>
    <path fill="#FF807E" d="M46.1 42.739c-.692 0-1.341.186-1.9.51 1.136.657 1.9 1.885 1.9 3.293 0 1.407-.764 2.635-1.9 3.292.559.324 1.208.51 1.9.51 2.1 0 3.801-1.702 3.801-3.802s-1.701-3.803-3.8-3.803z"/>
    <path fill="#FB4C47" d="M18.894 31.5c0 1.05-.85 1.901-1.9 1.901h-4.322c-2.2 0-4.375.505-6.34 1.496-.585.296-1.258.444-1.969.397-1.884-.126-3.412-1.66-3.532-3.545-.141-2.213 1.611-4.052 3.793-4.052.591 0 1.15.135 1.65.376 2.001.967 4.175 1.525 6.398 1.525h4.322c1.05 0 1.9.852 1.9 1.902z"/>
    <path fill="#FFA2A1" d="M32.308 18.08c1.05 0 1.9-.852 1.9-1.902v-4.324c0-2.202.505-4.377 1.496-6.342.295-.586.443-1.259.396-1.97-.126-1.885-1.658-3.414-3.543-3.534-2.212-.141-4.05 1.612-4.05 3.795 0 .591.134 1.15.375 1.65.967 2.003 1.525 4.178 1.525 6.401v4.324c0 1.05.851 1.901 1.9 1.901z"/>
    <path fill="#FB4C47" d="M36.101 3.542C35.975 1.657 34.443.128 32.558.008c-.787-.05-1.526.14-2.152.503 1.064.62 1.808 1.742 1.894 3.03.047.712-.1 1.385-.396 1.971-.991 1.965-1.496 4.14-1.496 6.342v4.324c0 1.05.85 1.901 1.9 1.901 1.05 0 1.901-.85 1.901-1.901v-4.324c0-2.202.505-4.377 1.496-6.342.295-.586.444-1.259.396-1.97z"/>
    <path fill="#FF807E" d="M59.997 27.7c-.59 0-1.15.134-1.648.375-.089.043-.178.083-.266.124 1.21.693 2.003 2.034 1.906 3.55-.083 1.297-.832 2.427-1.905 3.047.069.033.137.065.205.1.586.295 1.258.443 1.969.396 1.883-.126 3.41-1.658 3.53-3.543.14-2.212-1.61-4.05-3.791-4.05z"/>
</svg>
