<svg xmlns="http://www.w3.org/2000/svg" width="657" height="690" fill="none" viewBox="0 0 657 690">
    <path fill="url(#paint0_linear)" d="M224.018 564.898c-31.476 11.152-63.257 16.305-97.157 9.864-37.784-7.182-70.557-39.517-89.075-71.764-6.88-11.977-12.358-25.361-11.643-39.152 1.666-31.861 31.765-35.421 57.315-30.268 14.402 2.898 27.626 9.495 40.701 16.028 21.706 10.855 47.168 16.193 66.629 31.238 6.53 5.063 11.434 11.146 19.022 14.83 11.803 5.734 25.276 8.442 37.4 13.661 10.351 4.478 21.92 11.844 21.936 23.118.001 11.561-12.061 18.929-22.659 23.531-7.502 3.279-14.97 6.269-22.469 8.914z"/>
    <path fill="url(#paint1_linear)" d="M108.159 153.937c51.563-75.989 158.186-106.5 244.61-77.93 41.675 13.784 76.601 42.486 108.815 72.281 28.395 26.26 55.943 54.585 75.334 88.344 13.241 23.043 22.718 50.665 29.41 76.453 10.005 38.612.919 88.363-48.994 84.718-11.711-.854-21.842-5.066-32.795-8.75-8.859-2.986-17.541-1.195-26.739-2.654-23.153-3.666-45.456-12.19-66.547-22.174-42.982-20.366-82.256-48.035-126.46-65.881-36.225-14.607-74.911-22.148-113.97-22.217-16.478-.027-33.804 1.126-48.544-6.242-36.33-18.177-19.993-67.191-6.425-94.763 3.595-7.344 7.707-14.424 12.305-21.185z"/>
    <path fill="url(#paint2_linear)" d="M512.445 165.406c8.488 7.689 41.841 28.678 42.483 4.047.152-6.136-2.631-12.094-6.419-16.588-4.334-5.158-9.247-7.863-12.631-13.873-4.14-7.255-8.854-14.075-14.079-20.369-10.681-13.101-23.152-25.207-38.283-30.6-10.613-3.779-28.581-2.828-33.623 10.773-7.344 19.801 24.06 23.429 33.637 30.645 9.089 6.83 14.237 18.566 21.437 27.893 2.275 2.941 4.779 5.644 7.478 8.072z"/>
    <path fill="url(#paint3_linear)" d="M355.467 141.323c17.981 10.586 31.469 26.432 47.862 39.194 27.294 21.244 64.704 25.59 96.004 40.363 31.915 15.074 56.014 38.499 66.91 72.262 14.076 43.58 15.414 95.406 3.455 140.209-13.171 49.317-44.1 82.077-89.321 103.923-45.196 21.834-95.263 32.023-145.198 34.125-4.819.207-9.629.319-14.459.35-108.48.63-252.874-37.554-289.807-154.089-.339-1.065-.663-2.129-.989-3.209-3.805-12.984-6.043-26.376-6.665-39.891-2.323-47.913 6.063-100.798 22.861-145.714 11.298-30.239 35.627-55.808 61.263-74.026 36.019-25.595 79.966-32.127 123.707-35.198 32.39-2.272 68.819-3.103 99.448 9.287 8.608 3.509 16.941 7.659 24.929 12.414z"/>
    <path fill="#FB4C47" d="M431.019 561.411c-139.047 40.43-254.919 1.444-295.474-23.103l-37.658-28.879 13.035-21.659 81.111-7.219 134.701-7.22 108.63 21.659 112.975-37.542h8.161c-17.381 58.912-89.754 93.855-125.481 103.963z"/>
    <path fill="#D9423D" d="M419.5 274s110 5 136.5 120.5c21 149-77.989 96.304-101.657 88.96C430.681 476.116 346.307 285.402 419.5 274z"/>
    <path fill="#FB4C47" d="M143.572 506.307h335.993s11.764-193.185-31.042-221.453c-42.8-28.263-242.967-22.36-287.331 1.78-44.365 24.147-17.62 219.673-17.62 219.673z"/>
    <path fill="#000C3E" d="M194.961 257.758c-.38 0-.765-.099-1.115-.309-1.028-.601-25.04-15.325-18.846-53.215 2.166-13.253 4.805-22.804 7.134-31.24 4.192-15.179 7.222-26.149 4.776-48.247-.129-1.202.736-2.282 1.938-2.417 1.197-.076 2.283.736 2.417 1.939 2.54 22.932-.753 34.83-4.91 49.893-2.3 8.319-4.904 17.759-7.035 30.778-5.715 34.971 16.528 48.609 16.756 48.749 1.039.613 1.383 1.956.765 2.995-.403.695-1.133 1.074-1.88 1.074zM280.665 24.398c1.705 15.08-9.142 28.683-24.222 30.388-15.08 1.704-28.683-9.143-30.388-24.223-1.699-15.08 9.143-28.683 24.223-30.388 15.08-1.698 28.683 9.143 30.387 24.223z"/>
    <path fill="#000C3E" d="M191.259 247.547s10.45 15.231 43.88 16.101c33.423.864 57.191-14.77 83.696-9.452 26.499 5.319 61.015-12.038 66.613-23.685 5.605-11.642-13.568-128.347-36.342-144.962-22.775-16.615-129.065-17.299-148.097 9.043-19.033 26.342-26.009 141.944-9.75 152.955z"/>
    <path fill="#000C3E" d="M365.258 126.912c5.611 49.695-30.125 94.532-79.819 100.142-49.695 5.611-94.532-30.125-100.142-79.819-5.611-49.695 30.125-94.532 79.819-100.142 49.695-5.61 94.532 30.125 100.142 79.819z"/>
    <path fill="#FFCEB0" d="M323.82 209.743s16.341 68.849 11.699 77.478c-4.641 8.623-42.32 8.372-52.292 7.899-9.977-.479-25.262-75.429-19.453-76.311 5.809-.875 56.584-24.444 60.046-9.066z"/>
    <path fill="#FFCEB0" d="M201.667 144.755s20.095 108.128 94.28 101.718c74.192-6.404 50.985-159.522 22.197-170.066-28.788-10.55-139.346 8.939-116.477 68.348z"/>
    <path fill="#EE9B68" d="M280.625 156.626s19.085 31.333 15.81 34.095c-3.276 2.761-13.907 3.958-17.124 1.932-3.217-2.032-4.991-38.905 1.314-36.027z"/>
    <path fill="#000C3E" d="M250.769 78.06s-24.421 16.72-25.823 41.398c-1.401 24.672 10.445 85.523-17.894 86.93 0 0-72.358-113.038 43.717-128.329M264.735 76.481c-2.131 2.073 27.41-2.464 47.406 15.471 19.99 17.935 31.736 68.523 34.492 69.077 2.761.555 3.468-65.41-17.976-81.956-21.449-16.545-51.79-14.385-63.922-2.592z"/>
    <path fill="#EE9B68" d="M268.1 240.549s31.042 11.939 58.435-7.736c0 0 5.061 17.9 3.386 22.454-1.67 4.559-48.229 14.665-60.618-4.677 0 0-4.011-10.538-1.203-10.041z"/>
    <path fill="#FFCEB0" d="M340.957 166.35s2.925-28.268 16.656-20.439c13.737 7.829 6.924 37.942-4.81 42.35-11.741 4.413-16.429-6.872-11.846-21.911zM224.411 179.511s-9.154-26.908-20.796-16.213c-11.641 10.696 1.711 38.532 14.135 40.214 12.429 1.681 14.478-10.363 6.661-24.001z"/>
    <path fill="#41294A" d="M305.568 137.219s10.958-10.03 21.315-2.441c9.102 6.673-8.418 3.918-13.924 6.527-5.499 2.61-13.276 4.128-7.391-4.086zM255.018 146.832s-13.037-7.128-21.281 2.709c-7.251 8.652 9.108 1.798 15.075 3.018 5.966 1.226 13.877.847 6.206-5.727z"/>
    <path fill="#FFFCF6" d="M253.727 156.548c-.8 0-1.6.046-2.412.134-11.658 1.325-20.077 11.887-18.763 23.54 1.313 11.559 11.781 20.089 23.527 18.758 5.652-.643 10.713-3.439 14.257-7.882 3.544-4.449 5.144-10.007 4.507-15.652-1.22-10.771-10.292-18.898-21.116-18.898zm-.059 45.485c-12.307 0-22.634-9.236-24.012-21.485-1.501-13.252 8.074-25.261 21.327-26.762 13.486-1.57 25.273 8.185 26.756 21.333.73 6.422-1.092 12.745-5.12 17.795-4.028 5.056-9.785 8.237-16.207 8.961-.922.105-1.839.158-2.744.158zM312.927 144.182c-.805 0-1.605.047-2.423.135-5.651.642-10.713 3.438-14.251 7.881-3.549 4.449-5.143 10.007-4.512 15.652 1.313 11.566 11.781 20.084 23.527 18.758 5.652-.642 10.713-3.438 14.257-7.881 3.544-4.449 5.144-10.007 4.507-15.652-1.22-10.766-10.287-18.893-21.105-18.893zm-.081 45.48c-12.301 0-22.623-9.236-24.001-21.485-.73-6.422 1.092-12.745 5.12-17.795 4.028-5.055 9.791-8.237 16.207-8.961 13.404-1.559 25.273 8.173 26.756 21.327.73 6.422-1.092 12.744-5.12 17.8-4.028 5.05-9.785 8.232-16.207 8.956-.922.105-1.839.158-2.755.158z"/>
    <path fill="#FFFCF6" d="M231.078 176.941c-.111 0-.216-.012-.327-.041l-9.271-2.131c-.782-.175-1.273-.963-1.092-1.745.181-.788.981-1.296 1.746-1.092l9.271 2.131c.782.175 1.273.963 1.092 1.746-.152.677-.754 1.132-1.419 1.132zM333.607 157.557c-.555 0-1.086-.321-1.331-.853-.333-.73-.006-1.599.724-1.938l11.635-5.313c.706-.338 1.594-.017 1.932.724.333.73.012 1.6-.723 1.933l-11.63 5.318c-.199.088-.403.129-.607.129z"/>
    <path fill="#000C3E" d="M258.821 71.007s12.214 58.411 29.255 61.306c17.048 2.896 56.753-4.6 57.705-11.337.951-6.732-39.764-53.618-64.617-58.37-43.588-8.331-69.147 64.348-61.978 79.848 7.175 15.506 40.593-4.057 47.861-7.286 7.275-3.234-7.981-52.286-8.226-64.161z"/>
    <path fill="#FFFCF6" d="M276.108 175.476c-.665 0-1.267-.455-1.418-1.126-.181-.789.303-1.571 1.085-1.752l14.637-3.398c.817-.21 1.576.31 1.751 1.086.181.788-.303 1.571-1.092 1.752l-14.63 3.397c-.117.03-.222.041-.333.041z"/>
    <path fill="#000C3E" d="M240.167 57.258c-.234 0-.467-.035-.701-.116-8.564-2.902-14.163-7.893-16.644-14.853-5.441-15.278 6.299-34.305 6.807-35.11.642-1.028 1.985-1.343 3.018-.69 1.022.637 1.332 1.992.695 3.013-.111.181-11.127 18.058-6.393 31.328 2.009 5.622 6.697 9.72 13.919 12.167 1.144.385 1.763 1.629 1.372 2.773-.304.91-1.162 1.488-2.073 1.488zM272.231 57.367c-.513 0-1.033-.181-1.447-.55-.905-.799-.993-2.183-.193-3.087.14-.158 13.941-15.985 11.454-29.851-1.062-5.885-5.009-10.69-11.728-14.292-1.069-.572-1.472-1.897-.9-2.96.573-1.08 1.915-1.454 2.96-.905 7.975 4.274 12.669 10.124 13.977 17.392 2.861 15.956-11.851 32.805-12.482 33.517-.432.485-1.033.736-1.641.736zM377.408 228.326c-.542 0-1.085-.198-1.506-.607-.875-.829-.911-2.212-.076-3.094.654-.695 16.061-17.316 7.929-40.178-3.182-8.95-8.022-18.653-13.142-28.934-8.927-17.929-18.163-36.465-21.105-55.264-.193-1.197.625-2.318 1.821-2.5 1.197-.262 2.318.626 2.499 1.822 2.837 18.134 11.922 36.361 20.708 53.986 5.179 10.404 10.071 20.223 13.346 29.419 9.055 25.46-8.156 43.897-8.891 44.673-.427.45-1.005.677-1.583.677z"/>
    <path fill="#000C3E" d="M369.718 128.502c-1.179 0-2.154-.94-2.189-2.125-.671-24.252-8.156-43.033-22.249-55.842-22.693-20.615-55.13-18.688-55.439-18.653-1.343.157-2.248-.835-2.33-2.038-.087-1.202.829-2.247 2.038-2.33 1.395-.098 34.608-2.083 58.679 19.786 15.01 13.633 22.973 33.465 23.68 58.948.035 1.209-.917 2.219-2.125 2.254h-.065z"/>
    <path fill="#EE9B68" d="M291.525 226.496c-2.546 0-4.355-.443-4.507-.484-1.174-.298-1.88-1.477-1.588-2.651.292-1.162 1.471-1.868 2.65-1.599.059.023 6.329 1.512 11.087-1.822 1.004-.689 2.364-.449 3.048.531.694.993.455 2.359-.532 3.048-3.421 2.399-7.262 2.977-10.158 2.977zM218.982 196.387c-.105 0-.21-.005-.321-.023-1.197-.175-2.02-1.29-1.845-2.487 1.985-13.527-8.734-20.696-8.845-20.76-1.01-.666-1.29-2.021-.636-3.036.66-1.016 2.014-1.296 3.03-.637.537.351 13.171 8.798 10.783 25.075-.158 1.086-1.092 1.868-2.166 1.868zM348.299 183.337c-1.15 0-2.113-.893-2.184-2.055-1.027-16.44 5.734-26.207 6.02-26.616.689-.975 2.055-1.226 3.047-.526.993.695 1.226 2.061.537 3.048-.064.088-6.153 9.008-5.237 23.826.076 1.208-.84 2.241-2.049 2.317-.041.006-.087.006-.134.006z"/>
    <path fill="#FFCEB0" d="M227.747 291.15s49.712 59.432 88.052 43.529c38.333-15.903 74.25-59.012 54.978-64.733-19.272-5.722-173.166-2.709-143.03 21.204z"/>
    <path fill="#41294A" d="M265.17 177.849c.549 3.62-1.944 6.994-5.563 7.543-3.62.543-6.995-1.944-7.543-5.564-.543-3.62 1.944-6.994 5.563-7.543 3.62-.543 6.995 1.944 7.543 5.564zM327.334 165.895c.549 3.619-1.944 6.994-5.564 7.543-3.62.543-6.994-1.945-7.543-5.564-.543-3.62 1.944-6.994 5.564-7.543 3.62-.543 6.994 1.944 7.543 5.564z"/>
    <path fill="#EE9B68" d="M275.988 218.532c-.345 0-.683-.082-1.005-.245-1.068-.555-1.494-1.868-.939-2.948.315-.608 7.864-15.028 20.024-16.388 6.907-.771 13.644 2.761 20.107 10.468.777.934.654 2.312-.268 3.088-.923.794-2.301.654-3.083-.269-5.47-6.521-10.912-9.551-16.259-8.932-9.826 1.086-16.563 13.907-16.633 14.041-.386.753-1.15 1.185-1.944 1.185z"/>
    <g filter="url(#filter0_d)">
        <circle cx="399.879" cy="442.564" r="105.44" fill="#fff"/>
    </g>
    <path fill="#E27B5A" d="M345.808 395.505s44.07 58.842 55.094 63.707c11.028 4.869 24.851 3.773 26.06 9.417 1.209 5.648-23.144-3.904-19.259 4.807 3.885 8.715 19.025 18.662 19.096 27.435.074 8.777-24.091-18.837-24.091-18.837s22.768 25.264 15.229 25.861c-7.542.598-27.044-24.102-27.044-24.102s21.815 32.402 14.583 29.442c-7.228-2.959-74.269-80.484-84.608-88.688-10.338-8.201 24.94-29.042 24.94-29.042z"/>
    <path fill="#F8B38A" d="M474.005 409.788s-50.265 53.632-61.759 57.256c-11.495 3.622-25.113 1.013-26.937 6.489-1.821 5.478 23.433-1.334 18.613 6.901-4.817 8.231-20.957 16.45-21.993 25.165-1.034 8.712 26.016-16.072 26.016-16.072s-25.407 22.603-17.979 24.026c7.432 1.426 29.53-20.977 29.53-20.977s-25.245 29.806-17.733 27.66c7.511-2.147 82.663-71.819 93.838-78.834 11.178-7.015-21.596-31.614-21.596-31.614z"/>
    <path fill="#F65551" d="M431.214 447.027s15.46 29.274 29.672 32.389c14.21 3.115 36.763-19.47 43.461-33.234 6.701-13.761-8.269-54.787-21.708-68.742-10.096-1.233-58.592 43.493-51.425 69.587z"/>
    <path fill="#128E5A" d="M332.232 361.934s53.903 55.281 51.494 68.292c-2.406 13.014-21.822 28.604-37.481 33.709-15.658 5.103-51.226-15.684-51.226-30.674 1.55-28.428 17.572-55.304 37.213-71.327z"/>
    <path fill="#FFC6A6" d="M151.907 425.958s118.861 64.956 141.081 64.69c22.218-.272 44.577-12.665 50.917-4.132 6.337 8.54-41.818 11.138-28.645 22.777 13.166 11.636 46.162 16.74 52.983 31.394 6.814 14.652-54.81-13.167-54.81-13.167s57.494 24.947 45.297 31.708c-12.201 6.768-63.781-19.732-63.781-19.732s61.344 37.646 46.952 38.208c-14.393.563-186.068-78.155-209.675-84.006-23.612-5.85 19.681-67.74 19.681-67.74z"/>
    <path fill="#D9423D" d="M243.609 422.254s1.425 55.159-11.244 76.206c-30.121 50.04-111.578 43.939-135.864 8.04-24.287-35.899 28.821-217.14 64.691-219.867 35.87-2.726 82.417 83.367 82.417 135.621z"/>
    <path fill="#FFD310" d="M266.835 5.67c-.673 0-1.403.078-2.194.234-1.929.387-3.179 1.324-3.929 2.951-3.345 7.24 3.708 24.485 8.748 34.674 3.114-11.302 6.846-30.195 1.572-36.148-1.015-1.144-2.397-1.711-4.197-1.711zm3.212 46.362c-.838 0-1.623-.451-2.037-1.198-1.783-3.196-17.242-31.577-11.537-43.935 1.372-2.972 3.882-4.9 7.254-5.573 5.746-1.144 9.047.978 10.8 2.958 9.162 10.344-1.063 42.512-2.259 46.145-.292.88-1.073 1.505-1.996 1.593-.075.007-.15.01-.225.01z"/>
    <path fill="#FFD310" d="M298.307 17.153c-.221 0-.445.014-.669.048-7.889 1.05-17.422 17.781-22.461 28.367 10.476-4.412 27.093-12.837 29.301-20.499.495-1.725.163-3.25-1.043-4.805-1.623-2.089-3.304-3.11-5.128-3.11zm-27.61 35.027c-.628 0-1.243-.251-1.688-.72-.641-.672-.825-1.657-.468-2.513 1.474-3.529 14.779-34.548 28.479-36.375 2.625-.35 6.507.2 10.1 4.826 2.112 2.716 2.751 5.817 1.844 8.962-3.77 13.078-34.032 24.428-37.469 25.68-.261.096-.529.14-.798.14z"/>
    <path stroke="#FFD310" stroke-width="4.87" d="M226.867 43.934c11.34 7.29 37.261 12.96 57.511 0"/>
    <defs>
        <linearGradient id="paint0_linear" x1="23.349" x2="56.007" y1="468.244" y2="581.637" gradientUnits="userSpaceOnUse">
            <stop stop-color="#FCC"/>
            <stop offset="1" stop-color="#FEE"/>
        </linearGradient>
        <linearGradient id="paint1_linear" x1="633.331" x2="267.819" y1="165.006" y2="80.604" gradientUnits="userSpaceOnUse">
            <stop stop-color="#fff"/>
            <stop offset="1" stop-color="#FFCECE"/>
        </linearGradient>
        <linearGradient id="paint2_linear" x1="555.794" x2="430.392" y1="169.021" y2="115.46" gradientUnits="userSpaceOnUse">
            <stop stop-color="#FFD1D1"/>
            <stop offset="1" stop-color="#FFFBFC"/>
        </linearGradient>
        <linearGradient id="paint3_linear" x1="527.487" x2="23.362" y1="522.233" y2="230.296" gradientUnits="userSpaceOnUse">
            <stop stop-color="#FFCDCD"/>
            <stop offset="1" stop-color="#FFF3F3"/>
        </linearGradient>
        <filter id="filter0_d" width="370.88" height="370.88" x="214.439" y="261.124" color-interpolation-filters="sRGB" filterUnits="userSpaceOnUse">
            <feFlood flood-opacity="0" result="BackgroundImageFix"/>
            <feColorMatrix in="SourceAlpha" values="0 0 0 0 0 0 0 0 0 0 0 0 0 0 0 0 0 0 127 0"/>
            <feOffset dy="4"/>
            <feGaussianBlur stdDeviation="40"/>
            <feColorMatrix values="0 0 0 0 0 0 0 0 0 0 0 0 0 0 0 0 0 0 0.22 0"/>
            <feBlend in2="BackgroundImageFix" result="effect1_dropShadow"/>
            <feBlend in="SourceGraphic" in2="effect1_dropShadow" result="shape"/>
        </filter>
    </defs>
</svg>
